{"glyphs":{"0":{"ha":1867,"x_min":351,"x_max":2099,"o":"m 2099 642 l 2099 374 l 358 374 l 358 642 l 1033 642 q 1063 734 1036 692 q 1134 801 1090 776 q 1228 825 1177 825 q 1323 801 1280 825 q 1394 734 1367 776 q 1424 642 1421 692 l 2099 642 m 1347 760 q 1228 806 1294 806 q 1165 793 1195 806 q 1110 760 1134 781 l 1347 760 m 1365 515 q 1405 628 1405 565 q 1360 746 1405 694 l 1130 515 l 1365 515 m 1091 740 q 1051 628 1051 691 q 1063 564 1051 594 q 1097 510 1075 533 l 1328 740 l 1091 740 m 1530 421 q 1595 446 1569 421 q 1622 510 1622 472 q 1595 572 1622 547 q 1530 597 1569 597 q 1465 572 1491 597 q 1440 510 1440 547 q 1465 446 1440 472 q 1530 421 1491 421 m 484 544 l 523 544 l 523 593 l 390 593 l 390 544 l 430 544 l 430 425 l 484 425 l 484 544 m 619 425 l 676 425 l 647 489 q 666 533 666 506 q 647 576 666 559 q 602 593 628 593 l 533 593 l 533 425 l 587 425 l 587 474 l 598 474 l 619 425 m 684 425 l 737 425 l 737 593 l 684 593 l 684 425 m 858 451 l 865 425 l 923 425 l 866 593 l 803 593 l 747 425 l 803 425 l 810 451 l 858 451 m 933 425 l 1047 425 l 1047 471 l 987 471 l 987 593 l 933 593 l 933 425 m 1738 425 l 1794 425 l 1794 593 l 1740 593 l 1740 504 l 1688 593 l 1633 593 l 1633 425 l 1687 425 l 1685 507 l 1738 425 m 1810 425 l 1924 425 l 1924 471 l 1865 471 l 1865 593 l 1810 593 l 1810 425 m 2009 425 l 2009 492 l 2066 593 l 2003 593 l 1981 543 l 1960 593 l 1897 593 l 1955 492 l 1955 425 l 2009 425 m 1530 549 q 1557 538 1547 549 q 1567 510 1567 526 q 1557 481 1567 492 q 1530 469 1547 469 q 1503 481 1514 469 q 1492 510 1492 492 q 1503 538 1492 526 q 1530 549 1514 549 m 601 547 q 608 543 605 547 q 612 533 612 539 q 608 523 612 527 q 601 518 605 518 l 587 518 l 587 547 l 601 547 m 822 496 l 833 536 l 834 536 l 845 496 l 822 496 m 1110 496 q 1228 451 1162 451 q 1292 463 1261 451 q 1347 496 1322 475 l 1110 496 m 1028 244 q 1065 235 1046 235 q 1090 243 1080 235 q 1101 267 1101 251 q 1092 284 1101 277 q 1069 297 1084 291 q 1051 305 1056 301 q 1047 315 1047 308 q 1052 326 1047 322 q 1066 331 1058 331 q 1081 328 1073 331 q 1094 321 1088 325 l 1094 339 q 1066 346 1080 346 q 1040 338 1050 346 q 1030 315 1030 330 q 1037 296 1030 302 q 1060 283 1044 290 q 1078 276 1073 280 q 1084 267 1084 273 q 1078 254 1084 258 q 1065 250 1073 250 q 1028 263 1046 250 l 1028 244 m 1152 290 q 1168 251 1152 267 q 1208 235 1184 235 q 1247 251 1231 235 q 1263 290 1263 267 q 1247 330 1263 313 q 1208 346 1231 346 q 1168 330 1184 346 q 1152 290 1152 313 m 1373 233 l 1373 343 l 1356 343 l 1356 268 l 1288 344 l 1280 344 l 1280 236 l 1297 236 l 1297 308 l 1365 233 l 1373 233 m 426 343 l 356 343 l 356 236 l 373 236 l 373 276 l 419 276 l 419 292 l 373 292 l 373 328 l 426 328 l 426 343 m 440 278 q 452 247 440 259 q 483 235 464 235 q 515 247 502 235 q 527 278 527 259 l 527 343 l 510 343 l 510 278 q 502 258 510 267 q 483 250 494 250 q 464 258 471 250 q 456 278 456 265 l 456 343 l 440 343 l 440 278 m 565 343 l 548 343 l 548 236 l 613 236 l 613 251 l 565 251 l 565 343 m 645 343 l 628 343 l 628 236 l 695 236 l 695 251 l 645 251 l 645 343 m 795 236 l 840 343 l 820 343 l 790 264 l 759 343 l 740 343 l 784 236 l 795 236 m 923 343 l 853 343 l 853 236 l 923 236 l 923 251 l 870 251 l 870 283 l 916 283 l 916 297 l 870 297 l 870 328 l 923 328 l 923 343 m 1001 236 l 1020 236 l 999 279 q 1011 291 1007 283 q 1016 308 1016 299 q 1006 333 1016 323 q 981 343 996 343 l 941 343 l 941 236 l 958 236 l 958 275 l 983 275 l 1001 236 m 1134 343 l 1117 343 l 1117 236 l 1134 236 l 1134 343 m 1245 290 q 1234 261 1245 273 q 1208 250 1224 250 q 1180 261 1191 250 q 1169 290 1169 273 q 1180 318 1169 307 q 1208 329 1191 329 q 1234 318 1224 329 q 1245 290 1245 307 m 999 308 q 994 294 999 300 q 981 289 989 289 l 958 289 l 958 328 l 981 328 q 994 322 989 328 q 999 308 999 317 m 2049 254 l 2084 288 l 2049 321 l 2038 311 l 2056 296 l 1420 296 l 1420 279 l 2056 279 l 2038 264 l 2049 254 m 999 132 q 1023 75 999 98 q 1081 51 1047 51 q 1140 74 1117 51 q 1163 132 1163 97 q 1140 188 1163 165 q 1081 211 1117 211 q 1023 188 1047 211 q 999 132 999 165 m 1453 65 q 1506 51 1475 51 q 1550 65 1533 51 q 1567 103 1567 78 q 1517 151 1567 140 q 1508 154 1514 153 q 1500 157 1502 156 q 1498 163 1498 159 q 1513 168 1498 168 q 1536 164 1523 168 q 1558 153 1549 160 l 1558 200 q 1513 211 1533 211 q 1468 199 1485 211 q 1451 164 1451 186 q 1461 134 1451 144 q 1495 115 1472 123 q 1506 112 1500 114 q 1516 108 1513 110 q 1519 103 1519 106 q 1506 94 1519 94 q 1453 117 1488 94 l 1453 65 m 1631 132 q 1655 75 1631 98 q 1712 51 1678 51 q 1748 61 1728 51 l 1749 110 q 1715 96 1735 96 q 1690 106 1700 96 q 1680 132 1680 117 q 1690 157 1680 147 q 1715 167 1700 167 q 1745 157 1729 167 l 1745 203 q 1713 211 1731 211 q 1655 188 1678 211 q 1631 132 1631 165 m 1753 132 q 1777 75 1753 98 q 1837 51 1801 51 q 1895 75 1872 51 q 1919 132 1919 98 q 1895 188 1919 165 q 1837 211 1872 211 q 1777 188 1801 211 q 1753 132 1753 165 m 358 164 l 408 164 l 351 56 l 483 56 l 483 99 l 430 99 l 487 207 l 358 207 l 358 164 m 606 207 l 497 207 l 497 56 l 608 56 l 608 97 l 545 97 l 545 111 l 598 111 l 598 153 l 545 153 l 545 165 l 606 165 l 606 207 m 613 164 l 649 164 l 649 56 l 698 56 l 698 164 l 734 164 l 734 207 l 613 207 l 613 164 m 774 79 l 817 79 l 823 56 l 876 56 l 824 207 l 769 207 l 717 56 l 767 56 l 774 79 m 994 207 l 884 207 l 884 56 l 933 56 l 933 103 l 984 103 l 984 143 l 933 143 l 933 165 l 994 165 l 994 207 m 1319 56 l 1319 207 l 1270 207 l 1270 126 l 1224 207 l 1174 207 l 1174 56 l 1223 56 l 1222 129 l 1269 56 l 1319 56 m 1327 164 l 1363 164 l 1363 56 l 1412 56 l 1412 164 l 1447 164 l 1447 207 l 1327 207 l 1327 164 m 1977 207 l 1928 207 l 1928 56 l 1977 56 l 1977 115 l 1997 78 l 2031 78 l 2051 115 l 2051 56 l 2098 56 l 2098 207 l 2049 207 l 2013 138 l 1977 207 m 1115 132 q 1105 106 1115 116 q 1081 96 1096 96 q 1057 106 1067 96 q 1048 132 1048 116 q 1057 157 1048 147 q 1081 167 1067 167 q 1105 157 1096 167 q 1115 132 1115 147 m 1870 132 q 1860 106 1870 117 q 1837 96 1851 96 q 1812 106 1822 96 q 1802 132 1802 117 q 1812 157 1802 147 q 1837 167 1822 167 q 1860 157 1851 167 q 1870 132 1870 147 m 797 156 l 806 119 l 785 119 l 795 156 l 797 156 m 1574 75 q 1581 58 1574 65 q 1599 51 1588 51 q 1616 58 1610 51 q 1623 75 1623 65 q 1616 91 1623 85 q 1599 97 1610 97 q 1581 91 1588 97 q 1574 75 1574 85 z "},"1":{"ha":1885,"x_min":351,"x_max":2099,"o":"m 2099 642 l 2099 374 l 358 374 l 358 642 l 1033 642 q 1063 734 1036 692 q 1134 801 1090 776 q 1228 825 1177 825 q 1323 801 1280 825 q 1394 734 1367 776 q 1424 642 1421 692 l 2099 642 m 1347 760 q 1228 806 1294 806 q 1165 793 1195 806 q 1110 760 1134 781 l 1347 760 m 1365 515 q 1405 628 1405 565 q 1360 746 1405 694 l 1130 515 l 1365 515 m 1091 740 q 1051 628 1051 691 q 1063 564 1051 594 q 1097 510 1075 533 l 1328 740 l 1091 740 m 1530 421 q 1595 446 1569 421 q 1622 510 1622 472 q 1595 572 1622 547 q 1530 597 1569 597 q 1465 572 1491 597 q 1440 510 1440 547 q 1465 446 1440 472 q 1530 421 1491 421 m 484 544 l 523 544 l 523 593 l 390 593 l 390 544 l 430 544 l 430 425 l 484 425 l 484 544 m 619 425 l 676 425 l 647 489 q 666 533 666 506 q 647 576 666 559 q 602 593 628 593 l 533 593 l 533 425 l 587 425 l 587 474 l 598 474 l 619 425 m 684 425 l 737 425 l 737 593 l 684 593 l 684 425 m 858 451 l 865 425 l 923 425 l 866 593 l 803 593 l 747 425 l 803 425 l 810 451 l 858 451 m 933 425 l 1047 425 l 1047 471 l 987 471 l 987 593 l 933 593 l 933 425 m 1738 425 l 1794 425 l 1794 593 l 1740 593 l 1740 504 l 1688 593 l 1633 593 l 1633 425 l 1687 425 l 1685 507 l 1738 425 m 1810 425 l 1924 425 l 1924 471 l 1865 471 l 1865 593 l 1810 593 l 1810 425 m 2009 425 l 2009 492 l 2066 593 l 2003 593 l 1981 543 l 1960 593 l 1897 593 l 1955 492 l 1955 425 l 2009 425 m 1530 549 q 1557 538 1547 549 q 1567 510 1567 526 q 1557 481 1567 492 q 1530 469 1547 469 q 1503 481 1514 469 q 1492 510 1492 492 q 1503 538 1492 526 q 1530 549 1514 549 m 601 547 q 608 543 605 547 q 612 533 612 539 q 608 523 612 527 q 601 518 605 518 l 587 518 l 587 547 l 601 547 m 822 496 l 833 536 l 834 536 l 845 496 l 822 496 m 1110 496 q 1228 451 1162 451 q 1292 463 1261 451 q 1347 496 1322 475 l 1110 496 m 1028 244 q 1065 235 1046 235 q 1090 243 1080 235 q 1101 267 1101 251 q 1092 284 1101 277 q 1069 297 1084 291 q 1051 305 1056 301 q 1047 315 1047 308 q 1052 326 1047 322 q 1066 331 1058 331 q 1081 328 1073 331 q 1094 321 1088 325 l 1094 339 q 1066 346 1080 346 q 1040 338 1050 346 q 1030 315 1030 330 q 1037 296 1030 302 q 1060 283 1044 290 q 1078 276 1073 280 q 1084 267 1084 273 q 1078 254 1084 258 q 1065 250 1073 250 q 1028 263 1046 250 l 1028 244 m 1152 290 q 1168 251 1152 267 q 1208 235 1184 235 q 1247 251 1231 235 q 1263 290 1263 267 q 1247 330 1263 313 q 1208 346 1231 346 q 1168 330 1184 346 q 1152 290 1152 313 m 1373 233 l 1373 343 l 1356 343 l 1356 268 l 1288 344 l 1280 344 l 1280 236 l 1297 236 l 1297 308 l 1365 233 l 1373 233 m 426 343 l 356 343 l 356 236 l 373 236 l 373 276 l 419 276 l 419 292 l 373 292 l 373 328 l 426 328 l 426 343 m 440 278 q 452 247 440 259 q 483 235 464 235 q 515 247 502 235 q 527 278 527 259 l 527 343 l 510 343 l 510 278 q 502 258 510 267 q 483 250 494 250 q 464 258 471 250 q 456 278 456 265 l 456 343 l 440 343 l 440 278 m 565 343 l 548 343 l 548 236 l 613 236 l 613 251 l 565 251 l 565 343 m 645 343 l 628 343 l 628 236 l 695 236 l 695 251 l 645 251 l 645 343 m 795 236 l 840 343 l 820 343 l 790 264 l 759 343 l 740 343 l 784 236 l 795 236 m 923 343 l 853 343 l 853 236 l 923 236 l 923 251 l 870 251 l 870 283 l 916 283 l 916 297 l 870 297 l 870 328 l 923 328 l 923 343 m 1001 236 l 1020 236 l 999 279 q 1011 291 1007 283 q 1016 308 1016 299 q 1006 333 1016 323 q 981 343 996 343 l 941 343 l 941 236 l 958 236 l 958 275 l 983 275 l 1001 236 m 1134 343 l 1117 343 l 1117 236 l 1134 236 l 1134 343 m 1245 290 q 1234 261 1245 273 q 1208 250 1224 250 q 1180 261 1191 250 q 1169 290 1169 273 q 1180 318 1169 307 q 1208 329 1191 329 q 1234 318 1224 329 q 1245 290 1245 307 m 999 308 q 994 294 999 300 q 981 289 989 289 l 958 289 l 958 328 l 981 328 q 994 322 989 328 q 999 308 999 317 m 2049 254 l 2084 288 l 2049 321 l 2038 311 l 2056 296 l 1420 296 l 1420 279 l 2056 279 l 2038 264 l 2049 254 m 999 132 q 1023 75 999 98 q 1081 51 1047 51 q 1140 74 1117 51 q 1163 132 1163 97 q 1140 188 1163 165 q 1081 211 1117 211 q 1023 188 1047 211 q 999 132 999 165 m 1453 65 q 1506 51 1475 51 q 1550 65 1533 51 q 1567 103 1567 78 q 1517 151 1567 140 q 1508 154 1514 153 q 1500 157 1502 156 q 1498 163 1498 159 q 1513 168 1498 168 q 1536 164 1523 168 q 1558 153 1549 160 l 1558 200 q 1513 211 1533 211 q 1468 199 1485 211 q 1451 164 1451 186 q 1461 134 1451 144 q 1495 115 1472 123 q 1506 112 1500 114 q 1516 108 1513 110 q 1519 103 1519 106 q 1506 94 1519 94 q 1453 117 1488 94 l 1453 65 m 1631 132 q 1655 75 1631 98 q 1712 51 1678 51 q 1748 61 1728 51 l 1749 110 q 1715 96 1735 96 q 1690 106 1700 96 q 1680 132 1680 117 q 1690 157 1680 147 q 1715 167 1700 167 q 1745 157 1729 167 l 1745 203 q 1713 211 1731 211 q 1655 188 1678 211 q 1631 132 1631 165 m 1753 132 q 1777 75 1753 98 q 1837 51 1801 51 q 1895 75 1872 51 q 1919 132 1919 98 q 1895 188 1919 165 q 1837 211 1872 211 q 1777 188 1801 211 q 1753 132 1753 165 m 358 164 l 408 164 l 351 56 l 483 56 l 483 99 l 430 99 l 487 207 l 358 207 l 358 164 m 606 207 l 497 207 l 497 56 l 608 56 l 608 97 l 545 97 l 545 111 l 598 111 l 598 153 l 545 153 l 545 165 l 606 165 l 606 207 m 613 164 l 649 164 l 649 56 l 698 56 l 698 164 l 734 164 l 734 207 l 613 207 l 613 164 m 774 79 l 817 79 l 823 56 l 876 56 l 824 207 l 769 207 l 717 56 l 767 56 l 774 79 m 994 207 l 884 207 l 884 56 l 933 56 l 933 103 l 984 103 l 984 143 l 933 143 l 933 165 l 994 165 l 994 207 m 1319 56 l 1319 207 l 1270 207 l 1270 126 l 1224 207 l 1174 207 l 1174 56 l 1223 56 l 1222 129 l 1269 56 l 1319 56 m 1327 164 l 1363 164 l 1363 56 l 1412 56 l 1412 164 l 1447 164 l 1447 207 l 1327 207 l 1327 164 m 1977 207 l 1928 207 l 1928 56 l 1977 56 l 1977 115 l 1997 78 l 2031 78 l 2051 115 l 2051 56 l 2098 56 l 2098 207 l 2049 207 l 2013 138 l 1977 207 m 1115 132 q 1105 106 1115 116 q 1081 96 1096 96 q 1057 106 1067 96 q 1048 132 1048 116 q 1057 157 1048 147 q 1081 167 1067 167 q 1105 157 1096 167 q 1115 132 1115 147 m 1870 132 q 1860 106 1870 117 q 1837 96 1851 96 q 1812 106 1822 96 q 1802 132 1802 117 q 1812 157 1802 147 q 1837 167 1822 167 q 1860 157 1851 167 q 1870 132 1870 147 m 797 156 l 806 119 l 785 119 l 795 156 l 797 156 m 1574 75 q 1581 58 1574 65 q 1599 51 1588 51 q 1616 58 1610 51 q 1623 75 1623 65 q 1616 91 1623 85 q 1599 97 1610 97 q 1581 91 1588 97 q 1574 75 1574 85 z "},"2":{"ha":1778,"x_min":351,"x_max":2099,"o":"m 2099 642 l 2099 374 l 358 374 l 358 642 l 1033 642 q 1063 734 1036 692 q 1134 801 1090 776 q 1228 825 1177 825 q 1323 801 1280 825 q 1394 734 1367 776 q 1424 642 1421 692 l 2099 642 m 1347 760 q 1228 806 1294 806 q 1165 793 1195 806 q 1110 760 1134 781 l 1347 760 m 1365 515 q 1405 628 1405 565 q 1360 746 1405 694 l 1130 515 l 1365 515 m 1091 740 q 1051 628 1051 691 q 1063 564 1051 594 q 1097 510 1075 533 l 1328 740 l 1091 740 m 1530 421 q 1595 446 1569 421 q 1622 510 1622 472 q 1595 572 1622 547 q 1530 597 1569 597 q 1465 572 1491 597 q 1440 510 1440 547 q 1465 446 1440 472 q 1530 421 1491 421 m 484 544 l 523 544 l 523 593 l 390 593 l 390 544 l 430 544 l 430 425 l 484 425 l 484 544 m 619 425 l 676 425 l 647 489 q 666 533 666 506 q 647 576 666 559 q 602 593 628 593 l 533 593 l 533 425 l 587 425 l 587 474 l 598 474 l 619 425 m 684 425 l 737 425 l 737 593 l 684 593 l 684 425 m 858 451 l 865 425 l 923 425 l 866 593 l 803 593 l 747 425 l 803 425 l 810 451 l 858 451 m 933 425 l 1047 425 l 1047 471 l 987 471 l 987 593 l 933 593 l 933 425 m 1738 425 l 1794 425 l 1794 593 l 1740 593 l 1740 504 l 1688 593 l 1633 593 l 1633 425 l 1687 425 l 1685 507 l 1738 425 m 1810 425 l 1924 425 l 1924 471 l 1865 471 l 1865 593 l 1810 593 l 1810 425 m 2009 425 l 2009 492 l 2066 593 l 2003 593 l 1981 543 l 1960 593 l 1897 593 l 1955 492 l 1955 425 l 2009 425 m 1530 549 q 1557 538 1547 549 q 1567 510 1567 526 q 1557 481 1567 492 q 1530 469 1547 469 q 1503 481 1514 469 q 1492 510 1492 492 q 1503 538 1492 526 q 1530 549 1514 549 m 601 547 q 608 543 605 547 q 612 533 612 539 q 608 523 612 527 q 601 518 605 518 l 587 518 l 587 547 l 601 547 m 822 496 l 833 536 l 834 536 l 845 496 l 822 496 m 1110 496 q 1228 451 1162 451 q 1292 463 1261 451 q 1347 496 1322 475 l 1110 496 m 1028 244 q 1065 235 1046 235 q 1090 243 1080 235 q 1101 267 1101 251 q 1092 284 1101 277 q 1069 297 1084 291 q 1051 305 1056 301 q 1047 315 1047 308 q 1052 326 1047 322 q 1066 331 1058 331 q 1081 328 1073 331 q 1094 321 1088 325 l 1094 339 q 1066 346 1080 346 q 1040 338 1050 346 q 1030 315 1030 330 q 1037 296 1030 302 q 1060 283 1044 290 q 1078 276 1073 280 q 1084 267 1084 273 q 1078 254 1084 258 q 1065 250 1073 250 q 1028 263 1046 250 l 1028 244 m 1152 290 q 1168 251 1152 267 q 1208 235 1184 235 q 1247 251 1231 235 q 1263 290 1263 267 q 1247 330 1263 313 q 1208 346 1231 346 q 1168 330 1184 346 q 1152 290 1152 313 m 1373 233 l 1373 343 l 1356 343 l 1356 268 l 1288 344 l 1280 344 l 1280 236 l 1297 236 l 1297 308 l 1365 233 l 1373 233 m 426 343 l 356 343 l 356 236 l 373 236 l 373 276 l 419 276 l 419 292 l 373 292 l 373 328 l 426 328 l 426 343 m 440 278 q 452 247 440 259 q 483 235 464 235 q 515 247 502 235 q 527 278 527 259 l 527 343 l 510 343 l 510 278 q 502 258 510 267 q 483 250 494 250 q 464 258 471 250 q 456 278 456 265 l 456 343 l 440 343 l 440 278 m 565 343 l 548 343 l 548 236 l 613 236 l 613 251 l 565 251 l 565 343 m 645 343 l 628 343 l 628 236 l 695 236 l 695 251 l 645 251 l 645 343 m 795 236 l 840 343 l 820 343 l 790 264 l 759 343 l 740 343 l 784 236 l 795 236 m 923 343 l 853 343 l 853 236 l 923 236 l 923 251 l 870 251 l 870 283 l 916 283 l 916 297 l 870 297 l 870 328 l 923 328 l 923 343 m 1001 236 l 1020 236 l 999 279 q 1011 291 1007 283 q 1016 308 1016 299 q 1006 333 1016 323 q 981 343 996 343 l 941 343 l 941 236 l 958 236 l 958 275 l 983 275 l 1001 236 m 1134 343 l 1117 343 l 1117 236 l 1134 236 l 1134 343 m 1245 290 q 1234 261 1245 273 q 1208 250 1224 250 q 1180 261 1191 250 q 1169 290 1169 273 q 1180 318 1169 307 q 1208 329 1191 329 q 1234 318 1224 329 q 1245 290 1245 307 m 999 308 q 994 294 999 300 q 981 289 989 289 l 958 289 l 958 328 l 981 328 q 994 322 989 328 q 999 308 999 317 m 2049 254 l 2084 288 l 2049 321 l 2038 311 l 2056 296 l 1420 296 l 1420 279 l 2056 279 l 2038 264 l 2049 254 m 999 132 q 1023 75 999 98 q 1081 51 1047 51 q 1140 74 1117 51 q 1163 132 1163 97 q 1140 188 1163 165 q 1081 211 1117 211 q 1023 188 1047 211 q 999 132 999 165 m 1453 65 q 1506 51 1475 51 q 1550 65 1533 51 q 1567 103 1567 78 q 1517 151 1567 140 q 1508 154 1514 153 q 1500 157 1502 156 q 1498 163 1498 159 q 1513 168 1498 168 q 1536 164 1523 168 q 1558 153 1549 160 l 1558 200 q 1513 211 1533 211 q 1468 199 1485 211 q 1451 164 1451 186 q 1461 134 1451 144 q 1495 115 1472 123 q 1506 112 1500 114 q 1516 108 1513 110 q 1519 103 1519 106 q 1506 94 1519 94 q 1453 117 1488 94 l 1453 65 m 1631 132 q 1655 75 1631 98 q 1712 51 1678 51 q 1748 61 1728 51 l 1749 110 q 1715 96 1735 96 q 1690 106 1700 96 q 1680 132 1680 117 q 1690 157 1680 147 q 1715 167 1700 167 q 1745 157 1729 167 l 1745 203 q 1713 211 1731 211 q 1655 188 1678 211 q 1631 132 1631 165 m 1753 132 q 1777 75 1753 98 q 1837 51 1801 51 q 1895 75 1872 51 q 1919 132 1919 98 q 1895 188 1919 165 q 1837 211 1872 211 q 1777 188 1801 211 q 1753 132 1753 165 m 358 164 l 408 164 l 351 56 l 483 56 l 483 99 l 430 99 l 487 207 l 358 207 l 358 164 m 606 207 l 497 207 l 497 56 l 608 56 l 608 97 l 545 97 l 545 111 l 598 111 l 598 153 l 545 153 l 545 165 l 606 165 l 606 207 m 613 164 l 649 164 l 649 56 l 698 56 l 698 164 l 734 164 l 734 207 l 613 207 l 613 164 m 774 79 l 817 79 l 823 56 l 876 56 l 824 207 l 769 207 l 717 56 l 767 56 l 774 79 m 994 207 l 884 207 l 884 56 l 933 56 l 933 103 l 984 103 l 984 143 l 933 143 l 933 165 l 994 165 l 994 207 m 1319 56 l 1319 207 l 1270 207 l 1270 126 l 1224 207 l 1174 207 l 1174 56 l 1223 56 l 1222 129 l 1269 56 l 1319 56 m 1327 164 l 1363 164 l 1363 56 l 1412 56 l 1412 164 l 1447 164 l 1447 207 l 1327 207 l 1327 164 m 1977 207 l 1928 207 l 1928 56 l 1977 56 l 1977 115 l 1997 78 l 2031 78 l 2051 115 l 2051 56 l 2098 56 l 2098 207 l 2049 207 l 2013 138 l 1977 207 m 1115 132 q 1105 106 1115 116 q 1081 96 1096 96 q 1057 106 1067 96 q 1048 132 1048 116 q 1057 157 1048 147 q 1081 167 1067 167 q 1105 157 1096 167 q 1115 132 1115 147 m 1870 132 q 1860 106 1870 117 q 1837 96 1851 96 q 1812 106 1822 96 q 1802 132 1802 117 q 1812 157 1802 147 q 1837 167 1822 167 q 1860 157 1851 167 q 1870 132 1870 147 m 797 156 l 806 119 l 785 119 l 795 156 l 797 156 m 1574 75 q 1581 58 1574 65 q 1599 51 1588 51 q 1616 58 1610 51 q 1623 75 1623 65 q 1616 91 1623 85 q 1599 97 1610 97 q 1581 91 1588 97 q 1574 75 1574 85 z "},"3":{"ha":1751,"x_min":351,"x_max":2099,"o":"m 2099 642 l 2099 374 l 358 374 l 358 642 l 1033 642 q 1063 734 1036 692 q 1134 801 1090 776 q 1228 825 1177 825 q 1323 801 1280 825 q 1394 734 1367 776 q 1424 642 1421 692 l 2099 642 m 1347 760 q 1228 806 1294 806 q 1165 793 1195 806 q 1110 760 1134 781 l 1347 760 m 1365 515 q 1405 628 1405 565 q 1360 746 1405 694 l 1130 515 l 1365 515 m 1091 740 q 1051 628 1051 691 q 1063 564 1051 594 q 1097 510 1075 533 l 1328 740 l 1091 740 m 1530 421 q 1595 446 1569 421 q 1622 510 1622 472 q 1595 572 1622 547 q 1530 597 1569 597 q 1465 572 1491 597 q 1440 510 1440 547 q 1465 446 1440 472 q 1530 421 1491 421 m 484 544 l 523 544 l 523 593 l 390 593 l 390 544 l 430 544 l 430 425 l 484 425 l 484 544 m 619 425 l 676 425 l 647 489 q 666 533 666 506 q 647 576 666 559 q 602 593 628 593 l 533 593 l 533 425 l 587 425 l 587 474 l 598 474 l 619 425 m 684 425 l 737 425 l 737 593 l 684 593 l 684 425 m 858 451 l 865 425 l 923 425 l 866 593 l 803 593 l 747 425 l 803 425 l 810 451 l 858 451 m 933 425 l 1047 425 l 1047 471 l 987 471 l 987 593 l 933 593 l 933 425 m 1738 425 l 1794 425 l 1794 593 l 1740 593 l 1740 504 l 1688 593 l 1633 593 l 1633 425 l 1687 425 l 1685 507 l 1738 425 m 1810 425 l 1924 425 l 1924 471 l 1865 471 l 1865 593 l 1810 593 l 1810 425 m 2009 425 l 2009 492 l 2066 593 l 2003 593 l 1981 543 l 1960 593 l 1897 593 l 1955 492 l 1955 425 l 2009 425 m 1530 549 q 1557 538 1547 549 q 1567 510 1567 526 q 1557 481 1567 492 q 1530 469 1547 469 q 1503 481 1514 469 q 1492 510 1492 492 q 1503 538 1492 526 q 1530 549 1514 549 m 601 547 q 608 543 605 547 q 612 533 612 539 q 608 523 612 527 q 601 518 605 518 l 587 518 l 587 547 l 601 547 m 822 496 l 833 536 l 834 536 l 845 496 l 822 496 m 1110 496 q 1228 451 1162 451 q 1292 463 1261 451 q 1347 496 1322 475 l 1110 496 m 1028 244 q 1065 235 1046 235 q 1090 243 1080 235 q 1101 267 1101 251 q 1092 284 1101 277 q 1069 297 1084 291 q 1051 305 1056 301 q 1047 315 1047 308 q 1052 326 1047 322 q 1066 331 1058 331 q 1081 328 1073 331 q 1094 321 1088 325 l 1094 339 q 1066 346 1080 346 q 1040 338 1050 346 q 1030 315 1030 330 q 1037 296 1030 302 q 1060 283 1044 290 q 1078 276 1073 280 q 1084 267 1084 273 q 1078 254 1084 258 q 1065 250 1073 250 q 1028 263 1046 250 l 1028 244 m 1152 290 q 1168 251 1152 267 q 1208 235 1184 235 q 1247 251 1231 235 q 1263 290 1263 267 q 1247 330 1263 313 q 1208 346 1231 346 q 1168 330 1184 346 q 1152 290 1152 313 m 1373 233 l 1373 343 l 1356 343 l 1356 268 l 1288 344 l 1280 344 l 1280 236 l 1297 236 l 1297 308 l 1365 233 l 1373 233 m 426 343 l 356 343 l 356 236 l 373 236 l 373 276 l 419 276 l 419 292 l 373 292 l 373 328 l 426 328 l 426 343 m 440 278 q 452 247 440 259 q 483 235 464 235 q 515 247 502 235 q 527 278 527 259 l 527 343 l 510 343 l 510 278 q 502 258 510 267 q 483 250 494 250 q 464 258 471 250 q 456 278 456 265 l 456 343 l 440 343 l 440 278 m 565 343 l 548 343 l 548 236 l 613 236 l 613 251 l 565 251 l 565 343 m 645 343 l 628 343 l 628 236 l 695 236 l 695 251 l 645 251 l 645 343 m 795 236 l 840 343 l 820 343 l 790 264 l 759 343 l 740 343 l 784 236 l 795 236 m 923 343 l 853 343 l 853 236 l 923 236 l 923 251 l 870 251 l 870 283 l 916 283 l 916 297 l 870 297 l 870 328 l 923 328 l 923 343 m 1001 236 l 1020 236 l 999 279 q 1011 291 1007 283 q 1016 308 1016 299 q 1006 333 1016 323 q 981 343 996 343 l 941 343 l 941 236 l 958 236 l 958 275 l 983 275 l 1001 236 m 1134 343 l 1117 343 l 1117 236 l 1134 236 l 1134 343 m 1245 290 q 1234 261 1245 273 q 1208 250 1224 250 q 1180 261 1191 250 q 1169 290 1169 273 q 1180 318 1169 307 q 1208 329 1191 329 q 1234 318 1224 329 q 1245 290 1245 307 m 999 308 q 994 294 999 300 q 981 289 989 289 l 958 289 l 958 328 l 981 328 q 994 322 989 328 q 999 308 999 317 m 2049 254 l 2084 288 l 2049 321 l 2038 311 l 2056 296 l 1420 296 l 1420 279 l 2056 279 l 2038 264 l 2049 254 m 999 132 q 1023 75 999 98 q 1081 51 1047 51 q 1140 74 1117 51 q 1163 132 1163 97 q 1140 188 1163 165 q 1081 211 1117 211 q 1023 188 1047 211 q 999 132 999 165 m 1453 65 q 1506 51 1475 51 q 1550 65 1533 51 q 1567 103 1567 78 q 1517 151 1567 140 q 1508 154 1514 153 q 1500 157 1502 156 q 1498 163 1498 159 q 1513 168 1498 168 q 1536 164 1523 168 q 1558 153 1549 160 l 1558 200 q 1513 211 1533 211 q 1468 199 1485 211 q 1451 164 1451 186 q 1461 134 1451 144 q 1495 115 1472 123 q 1506 112 1500 114 q 1516 108 1513 110 q 1519 103 1519 106 q 1506 94 1519 94 q 1453 117 1488 94 l 1453 65 m 1631 132 q 1655 75 1631 98 q 1712 51 1678 51 q 1748 61 1728 51 l 1749 110 q 1715 96 1735 96 q 1690 106 1700 96 q 1680 132 1680 117 q 1690 157 1680 147 q 1715 167 1700 167 q 1745 157 1729 167 l 1745 203 q 1713 211 1731 211 q 1655 188 1678 211 q 1631 132 1631 165 m 1753 132 q 1777 75 1753 98 q 1837 51 1801 51 q 1895 75 1872 51 q 1919 132 1919 98 q 1895 188 1919 165 q 1837 211 1872 211 q 1777 188 1801 211 q 1753 132 1753 165 m 358 164 l 408 164 l 351 56 l 483 56 l 483 99 l 430 99 l 487 207 l 358 207 l 358 164 m 606 207 l 497 207 l 497 56 l 608 56 l 608 97 l 545 97 l 545 111 l 598 111 l 598 153 l 545 153 l 545 165 l 606 165 l 606 207 m 613 164 l 649 164 l 649 56 l 698 56 l 698 164 l 734 164 l 734 207 l 613 207 l 613 164 m 774 79 l 817 79 l 823 56 l 876 56 l 824 207 l 769 207 l 717 56 l 767 56 l 774 79 m 994 207 l 884 207 l 884 56 l 933 56 l 933 103 l 984 103 l 984 143 l 933 143 l 933 165 l 994 165 l 994 207 m 1319 56 l 1319 207 l 1270 207 l 1270 126 l 1224 207 l 1174 207 l 1174 56 l 1223 56 l 1222 129 l 1269 56 l 1319 56 m 1327 164 l 1363 164 l 1363 56 l 1412 56 l 1412 164 l 1447 164 l 1447 207 l 1327 207 l 1327 164 m 1977 207 l 1928 207 l 1928 56 l 1977 56 l 1977 115 l 1997 78 l 2031 78 l 2051 115 l 2051 56 l 2098 56 l 2098 207 l 2049 207 l 2013 138 l 1977 207 m 1115 132 q 1105 106 1115 116 q 1081 96 1096 96 q 1057 106 1067 96 q 1048 132 1048 116 q 1057 157 1048 147 q 1081 167 1067 167 q 1105 157 1096 167 q 1115 132 1115 147 m 1870 132 q 1860 106 1870 117 q 1837 96 1851 96 q 1812 106 1822 96 q 1802 132 1802 117 q 1812 157 1802 147 q 1837 167 1822 167 q 1860 157 1851 167 q 1870 132 1870 147 m 797 156 l 806 119 l 785 119 l 795 156 l 797 156 m 1574 75 q 1581 58 1574 65 q 1599 51 1588 51 q 1616 58 1610 51 q 1623 75 1623 65 q 1616 91 1623 85 q 1599 97 1610 97 q 1581 91 1588 97 q 1574 75 1574 85 z "},"4":{"ha":1748,"x_min":351,"x_max":2099,"o":"m 2099 642 l 2099 374 l 358 374 l 358 642 l 1033 642 q 1063 734 1036 692 q 1134 801 1090 776 q 1228 825 1177 825 q 1323 801 1280 825 q 1394 734 1367 776 q 1424 642 1421 692 l 2099 642 m 1347 760 q 1228 806 1294 806 q 1165 793 1195 806 q 1110 760 1134 781 l 1347 760 m 1365 515 q 1405 628 1405 565 q 1360 746 1405 694 l 1130 515 l 1365 515 m 1091 740 q 1051 628 1051 691 q 1063 564 1051 594 q 1097 510 1075 533 l 1328 740 l 1091 740 m 1530 421 q 1595 446 1569 421 q 1622 510 1622 472 q 1595 572 1622 547 q 1530 597 1569 597 q 1465 572 1491 597 q 1440 510 1440 547 q 1465 446 1440 472 q 1530 421 1491 421 m 484 544 l 523 544 l 523 593 l 390 593 l 390 544 l 430 544 l 430 425 l 484 425 l 484 544 m 619 425 l 676 425 l 647 489 q 666 533 666 506 q 647 576 666 559 q 602 593 628 593 l 533 593 l 533 425 l 587 425 l 587 474 l 598 474 l 619 425 m 684 425 l 737 425 l 737 593 l 684 593 l 684 425 m 858 451 l 865 425 l 923 425 l 866 593 l 803 593 l 747 425 l 803 425 l 810 451 l 858 451 m 933 425 l 1047 425 l 1047 471 l 987 471 l 987 593 l 933 593 l 933 425 m 1738 425 l 1794 425 l 1794 593 l 1740 593 l 1740 504 l 1688 593 l 1633 593 l 1633 425 l 1687 425 l 1685 507 l 1738 425 m 1810 425 l 1924 425 l 1924 471 l 1865 471 l 1865 593 l 1810 593 l 1810 425 m 2009 425 l 2009 492 l 2066 593 l 2003 593 l 1981 543 l 1960 593 l 1897 593 l 1955 492 l 1955 425 l 2009 425 m 1530 549 q 1557 538 1547 549 q 1567 510 1567 526 q 1557 481 1567 492 q 1530 469 1547 469 q 1503 481 1514 469 q 1492 510 1492 492 q 1503 538 1492 526 q 1530 549 1514 549 m 601 547 q 608 543 605 547 q 612 533 612 539 q 608 523 612 527 q 601 518 605 518 l 587 518 l 587 547 l 601 547 m 822 496 l 833 536 l 834 536 l 845 496 l 822 496 m 1110 496 q 1228 451 1162 451 q 1292 463 1261 451 q 1347 496 1322 475 l 1110 496 m 1028 244 q 1065 235 1046 235 q 1090 243 1080 235 q 1101 267 1101 251 q 1092 284 1101 277 q 1069 297 1084 291 q 1051 305 1056 301 q 1047 315 1047 308 q 1052 326 1047 322 q 1066 331 1058 331 q 1081 328 1073 331 q 1094 321 1088 325 l 1094 339 q 1066 346 1080 346 q 1040 338 1050 346 q 1030 315 1030 330 q 1037 296 1030 302 q 1060 283 1044 290 q 1078 276 1073 280 q 1084 267 1084 273 q 1078 254 1084 258 q 1065 250 1073 250 q 1028 263 1046 250 l 1028 244 m 1152 290 q 1168 251 1152 267 q 1208 235 1184 235 q 1247 251 1231 235 q 1263 290 1263 267 q 1247 330 1263 313 q 1208 346 1231 346 q 1168 330 1184 346 q 1152 290 1152 313 m 1373 233 l 1373 343 l 1356 343 l 1356 268 l 1288 344 l 1280 344 l 1280 236 l 1297 236 l 1297 308 l 1365 233 l 1373 233 m 426 343 l 356 343 l 356 236 l 373 236 l 373 276 l 419 276 l 419 292 l 373 292 l 373 328 l 426 328 l 426 343 m 440 278 q 452 247 440 259 q 483 235 464 235 q 515 247 502 235 q 527 278 527 259 l 527 343 l 510 343 l 510 278 q 502 258 510 267 q 483 250 494 250 q 464 258 471 250 q 456 278 456 265 l 456 343 l 440 343 l 440 278 m 565 343 l 548 343 l 548 236 l 613 236 l 613 251 l 565 251 l 565 343 m 645 343 l 628 343 l 628 236 l 695 236 l 695 251 l 645 251 l 645 343 m 795 236 l 840 343 l 820 343 l 790 264 l 759 343 l 740 343 l 784 236 l 795 236 m 923 343 l 853 343 l 853 236 l 923 236 l 923 251 l 870 251 l 870 283 l 916 283 l 916 297 l 870 297 l 870 328 l 923 328 l 923 343 m 1001 236 l 1020 236 l 999 279 q 1011 291 1007 283 q 1016 308 1016 299 q 1006 333 1016 323 q 981 343 996 343 l 941 343 l 941 236 l 958 236 l 958 275 l 983 275 l 1001 236 m 1134 343 l 1117 343 l 1117 236 l 1134 236 l 1134 343 m 1245 290 q 1234 261 1245 273 q 1208 250 1224 250 q 1180 261 1191 250 q 1169 290 1169 273 q 1180 318 1169 307 q 1208 329 1191 329 q 1234 318 1224 329 q 1245 290 1245 307 m 999 308 q 994 294 999 300 q 981 289 989 289 l 958 289 l 958 328 l 981 328 q 994 322 989 328 q 999 308 999 317 m 2049 254 l 2084 288 l 2049 321 l 2038 311 l 2056 296 l 1420 296 l 1420 279 l 2056 279 l 2038 264 l 2049 254 m 999 132 q 1023 75 999 98 q 1081 51 1047 51 q 1140 74 1117 51 q 1163 132 1163 97 q 1140 188 1163 165 q 1081 211 1117 211 q 1023 188 1047 211 q 999 132 999 165 m 1453 65 q 1506 51 1475 51 q 1550 65 1533 51 q 1567 103 1567 78 q 1517 151 1567 140 q 1508 154 1514 153 q 1500 157 1502 156 q 1498 163 1498 159 q 1513 168 1498 168 q 1536 164 1523 168 q 1558 153 1549 160 l 1558 200 q 1513 211 1533 211 q 1468 199 1485 211 q 1451 164 1451 186 q 1461 134 1451 144 q 1495 115 1472 123 q 1506 112 1500 114 q 1516 108 1513 110 q 1519 103 1519 106 q 1506 94 1519 94 q 1453 117 1488 94 l 1453 65 m 1631 132 q 1655 75 1631 98 q 1712 51 1678 51 q 1748 61 1728 51 l 1749 110 q 1715 96 1735 96 q 1690 106 1700 96 q 1680 132 1680 117 q 1690 157 1680 147 q 1715 167 1700 167 q 1745 157 1729 167 l 1745 203 q 1713 211 1731 211 q 1655 188 1678 211 q 1631 132 1631 165 m 1753 132 q 1777 75 1753 98 q 1837 51 1801 51 q 1895 75 1872 51 q 1919 132 1919 98 q 1895 188 1919 165 q 1837 211 1872 211 q 1777 188 1801 211 q 1753 132 1753 165 m 358 164 l 408 164 l 351 56 l 483 56 l 483 99 l 430 99 l 487 207 l 358 207 l 358 164 m 606 207 l 497 207 l 497 56 l 608 56 l 608 97 l 545 97 l 545 111 l 598 111 l 598 153 l 545 153 l 545 165 l 606 165 l 606 207 m 613 164 l 649 164 l 649 56 l 698 56 l 698 164 l 734 164 l 734 207 l 613 207 l 613 164 m 774 79 l 817 79 l 823 56 l 876 56 l 824 207 l 769 207 l 717 56 l 767 56 l 774 79 m 994 207 l 884 207 l 884 56 l 933 56 l 933 103 l 984 103 l 984 143 l 933 143 l 933 165 l 994 165 l 994 207 m 1319 56 l 1319 207 l 1270 207 l 1270 126 l 1224 207 l 1174 207 l 1174 56 l 1223 56 l 1222 129 l 1269 56 l 1319 56 m 1327 164 l 1363 164 l 1363 56 l 1412 56 l 1412 164 l 1447 164 l 1447 207 l 1327 207 l 1327 164 m 1977 207 l 1928 207 l 1928 56 l 1977 56 l 1977 115 l 1997 78 l 2031 78 l 2051 115 l 2051 56 l 2098 56 l 2098 207 l 2049 207 l 2013 138 l 1977 207 m 1115 132 q 1105 106 1115 116 q 1081 96 1096 96 q 1057 106 1067 96 q 1048 132 1048 116 q 1057 157 1048 147 q 1081 167 1067 167 q 1105 157 1096 167 q 1115 132 1115 147 m 1870 132 q 1860 106 1870 117 q 1837 96 1851 96 q 1812 106 1822 96 q 1802 132 1802 117 q 1812 157 1802 147 q 1837 167 1822 167 q 1860 157 1851 167 q 1870 132 1870 147 m 797 156 l 806 119 l 785 119 l 795 156 l 797 156 m 1574 75 q 1581 58 1574 65 q 1599 51 1588 51 q 1616 58 1610 51 q 1623 75 1623 65 q 1616 91 1623 85 q 1599 97 1610 97 q 1581 91 1588 97 q 1574 75 1574 85 z "},"5":{"ha":1759,"x_min":351,"x_max":2099,"o":"m 2099 642 l 2099 374 l 358 374 l 358 642 l 1033 642 q 1063 734 1036 692 q 1134 801 1090 776 q 1228 825 1177 825 q 1323 801 1280 825 q 1394 734 1367 776 q 1424 642 1421 692 l 2099 642 m 1347 760 q 1228 806 1294 806 q 1165 793 1195 806 q 1110 760 1134 781 l 1347 760 m 1365 515 q 1405 628 1405 565 q 1360 746 1405 694 l 1130 515 l 1365 515 m 1091 740 q 1051 628 1051 691 q 1063 564 1051 594 q 1097 510 1075 533 l 1328 740 l 1091 740 m 1530 421 q 1595 446 1569 421 q 1622 510 1622 472 q 1595 572 1622 547 q 1530 597 1569 597 q 1465 572 1491 597 q 1440 510 1440 547 q 1465 446 1440 472 q 1530 421 1491 421 m 484 544 l 523 544 l 523 593 l 390 593 l 390 544 l 430 544 l 430 425 l 484 425 l 484 544 m 619 425 l 676 425 l 647 489 q 666 533 666 506 q 647 576 666 559 q 602 593 628 593 l 533 593 l 533 425 l 587 425 l 587 474 l 598 474 l 619 425 m 684 425 l 737 425 l 737 593 l 684 593 l 684 425 m 858 451 l 865 425 l 923 425 l 866 593 l 803 593 l 747 425 l 803 425 l 810 451 l 858 451 m 933 425 l 1047 425 l 1047 471 l 987 471 l 987 593 l 933 593 l 933 425 m 1738 425 l 1794 425 l 1794 593 l 1740 593 l 1740 504 l 1688 593 l 1633 593 l 1633 425 l 1687 425 l 1685 507 l 1738 425 m 1810 425 l 1924 425 l 1924 471 l 1865 471 l 1865 593 l 1810 593 l 1810 425 m 2009 425 l 2009 492 l 2066 593 l 2003 593 l 1981 543 l 1960 593 l 1897 593 l 1955 492 l 1955 425 l 2009 425 m 1530 549 q 1557 538 1547 549 q 1567 510 1567 526 q 1557 481 1567 492 q 1530 469 1547 469 q 1503 481 1514 469 q 1492 510 1492 492 q 1503 538 1492 526 q 1530 549 1514 549 m 601 547 q 608 543 605 547 q 612 533 612 539 q 608 523 612 527 q 601 518 605 518 l 587 518 l 587 547 l 601 547 m 822 496 l 833 536 l 834 536 l 845 496 l 822 496 m 1110 496 q 1228 451 1162 451 q 1292 463 1261 451 q 1347 496 1322 475 l 1110 496 m 1028 244 q 1065 235 1046 235 q 1090 243 1080 235 q 1101 267 1101 251 q 1092 284 1101 277 q 1069 297 1084 291 q 1051 305 1056 301 q 1047 315 1047 308 q 1052 326 1047 322 q 1066 331 1058 331 q 1081 328 1073 331 q 1094 321 1088 325 l 1094 339 q 1066 346 1080 346 q 1040 338 1050 346 q 1030 315 1030 330 q 1037 296 1030 302 q 1060 283 1044 290 q 1078 276 1073 280 q 1084 267 1084 273 q 1078 254 1084 258 q 1065 250 1073 250 q 1028 263 1046 250 l 1028 244 m 1152 290 q 1168 251 1152 267 q 1208 235 1184 235 q 1247 251 1231 235 q 1263 290 1263 267 q 1247 330 1263 313 q 1208 346 1231 346 q 1168 330 1184 346 q 1152 290 1152 313 m 1373 233 l 1373 343 l 1356 343 l 1356 268 l 1288 344 l 1280 344 l 1280 236 l 1297 236 l 1297 308 l 1365 233 l 1373 233 m 426 343 l 356 343 l 356 236 l 373 236 l 373 276 l 419 276 l 419 292 l 373 292 l 373 328 l 426 328 l 426 343 m 440 278 q 452 247 440 259 q 483 235 464 235 q 515 247 502 235 q 527 278 527 259 l 527 343 l 510 343 l 510 278 q 502 258 510 267 q 483 250 494 250 q 464 258 471 250 q 456 278 456 265 l 456 343 l 440 343 l 440 278 m 565 343 l 548 343 l 548 236 l 613 236 l 613 251 l 565 251 l 565 343 m 645 343 l 628 343 l 628 236 l 695 236 l 695 251 l 645 251 l 645 343 m 795 236 l 840 343 l 820 343 l 790 264 l 759 343 l 740 343 l 784 236 l 795 236 m 923 343 l 853 343 l 853 236 l 923 236 l 923 251 l 870 251 l 870 283 l 916 283 l 916 297 l 870 297 l 870 328 l 923 328 l 923 343 m 1001 236 l 1020 236 l 999 279 q 1011 291 1007 283 q 1016 308 1016 299 q 1006 333 1016 323 q 981 343 996 343 l 941 343 l 941 236 l 958 236 l 958 275 l 983 275 l 1001 236 m 1134 343 l 1117 343 l 1117 236 l 1134 236 l 1134 343 m 1245 290 q 1234 261 1245 273 q 1208 250 1224 250 q 1180 261 1191 250 q 1169 290 1169 273 q 1180 318 1169 307 q 1208 329 1191 329 q 1234 318 1224 329 q 1245 290 1245 307 m 999 308 q 994 294 999 300 q 981 289 989 289 l 958 289 l 958 328 l 981 328 q 994 322 989 328 q 999 308 999 317 m 2049 254 l 2084 288 l 2049 321 l 2038 311 l 2056 296 l 1420 296 l 1420 279 l 2056 279 l 2038 264 l 2049 254 m 999 132 q 1023 75 999 98 q 1081 51 1047 51 q 1140 74 1117 51 q 1163 132 1163 97 q 1140 188 1163 165 q 1081 211 1117 211 q 1023 188 1047 211 q 999 132 999 165 m 1453 65 q 1506 51 1475 51 q 1550 65 1533 51 q 1567 103 1567 78 q 1517 151 1567 140 q 1508 154 1514 153 q 1500 157 1502 156 q 1498 163 1498 159 q 1513 168 1498 168 q 1536 164 1523 168 q 1558 153 1549 160 l 1558 200 q 1513 211 1533 211 q 1468 199 1485 211 q 1451 164 1451 186 q 1461 134 1451 144 q 1495 115 1472 123 q 1506 112 1500 114 q 1516 108 1513 110 q 1519 103 1519 106 q 1506 94 1519 94 q 1453 117 1488 94 l 1453 65 m 1631 132 q 1655 75 1631 98 q 1712 51 1678 51 q 1748 61 1728 51 l 1749 110 q 1715 96 1735 96 q 1690 106 1700 96 q 1680 132 1680 117 q 1690 157 1680 147 q 1715 167 1700 167 q 1745 157 1729 167 l 1745 203 q 1713 211 1731 211 q 1655 188 1678 211 q 1631 132 1631 165 m 1753 132 q 1777 75 1753 98 q 1837 51 1801 51 q 1895 75 1872 51 q 1919 132 1919 98 q 1895 188 1919 165 q 1837 211 1872 211 q 1777 188 1801 211 q 1753 132 1753 165 m 358 164 l 408 164 l 351 56 l 483 56 l 483 99 l 430 99 l 487 207 l 358 207 l 358 164 m 606 207 l 497 207 l 497 56 l 608 56 l 608 97 l 545 97 l 545 111 l 598 111 l 598 153 l 545 153 l 545 165 l 606 165 l 606 207 m 613 164 l 649 164 l 649 56 l 698 56 l 698 164 l 734 164 l 734 207 l 613 207 l 613 164 m 774 79 l 817 79 l 823 56 l 876 56 l 824 207 l 769 207 l 717 56 l 767 56 l 774 79 m 994 207 l 884 207 l 884 56 l 933 56 l 933 103 l 984 103 l 984 143 l 933 143 l 933 165 l 994 165 l 994 207 m 1319 56 l 1319 207 l 1270 207 l 1270 126 l 1224 207 l 1174 207 l 1174 56 l 1223 56 l 1222 129 l 1269 56 l 1319 56 m 1327 164 l 1363 164 l 1363 56 l 1412 56 l 1412 164 l 1447 164 l 1447 207 l 1327 207 l 1327 164 m 1977 207 l 1928 207 l 1928 56 l 1977 56 l 1977 115 l 1997 78 l 2031 78 l 2051 115 l 2051 56 l 2098 56 l 2098 207 l 2049 207 l 2013 138 l 1977 207 m 1115 132 q 1105 106 1115 116 q 1081 96 1096 96 q 1057 106 1067 96 q 1048 132 1048 116 q 1057 157 1048 147 q 1081 167 1067 167 q 1105 157 1096 167 q 1115 132 1115 147 m 1870 132 q 1860 106 1870 117 q 1837 96 1851 96 q 1812 106 1822 96 q 1802 132 1802 117 q 1812 157 1802 147 q 1837 167 1822 167 q 1860 157 1851 167 q 1870 132 1870 147 m 797 156 l 806 119 l 785 119 l 795 156 l 797 156 m 1574 75 q 1581 58 1574 65 q 1599 51 1588 51 q 1616 58 1610 51 q 1623 75 1623 65 q 1616 91 1623 85 q 1599 97 1610 97 q 1581 91 1588 97 q 1574 75 1574 85 z "},"6":{"ha":1823,"x_min":351,"x_max":2099,"o":"m 2099 642 l 2099 374 l 358 374 l 358 642 l 1033 642 q 1063 734 1036 692 q 1134 801 1090 776 q 1228 825 1177 825 q 1323 801 1280 825 q 1394 734 1367 776 q 1424 642 1421 692 l 2099 642 m 1347 760 q 1228 806 1294 806 q 1165 793 1195 806 q 1110 760 1134 781 l 1347 760 m 1365 515 q 1405 628 1405 565 q 1360 746 1405 694 l 1130 515 l 1365 515 m 1091 740 q 1051 628 1051 691 q 1063 564 1051 594 q 1097 510 1075 533 l 1328 740 l 1091 740 m 1530 421 q 1595 446 1569 421 q 1622 510 1622 472 q 1595 572 1622 547 q 1530 597 1569 597 q 1465 572 1491 597 q 1440 510 1440 547 q 1465 446 1440 472 q 1530 421 1491 421 m 484 544 l 523 544 l 523 593 l 390 593 l 390 544 l 430 544 l 430 425 l 484 425 l 484 544 m 619 425 l 676 425 l 647 489 q 666 533 666 506 q 647 576 666 559 q 602 593 628 593 l 533 593 l 533 425 l 587 425 l 587 474 l 598 474 l 619 425 m 684 425 l 737 425 l 737 593 l 684 593 l 684 425 m 858 451 l 865 425 l 923 425 l 866 593 l 803 593 l 747 425 l 803 425 l 810 451 l 858 451 m 933 425 l 1047 425 l 1047 471 l 987 471 l 987 593 l 933 593 l 933 425 m 1738 425 l 1794 425 l 1794 593 l 1740 593 l 1740 504 l 1688 593 l 1633 593 l 1633 425 l 1687 425 l 1685 507 l 1738 425 m 1810 425 l 1924 425 l 1924 471 l 1865 471 l 1865 593 l 1810 593 l 1810 425 m 2009 425 l 2009 492 l 2066 593 l 2003 593 l 1981 543 l 1960 593 l 1897 593 l 1955 492 l 1955 425 l 2009 425 m 1530 549 q 1557 538 1547 549 q 1567 510 1567 526 q 1557 481 1567 492 q 1530 469 1547 469 q 1503 481 1514 469 q 1492 510 1492 492 q 1503 538 1492 526 q 1530 549 1514 549 m 601 547 q 608 543 605 547 q 612 533 612 539 q 608 523 612 527 q 601 518 605 518 l 587 518 l 587 547 l 601 547 m 822 496 l 833 536 l 834 536 l 845 496 l 822 496 m 1110 496 q 1228 451 1162 451 q 1292 463 1261 451 q 1347 496 1322 475 l 1110 496 m 1028 244 q 1065 235 1046 235 q 1090 243 1080 235 q 1101 267 1101 251 q 1092 284 1101 277 q 1069 297 1084 291 q 1051 305 1056 301 q 1047 315 1047 308 q 1052 326 1047 322 q 1066 331 1058 331 q 1081 328 1073 331 q 1094 321 1088 325 l 1094 339 q 1066 346 1080 346 q 1040 338 1050 346 q 1030 315 1030 330 q 1037 296 1030 302 q 1060 283 1044 290 q 1078 276 1073 280 q 1084 267 1084 273 q 1078 254 1084 258 q 1065 250 1073 250 q 1028 263 1046 250 l 1028 244 m 1152 290 q 1168 251 1152 267 q 1208 235 1184 235 q 1247 251 1231 235 q 1263 290 1263 267 q 1247 330 1263 313 q 1208 346 1231 346 q 1168 330 1184 346 q 1152 290 1152 313 m 1373 233 l 1373 343 l 1356 343 l 1356 268 l 1288 344 l 1280 344 l 1280 236 l 1297 236 l 1297 308 l 1365 233 l 1373 233 m 426 343 l 356 343 l 356 236 l 373 236 l 373 276 l 419 276 l 419 292 l 373 292 l 373 328 l 426 328 l 426 343 m 440 278 q 452 247 440 259 q 483 235 464 235 q 515 247 502 235 q 527 278 527 259 l 527 343 l 510 343 l 510 278 q 502 258 510 267 q 483 250 494 250 q 464 258 471 250 q 456 278 456 265 l 456 343 l 440 343 l 440 278 m 565 343 l 548 343 l 548 236 l 613 236 l 613 251 l 565 251 l 565 343 m 645 343 l 628 343 l 628 236 l 695 236 l 695 251 l 645 251 l 645 343 m 795 236 l 840 343 l 820 343 l 790 264 l 759 343 l 740 343 l 784 236 l 795 236 m 923 343 l 853 343 l 853 236 l 923 236 l 923 251 l 870 251 l 870 283 l 916 283 l 916 297 l 870 297 l 870 328 l 923 328 l 923 343 m 1001 236 l 1020 236 l 999 279 q 1011 291 1007 283 q 1016 308 1016 299 q 1006 333 1016 323 q 981 343 996 343 l 941 343 l 941 236 l 958 236 l 958 275 l 983 275 l 1001 236 m 1134 343 l 1117 343 l 1117 236 l 1134 236 l 1134 343 m 1245 290 q 1234 261 1245 273 q 1208 250 1224 250 q 1180 261 1191 250 q 1169 290 1169 273 q 1180 318 1169 307 q 1208 329 1191 329 q 1234 318 1224 329 q 1245 290 1245 307 m 999 308 q 994 294 999 300 q 981 289 989 289 l 958 289 l 958 328 l 981 328 q 994 322 989 328 q 999 308 999 317 m 2049 254 l 2084 288 l 2049 321 l 2038 311 l 2056 296 l 1420 296 l 1420 279 l 2056 279 l 2038 264 l 2049 254 m 999 132 q 1023 75 999 98 q 1081 51 1047 51 q 1140 74 1117 51 q 1163 132 1163 97 q 1140 188 1163 165 q 1081 211 1117 211 q 1023 188 1047 211 q 999 132 999 165 m 1453 65 q 1506 51 1475 51 q 1550 65 1533 51 q 1567 103 1567 78 q 1517 151 1567 140 q 1508 154 1514 153 q 1500 157 1502 156 q 1498 163 1498 159 q 1513 168 1498 168 q 1536 164 1523 168 q 1558 153 1549 160 l 1558 200 q 1513 211 1533 211 q 1468 199 1485 211 q 1451 164 1451 186 q 1461 134 1451 144 q 1495 115 1472 123 q 1506 112 1500 114 q 1516 108 1513 110 q 1519 103 1519 106 q 1506 94 1519 94 q 1453 117 1488 94 l 1453 65 m 1631 132 q 1655 75 1631 98 q 1712 51 1678 51 q 1748 61 1728 51 l 1749 110 q 1715 96 1735 96 q 1690 106 1700 96 q 1680 132 1680 117 q 1690 157 1680 147 q 1715 167 1700 167 q 1745 157 1729 167 l 1745 203 q 1713 211 1731 211 q 1655 188 1678 211 q 1631 132 1631 165 m 1753 132 q 1777 75 1753 98 q 1837 51 1801 51 q 1895 75 1872 51 q 1919 132 1919 98 q 1895 188 1919 165 q 1837 211 1872 211 q 1777 188 1801 211 q 1753 132 1753 165 m 358 164 l 408 164 l 351 56 l 483 56 l 483 99 l 430 99 l 487 207 l 358 207 l 358 164 m 606 207 l 497 207 l 497 56 l 608 56 l 608 97 l 545 97 l 545 111 l 598 111 l 598 153 l 545 153 l 545 165 l 606 165 l 606 207 m 613 164 l 649 164 l 649 56 l 698 56 l 698 164 l 734 164 l 734 207 l 613 207 l 613 164 m 774 79 l 817 79 l 823 56 l 876 56 l 824 207 l 769 207 l 717 56 l 767 56 l 774 79 m 994 207 l 884 207 l 884 56 l 933 56 l 933 103 l 984 103 l 984 143 l 933 143 l 933 165 l 994 165 l 994 207 m 1319 56 l 1319 207 l 1270 207 l 1270 126 l 1224 207 l 1174 207 l 1174 56 l 1223 56 l 1222 129 l 1269 56 l 1319 56 m 1327 164 l 1363 164 l 1363 56 l 1412 56 l 1412 164 l 1447 164 l 1447 207 l 1327 207 l 1327 164 m 1977 207 l 1928 207 l 1928 56 l 1977 56 l 1977 115 l 1997 78 l 2031 78 l 2051 115 l 2051 56 l 2098 56 l 2098 207 l 2049 207 l 2013 138 l 1977 207 m 1115 132 q 1105 106 1115 116 q 1081 96 1096 96 q 1057 106 1067 96 q 1048 132 1048 116 q 1057 157 1048 147 q 1081 167 1067 167 q 1105 157 1096 167 q 1115 132 1115 147 m 1870 132 q 1860 106 1870 117 q 1837 96 1851 96 q 1812 106 1822 96 q 1802 132 1802 117 q 1812 157 1802 147 q 1837 167 1822 167 q 1860 157 1851 167 q 1870 132 1870 147 m 797 156 l 806 119 l 785 119 l 795 156 l 797 156 m 1574 75 q 1581 58 1574 65 q 1599 51 1588 51 q 1616 58 1610 51 q 1623 75 1623 65 q 1616 91 1623 85 q 1599 97 1610 97 q 1581 91 1588 97 q 1574 75 1574 85 z "},"7":{"ha":1758,"x_min":351,"x_max":2099,"o":"m 2099 642 l 2099 374 l 358 374 l 358 642 l 1033 642 q 1063 734 1036 692 q 1134 801 1090 776 q 1228 825 1177 825 q 1323 801 1280 825 q 1394 734 1367 776 q 1424 642 1421 692 l 2099 642 m 1347 760 q 1228 806 1294 806 q 1165 793 1195 806 q 1110 760 1134 781 l 1347 760 m 1365 515 q 1405 628 1405 565 q 1360 746 1405 694 l 1130 515 l 1365 515 m 1091 740 q 1051 628 1051 691 q 1063 564 1051 594 q 1097 510 1075 533 l 1328 740 l 1091 740 m 1530 421 q 1595 446 1569 421 q 1622 510 1622 472 q 1595 572 1622 547 q 1530 597 1569 597 q 1465 572 1491 597 q 1440 510 1440 547 q 1465 446 1440 472 q 1530 421 1491 421 m 484 544 l 523 544 l 523 593 l 390 593 l 390 544 l 430 544 l 430 425 l 484 425 l 484 544 m 619 425 l 676 425 l 647 489 q 666 533 666 506 q 647 576 666 559 q 602 593 628 593 l 533 593 l 533 425 l 587 425 l 587 474 l 598 474 l 619 425 m 684 425 l 737 425 l 737 593 l 684 593 l 684 425 m 858 451 l 865 425 l 923 425 l 866 593 l 803 593 l 747 425 l 803 425 l 810 451 l 858 451 m 933 425 l 1047 425 l 1047 471 l 987 471 l 987 593 l 933 593 l 933 425 m 1738 425 l 1794 425 l 1794 593 l 1740 593 l 1740 504 l 1688 593 l 1633 593 l 1633 425 l 1687 425 l 1685 507 l 1738 425 m 1810 425 l 1924 425 l 1924 471 l 1865 471 l 1865 593 l 1810 593 l 1810 425 m 2009 425 l 2009 492 l 2066 593 l 2003 593 l 1981 543 l 1960 593 l 1897 593 l 1955 492 l 1955 425 l 2009 425 m 1530 549 q 1557 538 1547 549 q 1567 510 1567 526 q 1557 481 1567 492 q 1530 469 1547 469 q 1503 481 1514 469 q 1492 510 1492 492 q 1503 538 1492 526 q 1530 549 1514 549 m 601 547 q 608 543 605 547 q 612 533 612 539 q 608 523 612 527 q 601 518 605 518 l 587 518 l 587 547 l 601 547 m 822 496 l 833 536 l 834 536 l 845 496 l 822 496 m 1110 496 q 1228 451 1162 451 q 1292 463 1261 451 q 1347 496 1322 475 l 1110 496 m 1028 244 q 1065 235 1046 235 q 1090 243 1080 235 q 1101 267 1101 251 q 1092 284 1101 277 q 1069 297 1084 291 q 1051 305 1056 301 q 1047 315 1047 308 q 1052 326 1047 322 q 1066 331 1058 331 q 1081 328 1073 331 q 1094 321 1088 325 l 1094 339 q 1066 346 1080 346 q 1040 338 1050 346 q 1030 315 1030 330 q 1037 296 1030 302 q 1060 283 1044 290 q 1078 276 1073 280 q 1084 267 1084 273 q 1078 254 1084 258 q 1065 250 1073 250 q 1028 263 1046 250 l 1028 244 m 1152 290 q 1168 251 1152 267 q 1208 235 1184 235 q 1247 251 1231 235 q 1263 290 1263 267 q 1247 330 1263 313 q 1208 346 1231 346 q 1168 330 1184 346 q 1152 290 1152 313 m 1373 233 l 1373 343 l 1356 343 l 1356 268 l 1288 344 l 1280 344 l 1280 236 l 1297 236 l 1297 308 l 1365 233 l 1373 233 m 426 343 l 356 343 l 356 236 l 373 236 l 373 276 l 419 276 l 419 292 l 373 292 l 373 328 l 426 328 l 426 343 m 440 278 q 452 247 440 259 q 483 235 464 235 q 515 247 502 235 q 527 278 527 259 l 527 343 l 510 343 l 510 278 q 502 258 510 267 q 483 250 494 250 q 464 258 471 250 q 456 278 456 265 l 456 343 l 440 343 l 440 278 m 565 343 l 548 343 l 548 236 l 613 236 l 613 251 l 565 251 l 565 343 m 645 343 l 628 343 l 628 236 l 695 236 l 695 251 l 645 251 l 645 343 m 795 236 l 840 343 l 820 343 l 790 264 l 759 343 l 740 343 l 784 236 l 795 236 m 923 343 l 853 343 l 853 236 l 923 236 l 923 251 l 870 251 l 870 283 l 916 283 l 916 297 l 870 297 l 870 328 l 923 328 l 923 343 m 1001 236 l 1020 236 l 999 279 q 1011 291 1007 283 q 1016 308 1016 299 q 1006 333 1016 323 q 981 343 996 343 l 941 343 l 941 236 l 958 236 l 958 275 l 983 275 l 1001 236 m 1134 343 l 1117 343 l 1117 236 l 1134 236 l 1134 343 m 1245 290 q 1234 261 1245 273 q 1208 250 1224 250 q 1180 261 1191 250 q 1169 290 1169 273 q 1180 318 1169 307 q 1208 329 1191 329 q 1234 318 1224 329 q 1245 290 1245 307 m 999 308 q 994 294 999 300 q 981 289 989 289 l 958 289 l 958 328 l 981 328 q 994 322 989 328 q 999 308 999 317 m 2049 254 l 2084 288 l 2049 321 l 2038 311 l 2056 296 l 1420 296 l 1420 279 l 2056 279 l 2038 264 l 2049 254 m 999 132 q 1023 75 999 98 q 1081 51 1047 51 q 1140 74 1117 51 q 1163 132 1163 97 q 1140 188 1163 165 q 1081 211 1117 211 q 1023 188 1047 211 q 999 132 999 165 m 1453 65 q 1506 51 1475 51 q 1550 65 1533 51 q 1567 103 1567 78 q 1517 151 1567 140 q 1508 154 1514 153 q 1500 157 1502 156 q 1498 163 1498 159 q 1513 168 1498 168 q 1536 164 1523 168 q 1558 153 1549 160 l 1558 200 q 1513 211 1533 211 q 1468 199 1485 211 q 1451 164 1451 186 q 1461 134 1451 144 q 1495 115 1472 123 q 1506 112 1500 114 q 1516 108 1513 110 q 1519 103 1519 106 q 1506 94 1519 94 q 1453 117 1488 94 l 1453 65 m 1631 132 q 1655 75 1631 98 q 1712 51 1678 51 q 1748 61 1728 51 l 1749 110 q 1715 96 1735 96 q 1690 106 1700 96 q 1680 132 1680 117 q 1690 157 1680 147 q 1715 167 1700 167 q 1745 157 1729 167 l 1745 203 q 1713 211 1731 211 q 1655 188 1678 211 q 1631 132 1631 165 m 1753 132 q 1777 75 1753 98 q 1837 51 1801 51 q 1895 75 1872 51 q 1919 132 1919 98 q 1895 188 1919 165 q 1837 211 1872 211 q 1777 188 1801 211 q 1753 132 1753 165 m 358 164 l 408 164 l 351 56 l 483 56 l 483 99 l 430 99 l 487 207 l 358 207 l 358 164 m 606 207 l 497 207 l 497 56 l 608 56 l 608 97 l 545 97 l 545 111 l 598 111 l 598 153 l 545 153 l 545 165 l 606 165 l 606 207 m 613 164 l 649 164 l 649 56 l 698 56 l 698 164 l 734 164 l 734 207 l 613 207 l 613 164 m 774 79 l 817 79 l 823 56 l 876 56 l 824 207 l 769 207 l 717 56 l 767 56 l 774 79 m 994 207 l 884 207 l 884 56 l 933 56 l 933 103 l 984 103 l 984 143 l 933 143 l 933 165 l 994 165 l 994 207 m 1319 56 l 1319 207 l 1270 207 l 1270 126 l 1224 207 l 1174 207 l 1174 56 l 1223 56 l 1222 129 l 1269 56 l 1319 56 m 1327 164 l 1363 164 l 1363 56 l 1412 56 l 1412 164 l 1447 164 l 1447 207 l 1327 207 l 1327 164 m 1977 207 l 1928 207 l 1928 56 l 1977 56 l 1977 115 l 1997 78 l 2031 78 l 2051 115 l 2051 56 l 2098 56 l 2098 207 l 2049 207 l 2013 138 l 1977 207 m 1115 132 q 1105 106 1115 116 q 1081 96 1096 96 q 1057 106 1067 96 q 1048 132 1048 116 q 1057 157 1048 147 q 1081 167 1067 167 q 1105 157 1096 167 q 1115 132 1115 147 m 1870 132 q 1860 106 1870 117 q 1837 96 1851 96 q 1812 106 1822 96 q 1802 132 1802 117 q 1812 157 1802 147 q 1837 167 1822 167 q 1860 157 1851 167 q 1870 132 1870 147 m 797 156 l 806 119 l 785 119 l 795 156 l 797 156 m 1574 75 q 1581 58 1574 65 q 1599 51 1588 51 q 1616 58 1610 51 q 1623 75 1623 65 q 1616 91 1623 85 q 1599 97 1610 97 q 1581 91 1588 97 q 1574 75 1574 85 z "},"8":{"ha":1831,"x_min":351,"x_max":2099,"o":"m 2099 642 l 2099 374 l 358 374 l 358 642 l 1033 642 q 1063 734 1036 692 q 1134 801 1090 776 q 1228 825 1177 825 q 1323 801 1280 825 q 1394 734 1367 776 q 1424 642 1421 692 l 2099 642 m 1347 760 q 1228 806 1294 806 q 1165 793 1195 806 q 1110 760 1134 781 l 1347 760 m 1365 515 q 1405 628 1405 565 q 1360 746 1405 694 l 1130 515 l 1365 515 m 1091 740 q 1051 628 1051 691 q 1063 564 1051 594 q 1097 510 1075 533 l 1328 740 l 1091 740 m 1530 421 q 1595 446 1569 421 q 1622 510 1622 472 q 1595 572 1622 547 q 1530 597 1569 597 q 1465 572 1491 597 q 1440 510 1440 547 q 1465 446 1440 472 q 1530 421 1491 421 m 484 544 l 523 544 l 523 593 l 390 593 l 390 544 l 430 544 l 430 425 l 484 425 l 484 544 m 619 425 l 676 425 l 647 489 q 666 533 666 506 q 647 576 666 559 q 602 593 628 593 l 533 593 l 533 425 l 587 425 l 587 474 l 598 474 l 619 425 m 684 425 l 737 425 l 737 593 l 684 593 l 684 425 m 858 451 l 865 425 l 923 425 l 866 593 l 803 593 l 747 425 l 803 425 l 810 451 l 858 451 m 933 425 l 1047 425 l 1047 471 l 987 471 l 987 593 l 933 593 l 933 425 m 1738 425 l 1794 425 l 1794 593 l 1740 593 l 1740 504 l 1688 593 l 1633 593 l 1633 425 l 1687 425 l 1685 507 l 1738 425 m 1810 425 l 1924 425 l 1924 471 l 1865 471 l 1865 593 l 1810 593 l 1810 425 m 2009 425 l 2009 492 l 2066 593 l 2003 593 l 1981 543 l 1960 593 l 1897 593 l 1955 492 l 1955 425 l 2009 425 m 1530 549 q 1557 538 1547 549 q 1567 510 1567 526 q 1557 481 1567 492 q 1530 469 1547 469 q 1503 481 1514 469 q 1492 510 1492 492 q 1503 538 1492 526 q 1530 549 1514 549 m 601 547 q 608 543 605 547 q 612 533 612 539 q 608 523 612 527 q 601 518 605 518 l 587 518 l 587 547 l 601 547 m 822 496 l 833 536 l 834 536 l 845 496 l 822 496 m 1110 496 q 1228 451 1162 451 q 1292 463 1261 451 q 1347 496 1322 475 l 1110 496 m 1028 244 q 1065 235 1046 235 q 1090 243 1080 235 q 1101 267 1101 251 q 1092 284 1101 277 q 1069 297 1084 291 q 1051 305 1056 301 q 1047 315 1047 308 q 1052 326 1047 322 q 1066 331 1058 331 q 1081 328 1073 331 q 1094 321 1088 325 l 1094 339 q 1066 346 1080 346 q 1040 338 1050 346 q 1030 315 1030 330 q 1037 296 1030 302 q 1060 283 1044 290 q 1078 276 1073 280 q 1084 267 1084 273 q 1078 254 1084 258 q 1065 250 1073 250 q 1028 263 1046 250 l 1028 244 m 1152 290 q 1168 251 1152 267 q 1208 235 1184 235 q 1247 251 1231 235 q 1263 290 1263 267 q 1247 330 1263 313 q 1208 346 1231 346 q 1168 330 1184 346 q 1152 290 1152 313 m 1373 233 l 1373 343 l 1356 343 l 1356 268 l 1288 344 l 1280 344 l 1280 236 l 1297 236 l 1297 308 l 1365 233 l 1373 233 m 426 343 l 356 343 l 356 236 l 373 236 l 373 276 l 419 276 l 419 292 l 373 292 l 373 328 l 426 328 l 426 343 m 440 278 q 452 247 440 259 q 483 235 464 235 q 515 247 502 235 q 527 278 527 259 l 527 343 l 510 343 l 510 278 q 502 258 510 267 q 483 250 494 250 q 464 258 471 250 q 456 278 456 265 l 456 343 l 440 343 l 440 278 m 565 343 l 548 343 l 548 236 l 613 236 l 613 251 l 565 251 l 565 343 m 645 343 l 628 343 l 628 236 l 695 236 l 695 251 l 645 251 l 645 343 m 795 236 l 840 343 l 820 343 l 790 264 l 759 343 l 740 343 l 784 236 l 795 236 m 923 343 l 853 343 l 853 236 l 923 236 l 923 251 l 870 251 l 870 283 l 916 283 l 916 297 l 870 297 l 870 328 l 923 328 l 923 343 m 1001 236 l 1020 236 l 999 279 q 1011 291 1007 283 q 1016 308 1016 299 q 1006 333 1016 323 q 981 343 996 343 l 941 343 l 941 236 l 958 236 l 958 275 l 983 275 l 1001 236 m 1134 343 l 1117 343 l 1117 236 l 1134 236 l 1134 343 m 1245 290 q 1234 261 1245 273 q 1208 250 1224 250 q 1180 261 1191 250 q 1169 290 1169 273 q 1180 318 1169 307 q 1208 329 1191 329 q 1234 318 1224 329 q 1245 290 1245 307 m 999 308 q 994 294 999 300 q 981 289 989 289 l 958 289 l 958 328 l 981 328 q 994 322 989 328 q 999 308 999 317 m 2049 254 l 2084 288 l 2049 321 l 2038 311 l 2056 296 l 1420 296 l 1420 279 l 2056 279 l 2038 264 l 2049 254 m 999 132 q 1023 75 999 98 q 1081 51 1047 51 q 1140 74 1117 51 q 1163 132 1163 97 q 1140 188 1163 165 q 1081 211 1117 211 q 1023 188 1047 211 q 999 132 999 165 m 1453 65 q 1506 51 1475 51 q 1550 65 1533 51 q 1567 103 1567 78 q 1517 151 1567 140 q 1508 154 1514 153 q 1500 157 1502 156 q 1498 163 1498 159 q 1513 168 1498 168 q 1536 164 1523 168 q 1558 153 1549 160 l 1558 200 q 1513 211 1533 211 q 1468 199 1485 211 q 1451 164 1451 186 q 1461 134 1451 144 q 1495 115 1472 123 q 1506 112 1500 114 q 1516 108 1513 110 q 1519 103 1519 106 q 1506 94 1519 94 q 1453 117 1488 94 l 1453 65 m 1631 132 q 1655 75 1631 98 q 1712 51 1678 51 q 1748 61 1728 51 l 1749 110 q 1715 96 1735 96 q 1690 106 1700 96 q 1680 132 1680 117 q 1690 157 1680 147 q 1715 167 1700 167 q 1745 157 1729 167 l 1745 203 q 1713 211 1731 211 q 1655 188 1678 211 q 1631 132 1631 165 m 1753 132 q 1777 75 1753 98 q 1837 51 1801 51 q 1895 75 1872 51 q 1919 132 1919 98 q 1895 188 1919 165 q 1837 211 1872 211 q 1777 188 1801 211 q 1753 132 1753 165 m 358 164 l 408 164 l 351 56 l 483 56 l 483 99 l 430 99 l 487 207 l 358 207 l 358 164 m 606 207 l 497 207 l 497 56 l 608 56 l 608 97 l 545 97 l 545 111 l 598 111 l 598 153 l 545 153 l 545 165 l 606 165 l 606 207 m 613 164 l 649 164 l 649 56 l 698 56 l 698 164 l 734 164 l 734 207 l 613 207 l 613 164 m 774 79 l 817 79 l 823 56 l 876 56 l 824 207 l 769 207 l 717 56 l 767 56 l 774 79 m 994 207 l 884 207 l 884 56 l 933 56 l 933 103 l 984 103 l 984 143 l 933 143 l 933 165 l 994 165 l 994 207 m 1319 56 l 1319 207 l 1270 207 l 1270 126 l 1224 207 l 1174 207 l 1174 56 l 1223 56 l 1222 129 l 1269 56 l 1319 56 m 1327 164 l 1363 164 l 1363 56 l 1412 56 l 1412 164 l 1447 164 l 1447 207 l 1327 207 l 1327 164 m 1977 207 l 1928 207 l 1928 56 l 1977 56 l 1977 115 l 1997 78 l 2031 78 l 2051 115 l 2051 56 l 2098 56 l 2098 207 l 2049 207 l 2013 138 l 1977 207 m 1115 132 q 1105 106 1115 116 q 1081 96 1096 96 q 1057 106 1067 96 q 1048 132 1048 116 q 1057 157 1048 147 q 1081 167 1067 167 q 1105 157 1096 167 q 1115 132 1115 147 m 1870 132 q 1860 106 1870 117 q 1837 96 1851 96 q 1812 106 1822 96 q 1802 132 1802 117 q 1812 157 1802 147 q 1837 167 1822 167 q 1860 157 1851 167 q 1870 132 1870 147 m 797 156 l 806 119 l 785 119 l 795 156 l 797 156 m 1574 75 q 1581 58 1574 65 q 1599 51 1588 51 q 1616 58 1610 51 q 1623 75 1623 65 q 1616 91 1623 85 q 1599 97 1610 97 q 1581 91 1588 97 q 1574 75 1574 85 z "},"9":{"ha":1847,"x_min":351,"x_max":2099,"o":"m 2099 642 l 2099 374 l 358 374 l 358 642 l 1033 642 q 1063 734 1036 692 q 1134 801 1090 776 q 1228 825 1177 825 q 1323 801 1280 825 q 1394 734 1367 776 q 1424 642 1421 692 l 2099 642 m 1347 760 q 1228 806 1294 806 q 1165 793 1195 806 q 1110 760 1134 781 l 1347 760 m 1365 515 q 1405 628 1405 565 q 1360 746 1405 694 l 1130 515 l 1365 515 m 1091 740 q 1051 628 1051 691 q 1063 564 1051 594 q 1097 510 1075 533 l 1328 740 l 1091 740 m 1530 421 q 1595 446 1569 421 q 1622 510 1622 472 q 1595 572 1622 547 q 1530 597 1569 597 q 1465 572 1491 597 q 1440 510 1440 547 q 1465 446 1440 472 q 1530 421 1491 421 m 484 544 l 523 544 l 523 593 l 390 593 l 390 544 l 430 544 l 430 425 l 484 425 l 484 544 m 619 425 l 676 425 l 647 489 q 666 533 666 506 q 647 576 666 559 q 602 593 628 593 l 533 593 l 533 425 l 587 425 l 587 474 l 598 474 l 619 425 m 684 425 l 737 425 l 737 593 l 684 593 l 684 425 m 858 451 l 865 425 l 923 425 l 866 593 l 803 593 l 747 425 l 803 425 l 810 451 l 858 451 m 933 425 l 1047 425 l 1047 471 l 987 471 l 987 593 l 933 593 l 933 425 m 1738 425 l 1794 425 l 1794 593 l 1740 593 l 1740 504 l 1688 593 l 1633 593 l 1633 425 l 1687 425 l 1685 507 l 1738 425 m 1810 425 l 1924 425 l 1924 471 l 1865 471 l 1865 593 l 1810 593 l 1810 425 m 2009 425 l 2009 492 l 2066 593 l 2003 593 l 1981 543 l 1960 593 l 1897 593 l 1955 492 l 1955 425 l 2009 425 m 1530 549 q 1557 538 1547 549 q 1567 510 1567 526 q 1557 481 1567 492 q 1530 469 1547 469 q 1503 481 1514 469 q 1492 510 1492 492 q 1503 538 1492 526 q 1530 549 1514 549 m 601 547 q 608 543 605 547 q 612 533 612 539 q 608 523 612 527 q 601 518 605 518 l 587 518 l 587 547 l 601 547 m 822 496 l 833 536 l 834 536 l 845 496 l 822 496 m 1110 496 q 1228 451 1162 451 q 1292 463 1261 451 q 1347 496 1322 475 l 1110 496 m 1028 244 q 1065 235 1046 235 q 1090 243 1080 235 q 1101 267 1101 251 q 1092 284 1101 277 q 1069 297 1084 291 q 1051 305 1056 301 q 1047 315 1047 308 q 1052 326 1047 322 q 1066 331 1058 331 q 1081 328 1073 331 q 1094 321 1088 325 l 1094 339 q 1066 346 1080 346 q 1040 338 1050 346 q 1030 315 1030 330 q 1037 296 1030 302 q 1060 283 1044 290 q 1078 276 1073 280 q 1084 267 1084 273 q 1078 254 1084 258 q 1065 250 1073 250 q 1028 263 1046 250 l 1028 244 m 1152 290 q 1168 251 1152 267 q 1208 235 1184 235 q 1247 251 1231 235 q 1263 290 1263 267 q 1247 330 1263 313 q 1208 346 1231 346 q 1168 330 1184 346 q 1152 290 1152 313 m 1373 233 l 1373 343 l 1356 343 l 1356 268 l 1288 344 l 1280 344 l 1280 236 l 1297 236 l 1297 308 l 1365 233 l 1373 233 m 426 343 l 356 343 l 356 236 l 373 236 l 373 276 l 419 276 l 419 292 l 373 292 l 373 328 l 426 328 l 426 343 m 440 278 q 452 247 440 259 q 483 235 464 235 q 515 247 502 235 q 527 278 527 259 l 527 343 l 510 343 l 510 278 q 502 258 510 267 q 483 250 494 250 q 464 258 471 250 q 456 278 456 265 l 456 343 l 440 343 l 440 278 m 565 343 l 548 343 l 548 236 l 613 236 l 613 251 l 565 251 l 565 343 m 645 343 l 628 343 l 628 236 l 695 236 l 695 251 l 645 251 l 645 343 m 795 236 l 840 343 l 820 343 l 790 264 l 759 343 l 740 343 l 784 236 l 795 236 m 923 343 l 853 343 l 853 236 l 923 236 l 923 251 l 870 251 l 870 283 l 916 283 l 916 297 l 870 297 l 870 328 l 923 328 l 923 343 m 1001 236 l 1020 236 l 999 279 q 1011 291 1007 283 q 1016 308 1016 299 q 1006 333 1016 323 q 981 343 996 343 l 941 343 l 941 236 l 958 236 l 958 275 l 983 275 l 1001 236 m 1134 343 l 1117 343 l 1117 236 l 1134 236 l 1134 343 m 1245 290 q 1234 261 1245 273 q 1208 250 1224 250 q 1180 261 1191 250 q 1169 290 1169 273 q 1180 318 1169 307 q 1208 329 1191 329 q 1234 318 1224 329 q 1245 290 1245 307 m 999 308 q 994 294 999 300 q 981 289 989 289 l 958 289 l 958 328 l 981 328 q 994 322 989 328 q 999 308 999 317 m 2049 254 l 2084 288 l 2049 321 l 2038 311 l 2056 296 l 1420 296 l 1420 279 l 2056 279 l 2038 264 l 2049 254 m 999 132 q 1023 75 999 98 q 1081 51 1047 51 q 1140 74 1117 51 q 1163 132 1163 97 q 1140 188 1163 165 q 1081 211 1117 211 q 1023 188 1047 211 q 999 132 999 165 m 1453 65 q 1506 51 1475 51 q 1550 65 1533 51 q 1567 103 1567 78 q 1517 151 1567 140 q 1508 154 1514 153 q 1500 157 1502 156 q 1498 163 1498 159 q 1513 168 1498 168 q 1536 164 1523 168 q 1558 153 1549 160 l 1558 200 q 1513 211 1533 211 q 1468 199 1485 211 q 1451 164 1451 186 q 1461 134 1451 144 q 1495 115 1472 123 q 1506 112 1500 114 q 1516 108 1513 110 q 1519 103 1519 106 q 1506 94 1519 94 q 1453 117 1488 94 l 1453 65 m 1631 132 q 1655 75 1631 98 q 1712 51 1678 51 q 1748 61 1728 51 l 1749 110 q 1715 96 1735 96 q 1690 106 1700 96 q 1680 132 1680 117 q 1690 157 1680 147 q 1715 167 1700 167 q 1745 157 1729 167 l 1745 203 q 1713 211 1731 211 q 1655 188 1678 211 q 1631 132 1631 165 m 1753 132 q 1777 75 1753 98 q 1837 51 1801 51 q 1895 75 1872 51 q 1919 132 1919 98 q 1895 188 1919 165 q 1837 211 1872 211 q 1777 188 1801 211 q 1753 132 1753 165 m 358 164 l 408 164 l 351 56 l 483 56 l 483 99 l 430 99 l 487 207 l 358 207 l 358 164 m 606 207 l 497 207 l 497 56 l 608 56 l 608 97 l 545 97 l 545 111 l 598 111 l 598 153 l 545 153 l 545 165 l 606 165 l 606 207 m 613 164 l 649 164 l 649 56 l 698 56 l 698 164 l 734 164 l 734 207 l 613 207 l 613 164 m 774 79 l 817 79 l 823 56 l 876 56 l 824 207 l 769 207 l 717 56 l 767 56 l 774 79 m 994 207 l 884 207 l 884 56 l 933 56 l 933 103 l 984 103 l 984 143 l 933 143 l 933 165 l 994 165 l 994 207 m 1319 56 l 1319 207 l 1270 207 l 1270 126 l 1224 207 l 1174 207 l 1174 56 l 1223 56 l 1222 129 l 1269 56 l 1319 56 m 1327 164 l 1363 164 l 1363 56 l 1412 56 l 1412 164 l 1447 164 l 1447 207 l 1327 207 l 1327 164 m 1977 207 l 1928 207 l 1928 56 l 1977 56 l 1977 115 l 1997 78 l 2031 78 l 2051 115 l 2051 56 l 2098 56 l 2098 207 l 2049 207 l 2013 138 l 1977 207 m 1115 132 q 1105 106 1115 116 q 1081 96 1096 96 q 1057 106 1067 96 q 1048 132 1048 116 q 1057 157 1048 147 q 1081 167 1067 167 q 1105 157 1096 167 q 1115 132 1115 147 m 1870 132 q 1860 106 1870 117 q 1837 96 1851 96 q 1812 106 1822 96 q 1802 132 1802 117 q 1812 157 1802 147 q 1837 167 1822 167 q 1860 157 1851 167 q 1870 132 1870 147 m 797 156 l 806 119 l 785 119 l 795 156 l 797 156 m 1574 75 q 1581 58 1574 65 q 1599 51 1588 51 q 1616 58 1610 51 q 1623 75 1623 65 q 1616 91 1623 85 q 1599 97 1610 97 q 1581 91 1588 97 q 1574 75 1574 85 z "}," ":{"ha":332,"x_min":0,"x_max":0,"o":""},"":{"ha":1847,"x_min":351,"x_max":2099,"o":"m 2099 642 l 2099 374 l 358 374 l 358 642 l 1033 642 q 1063 734 1036 692 q 1134 801 1090 776 q 1228 825 1177 825 q 1323 801 1280 825 q 1394 734 1367 776 q 1424 642 1421 692 l 2099 642 m 1347 760 q 1228 806 1294 806 q 1165 793 1195 806 q 1110 760 1134 781 l 1347 760 m 1365 515 q 1405 628 1405 565 q 1360 746 1405 694 l 1130 515 l 1365 515 m 1091 740 q 1051 628 1051 691 q 1063 564 1051 594 q 1097 510 1075 533 l 1328 740 l 1091 740 m 1530 421 q 1595 446 1569 421 q 1622 510 1622 472 q 1595 572 1622 547 q 1530 597 1569 597 q 1465 572 1491 597 q 1440 510 1440 547 q 1465 446 1440 472 q 1530 421 1491 421 m 484 544 l 523 544 l 523 593 l 390 593 l 390 544 l 430 544 l 430 425 l 484 425 l 484 544 m 619 425 l 676 425 l 647 489 q 666 533 666 506 q 647 576 666 559 q 602 593 628 593 l 533 593 l 533 425 l 587 425 l 587 474 l 598 474 l 619 425 m 684 425 l 737 425 l 737 593 l 684 593 l 684 425 m 858 451 l 865 425 l 923 425 l 866 593 l 803 593 l 747 425 l 803 425 l 810 451 l 858 451 m 933 425 l 1047 425 l 1047 471 l 987 471 l 987 593 l 933 593 l 933 425 m 1738 425 l 1794 425 l 1794 593 l 1740 593 l 1740 504 l 1688 593 l 1633 593 l 1633 425 l 1687 425 l 1685 507 l 1738 425 m 1810 425 l 1924 425 l 1924 471 l 1865 471 l 1865 593 l 1810 593 l 1810 425 m 2009 425 l 2009 492 l 2066 593 l 2003 593 l 1981 543 l 1960 593 l 1897 593 l 1955 492 l 1955 425 l 2009 425 m 1530 549 q 1557 538 1547 549 q 1567 510 1567 526 q 1557 481 1567 492 q 1530 469 1547 469 q 1503 481 1514 469 q 1492 510 1492 492 q 1503 538 1492 526 q 1530 549 1514 549 m 601 547 q 608 543 605 547 q 612 533 612 539 q 608 523 612 527 q 601 518 605 518 l 587 518 l 587 547 l 601 547 m 822 496 l 833 536 l 834 536 l 845 496 l 822 496 m 1110 496 q 1228 451 1162 451 q 1292 463 1261 451 q 1347 496 1322 475 l 1110 496 m 1028 244 q 1065 235 1046 235 q 1090 243 1080 235 q 1101 267 1101 251 q 1092 284 1101 277 q 1069 297 1084 291 q 1051 305 1056 301 q 1047 315 1047 308 q 1052 326 1047 322 q 1066 331 1058 331 q 1081 328 1073 331 q 1094 321 1088 325 l 1094 339 q 1066 346 1080 346 q 1040 338 1050 346 q 1030 315 1030 330 q 1037 296 1030 302 q 1060 283 1044 290 q 1078 276 1073 280 q 1084 267 1084 273 q 1078 254 1084 258 q 1065 250 1073 250 q 1028 263 1046 250 l 1028 244 m 1152 290 q 1168 251 1152 267 q 1208 235 1184 235 q 1247 251 1231 235 q 1263 290 1263 267 q 1247 330 1263 313 q 1208 346 1231 346 q 1168 330 1184 346 q 1152 290 1152 313 m 1373 233 l 1373 343 l 1356 343 l 1356 268 l 1288 344 l 1280 344 l 1280 236 l 1297 236 l 1297 308 l 1365 233 l 1373 233 m 426 343 l 356 343 l 356 236 l 373 236 l 373 276 l 419 276 l 419 292 l 373 292 l 373 328 l 426 328 l 426 343 m 440 278 q 452 247 440 259 q 483 235 464 235 q 515 247 502 235 q 527 278 527 259 l 527 343 l 510 343 l 510 278 q 502 258 510 267 q 483 250 494 250 q 464 258 471 250 q 456 278 456 265 l 456 343 l 440 343 l 440 278 m 565 343 l 548 343 l 548 236 l 613 236 l 613 251 l 565 251 l 565 343 m 645 343 l 628 343 l 628 236 l 695 236 l 695 251 l 645 251 l 645 343 m 795 236 l 840 343 l 820 343 l 790 264 l 759 343 l 740 343 l 784 236 l 795 236 m 923 343 l 853 343 l 853 236 l 923 236 l 923 251 l 870 251 l 870 283 l 916 283 l 916 297 l 870 297 l 870 328 l 923 328 l 923 343 m 1001 236 l 1020 236 l 999 279 q 1011 291 1007 283 q 1016 308 1016 299 q 1006 333 1016 323 q 981 343 996 343 l 941 343 l 941 236 l 958 236 l 958 275 l 983 275 l 1001 236 m 1134 343 l 1117 343 l 1117 236 l 1134 236 l 1134 343 m 1245 290 q 1234 261 1245 273 q 1208 250 1224 250 q 1180 261 1191 250 q 1169 290 1169 273 q 1180 318 1169 307 q 1208 329 1191 329 q 1234 318 1224 329 q 1245 290 1245 307 m 999 308 q 994 294 999 300 q 981 289 989 289 l 958 289 l 958 328 l 981 328 q 994 322 989 328 q 999 308 999 317 m 2049 254 l 2084 288 l 2049 321 l 2038 311 l 2056 296 l 1420 296 l 1420 279 l 2056 279 l 2038 264 l 2049 254 m 999 132 q 1023 75 999 98 q 1081 51 1047 51 q 1140 74 1117 51 q 1163 132 1163 97 q 1140 188 1163 165 q 1081 211 1117 211 q 1023 188 1047 211 q 999 132 999 165 m 1453 65 q 1506 51 1475 51 q 1550 65 1533 51 q 1567 103 1567 78 q 1517 151 1567 140 q 1508 154 1514 153 q 1500 157 1502 156 q 1498 163 1498 159 q 1513 168 1498 168 q 1536 164 1523 168 q 1558 153 1549 160 l 1558 200 q 1513 211 1533 211 q 1468 199 1485 211 q 1451 164 1451 186 q 1461 134 1451 144 q 1495 115 1472 123 q 1506 112 1500 114 q 1516 108 1513 110 q 1519 103 1519 106 q 1506 94 1519 94 q 1453 117 1488 94 l 1453 65 m 1631 132 q 1655 75 1631 98 q 1712 51 1678 51 q 1748 61 1728 51 l 1749 110 q 1715 96 1735 96 q 1690 106 1700 96 q 1680 132 1680 117 q 1690 157 1680 147 q 1715 167 1700 167 q 1745 157 1729 167 l 1745 203 q 1713 211 1731 211 q 1655 188 1678 211 q 1631 132 1631 165 m 1753 132 q 1777 75 1753 98 q 1837 51 1801 51 q 1895 75 1872 51 q 1919 132 1919 98 q 1895 188 1919 165 q 1837 211 1872 211 q 1777 188 1801 211 q 1753 132 1753 165 m 358 164 l 408 164 l 351 56 l 483 56 l 483 99 l 430 99 l 487 207 l 358 207 l 358 164 m 606 207 l 497 207 l 497 56 l 608 56 l 608 97 l 545 97 l 545 111 l 598 111 l 598 153 l 545 153 l 545 165 l 606 165 l 606 207 m 613 164 l 649 164 l 649 56 l 698 56 l 698 164 l 734 164 l 734 207 l 613 207 l 613 164 m 774 79 l 817 79 l 823 56 l 876 56 l 824 207 l 769 207 l 717 56 l 767 56 l 774 79 m 994 207 l 884 207 l 884 56 l 933 56 l 933 103 l 984 103 l 984 143 l 933 143 l 933 165 l 994 165 l 994 207 m 1319 56 l 1319 207 l 1270 207 l 1270 126 l 1224 207 l 1174 207 l 1174 56 l 1223 56 l 1222 129 l 1269 56 l 1319 56 m 1327 164 l 1363 164 l 1363 56 l 1412 56 l 1412 164 l 1447 164 l 1447 207 l 1327 207 l 1327 164 m 1977 207 l 1928 207 l 1928 56 l 1977 56 l 1977 115 l 1997 78 l 2031 78 l 2051 115 l 2051 56 l 2098 56 l 2098 207 l 2049 207 l 2013 138 l 1977 207 m 1115 132 q 1105 106 1115 116 q 1081 96 1096 96 q 1057 106 1067 96 q 1048 132 1048 116 q 1057 157 1048 147 q 1081 167 1067 167 q 1105 157 1096 167 q 1115 132 1115 147 m 1870 132 q 1860 106 1870 117 q 1837 96 1851 96 q 1812 106 1822 96 q 1802 132 1802 117 q 1812 157 1802 147 q 1837 167 1822 167 q 1860 157 1851 167 q 1870 132 1870 147 m 797 156 l 806 119 l 785 119 l 795 156 l 797 156 m 1574 75 q 1581 58 1574 65 q 1599 51 1588 51 q 1616 58 1610 51 q 1623 75 1623 65 q 1616 91 1623 85 q 1599 97 1610 97 q 1581 91 1588 97 q 1574 75 1574 85 z "},"A":{"ha":953,"x_min":10,"x_max":943,"o":"m 943 0 l 749 0 l 680 188 l 273 188 l 205 0 l 10 0 l 394 977 l 560 977 l 943 0 m 467 720 l 332 348 l 622 348 l 485 720 l 476 753 l 467 720 z "},"B":{"ha":907,"x_min":116,"x_max":860,"o":"m 116 0 l 116 976 l 509 976 q 669 944 601 976 q 775 853 738 912 q 813 715 813 794 q 797 634 813 674 q 753 564 781 594 q 692 520 726 534 q 778 471 740 506 q 838 385 816 435 q 860 280 860 335 q 818 129 860 192 q 706 33 777 65 q 549 0 635 0 l 116 0 m 495 579 q 562 595 532 579 q 609 639 592 611 q 626 699 626 666 q 610 759 626 732 q 566 801 594 785 q 499 816 537 816 l 303 816 l 303 579 l 495 579 m 535 158 q 606 176 574 158 q 654 226 637 194 q 672 298 672 258 q 653 366 672 335 q 601 416 635 397 q 524 435 568 435 l 303 435 l 303 158 l 535 158 z "},"C":{"ha":932,"x_min":59,"x_max":894,"o":"m 564 -17 q 309 51 424 -17 q 126 234 193 118 q 59 489 59 350 q 126 744 59 628 q 309 926 193 859 q 564 993 424 993 q 743 961 658 993 q 894 873 827 930 l 788 731 q 684 790 742 767 q 564 813 625 813 q 408 769 480 813 q 293 652 335 726 q 250 488 250 578 q 293 324 250 399 q 408 207 335 250 q 564 164 480 164 q 681 184 627 164 q 790 249 734 205 l 894 105 q 742 15 826 47 q 564 -17 658 -17 z "},"D":{"ha":1036,"x_min":116,"x_max":978,"o":"m 116 0 l 116 976 l 468 976 q 725 911 608 976 q 910 735 842 847 q 978 488 978 624 q 910 240 978 351 q 726 64 842 128 q 470 0 610 0 l 116 0 m 476 178 q 634 219 563 178 q 746 330 706 259 q 787 488 787 400 q 746 646 787 575 q 633 757 705 717 q 474 797 562 797 l 304 797 l 304 178 l 476 178 z "},"E":{"ha":881,"x_min":116,"x_max":823,"o":"m 823 0 l 116 0 l 116 976 l 813 976 l 813 803 l 304 803 l 304 577 l 710 577 l 710 415 l 304 415 l 304 172 l 823 172 l 823 0 z "},"F":{"ha":810,"x_min":116,"x_max":776,"o":"m 304 0 l 116 0 l 116 976 l 776 976 l 776 806 l 304 806 l 304 528 l 672 528 l 672 367 l 304 367 l 304 0 z "},"G":{"ha":967,"x_min":59,"x_max":897,"o":"m 718 446 l 897 446 l 897 92 q 743 11 830 40 q 564 -17 656 -17 q 309 50 424 -17 q 126 234 193 118 q 59 490 59 351 q 126 744 59 628 q 309 926 193 859 q 564 994 424 994 q 742 962 657 994 q 892 874 826 931 l 782 731 q 680 791 737 768 q 564 813 624 813 q 408 770 480 813 q 292 653 335 727 q 249 489 249 578 q 292 323 249 399 q 408 203 335 247 q 564 159 481 159 q 718 191 646 159 l 718 446 z "},"H":{"ha":1066,"x_min":116,"x_max":949,"o":"m 304 0 l 116 0 l 116 976 l 304 976 l 304 595 l 761 595 l 761 976 l 949 976 l 949 0 l 761 0 l 761 415 l 304 415 l 304 0 z "},"I":{"ha":420,"x_min":116,"x_max":304,"o":"m 304 0 l 116 0 l 116 976 l 304 976 l 304 0 z "},"J":{"ha":634,"x_min":12,"x_max":541,"o":"m 246 -19 q 127 9 190 -19 q 12 87 65 37 l 115 221 q 182 177 149 193 q 244 162 216 162 q 324 194 295 162 q 353 286 353 226 l 353 976 l 541 976 l 541 274 q 505 118 541 184 q 403 16 469 52 q 246 -19 336 -19 z "},"K":{"ha":992,"x_min":116,"x_max":976,"o":"m 976 0 l 751 0 l 447 430 l 304 266 l 304 0 l 116 0 l 116 976 l 304 976 l 304 522 l 692 976 l 922 976 l 570 572 l 976 0 z "},"L":{"ha":794,"x_min":116,"x_max":756,"o":"m 756 0 l 116 0 l 116 976 l 304 976 l 304 180 l 756 180 l 756 0 z "},"M":{"ha":1244,"x_min":57,"x_max":1188,"o":"m 247 0 l 57 0 l 176 976 l 388 976 l 622 263 l 856 976 l 1068 976 l 1188 -1 l 997 -1 l 926 674 l 705 0 l 542 0 l 320 674 l 247 0 z "},"N":{"ha":1069,"x_min":116,"x_max":953,"o":"m 301 0 l 116 0 l 116 976 l 306 976 l 768 316 l 768 976 l 953 976 l 953 0 l 778 0 l 301 679 l 301 0 z "},"O":{"ha":1128,"x_min":59,"x_max":1069,"o":"m 564 -17 q 309 51 424 -17 q 126 234 193 118 q 59 489 59 350 q 126 744 59 628 q 309 926 193 859 q 564 993 424 993 q 819 926 703 993 q 1002 744 935 859 q 1069 489 1069 628 q 1002 234 1069 350 q 819 51 935 118 q 564 -17 703 -17 m 564 164 q 720 207 649 164 q 835 324 792 250 q 878 488 878 399 q 835 653 878 578 q 720 770 792 727 q 564 813 648 813 q 408 769 480 813 q 293 652 335 726 q 250 488 250 578 q 293 324 250 399 q 408 207 335 250 q 564 164 480 164 z "},"P":{"ha":869,"x_min":116,"x_max":835,"o":"m 116 0 l 116 976 l 494 976 q 674 935 597 976 q 793 821 751 894 q 835 655 835 749 q 795 481 835 556 q 677 365 754 406 q 496 324 601 324 l 304 324 l 304 0 l 116 0 m 481 495 q 567 515 530 495 q 626 571 605 535 q 647 653 647 607 q 626 733 647 699 q 568 786 606 767 q 481 805 530 805 l 304 805 l 304 495 l 481 495 z "},"Q":{"ha":1128,"x_min":59,"x_max":1069,"o":"m 1069 489 q 1016 260 1069 366 q 868 83 963 154 q 656 -8 774 13 l 656 -205 l 468 -205 l 468 -8 q 258 85 351 14 q 112 261 165 156 q 59 489 59 367 q 126 744 59 628 q 309 926 193 859 q 564 993 424 993 q 819 926 703 993 q 1002 744 935 859 q 1069 489 1069 628 m 564 164 q 720 207 649 164 q 835 324 792 250 q 878 488 878 399 q 835 653 878 578 q 720 770 792 727 q 564 813 648 813 q 408 769 480 813 q 293 652 335 726 q 250 488 250 578 q 293 324 250 399 q 408 207 335 250 q 564 164 480 164 z "},"R":{"ha":915,"x_min":116,"x_max":879,"o":"m 879 0 l 667 0 l 514 329 q 467 328 483 328 l 304 328 l 304 0 l 116 0 l 116 976 l 519 976 q 694 935 618 976 q 812 821 770 894 q 854 652 854 748 q 812 486 854 556 q 694 378 769 417 l 879 0 m 304 494 l 502 494 q 586 514 549 494 q 643 570 623 534 q 663 651 663 606 q 642 733 663 699 q 585 786 622 768 q 503 805 549 805 l 304 805 l 304 494 z "},"S":{"ha":820,"x_min":21,"x_max":772,"o":"m 416 -15 q 198 30 301 -15 q 21 160 96 74 l 142 282 q 267 191 197 222 q 413 160 338 160 q 536 192 491 160 q 582 280 582 224 q 560 342 582 317 q 493 386 538 367 q 369 428 449 406 q 225 481 288 450 q 119 570 163 513 q 75 716 75 628 q 113 855 75 792 q 227 955 151 918 q 409 992 302 992 q 598 957 511 992 q 753 860 685 923 l 646 731 q 541 795 603 769 q 417 820 479 820 q 337 807 372 820 q 282 768 302 793 q 263 710 263 743 q 284 656 263 677 q 341 620 306 634 q 444 585 376 606 l 460 580 q 627 511 561 547 q 733 420 694 476 q 772 284 772 365 q 727 125 772 193 q 600 21 681 58 q 416 -15 519 -15 z "},"T":{"ha":835,"x_min":38,"x_max":799,"o":"m 512 0 l 324 0 l 324 800 l 38 800 l 38 976 l 799 976 l 799 800 l 512 800 l 512 0 z "},"U":{"ha":1008,"x_min":93,"x_max":915,"o":"m 503 -19 q 282 34 375 -19 q 141 183 190 88 q 93 399 93 278 l 93 976 l 281 976 l 281 421 q 307 283 281 343 q 383 190 333 223 q 503 156 433 156 q 625 190 574 156 q 701 283 675 223 q 727 421 727 343 l 727 976 l 915 976 l 915 399 q 867 183 915 278 q 725 34 818 88 q 503 -19 632 -19 z "},"V":{"ha":942,"x_min":10,"x_max":932,"o":"m 551 0 l 392 0 l 10 976 l 211 976 l 470 264 l 472 264 l 731 976 l 932 976 l 551 0 z "},"W":{"ha":1391,"x_min":10,"x_max":1381,"o":"m 555 0 l 392 0 l 10 976 l 213 976 l 476 263 l 724 976 l 923 976 l 793 610 l 919 264 l 1178 976 l 1381 976 l 998 0 l 838 0 l 697 366 l 555 0 z "},"X":{"ha":935,"x_min":10,"x_max":919,"o":"m 232 0 l 10 0 l 348 501 l 32 976 l 256 976 l 465 642 l 671 976 l 896 976 l 587 501 l 919 0 l 696 0 l 464 364 l 232 0 z "},"Y":{"ha":883,"x_min":10,"x_max":874,"o":"m 536 0 l 348 0 l 348 391 l 10 976 l 228 976 l 443 567 l 655 976 l 874 976 l 536 392 l 536 0 z "},"Z":{"ha":886,"x_min":59,"x_max":827,"o":"m 827 0 l 59 0 l 59 140 l 564 806 l 68 806 l 68 976 l 814 976 l 814 845 l 303 170 l 827 170 l 827 0 z "},"":{"ha":1528,"x_min":10,"x_max":1470,"o":"m 951 415 l 951 172 l 1470 172 l 1470 0 l 763 0 l 763 181 l 360 181 l 235 -1 l 10 -1 l 723 976 l 1460 976 l 1460 803 l 951 803 l 951 577 l 1358 577 l 1358 415 l 951 415 m 763 760 l 483 357 l 763 357 l 763 760 z "},"":{"ha":1667,"x_min":59,"x_max":1608,"o":"m 1090 172 l 1608 172 l 1608 0 l 901 0 l 901 110 q 747 17 833 50 q 564 -17 660 -17 q 309 51 424 -17 q 126 234 193 118 q 59 489 59 350 q 126 744 59 628 q 309 926 193 859 q 564 993 424 993 q 747 960 660 993 q 901 867 833 927 l 901 976 l 1598 976 l 1598 803 l 1090 803 l 1090 577 l 1496 577 l 1496 415 l 1090 415 l 1090 172 m 564 164 q 720 207 649 164 q 835 324 792 250 q 878 488 878 399 q 835 653 878 578 q 720 770 792 727 q 564 813 648 813 q 408 769 480 813 q 293 652 335 726 q 250 488 250 578 q 293 324 250 399 q 408 207 335 250 q 564 164 480 164 z "},"":{"ha":1036,"x_min":6,"x_max":978,"o":"m 468 976 q 725 911 608 976 q 910 735 842 847 q 978 488 978 624 q 910 240 978 351 q 726 64 842 128 q 470 0 610 0 l 116 0 l 116 417 l 6 417 l 6 567 l 116 567 l 116 976 l 468 976 m 476 178 q 634 219 563 178 q 746 330 706 259 q 787 488 787 400 q 746 646 787 575 q 633 757 705 717 q 474 797 562 797 l 304 797 l 304 567 l 485 567 l 485 417 l 304 417 l 304 178 l 476 178 z "},"":{"ha":853,"x_min":116,"x_max":794,"o":"m 462 822 q 636 782 561 822 q 753 666 712 741 q 794 490 794 590 q 752 314 794 390 q 635 197 710 238 q 465 156 560 156 l 306 156 l 306 0 l 116 0 l 116 976 l 306 976 l 306 822 l 462 822 m 438 333 q 525 352 486 333 q 586 406 564 371 q 609 490 609 441 q 586 573 609 538 q 525 626 564 608 q 438 645 486 645 l 306 645 l 306 333 l 438 333 z "},"":{"ha":1019,"x_min":93,"x_max":969,"o":"m 658 -19 q 531 -3 592 -19 q 429 43 469 14 l 488 187 q 635 144 556 144 q 709 165 676 144 q 760 220 742 185 q 778 294 778 254 q 756 374 778 340 q 696 427 734 408 q 610 446 658 446 q 529 443 558 446 q 478 433 500 440 l 478 550 l 638 776 q 559 808 596 799 q 474 817 522 817 q 327 759 374 817 q 281 602 281 700 l 281 0 l 93 0 l 93 631 q 138 828 93 747 q 267 952 182 910 q 475 995 353 995 q 663 968 572 995 q 835 889 753 940 l 835 769 l 683 574 q 710 575 691 575 q 834 539 774 575 q 932 440 894 503 q 969 299 969 376 q 928 141 969 214 q 816 24 888 67 q 658 -19 744 -19 z "},"a":{"ha":902,"x_min":49,"x_max":806,"o":"m 652 728 l 806 728 l 806 0 l 651 0 l 639 85 q 541 10 597 38 q 415 -17 485 -17 q 232 34 317 -17 q 99 172 148 85 q 49 363 49 259 q 99 555 49 467 q 233 693 149 642 q 415 744 317 744 q 543 716 486 744 q 641 640 599 688 l 652 728 m 431 151 q 536 178 488 151 q 612 254 584 206 q 640 363 640 302 q 612 472 640 423 q 536 549 584 521 q 431 576 488 576 q 326 549 374 576 q 252 472 279 521 q 225 363 225 423 q 252 253 225 302 q 326 178 279 205 q 431 151 373 151 z "},"b":{"ha":903,"x_min":97,"x_max":853,"o":"m 488 744 q 670 693 586 744 q 804 555 754 642 q 853 363 853 467 q 804 172 853 259 q 670 34 755 85 q 488 -17 586 -17 q 362 10 418 -17 q 264 85 306 38 l 251 0 l 97 0 l 97 1024 l 275 1024 l 275 654 q 488 744 360 744 m 472 151 q 577 178 530 151 q 651 253 624 205 q 678 363 678 302 q 651 472 678 423 q 576 549 624 521 q 472 576 529 576 q 367 549 415 576 q 291 472 319 521 q 263 363 263 423 q 291 254 263 302 q 367 178 319 206 q 472 151 415 151 z "},"c":{"ha":717,"x_min":49,"x_max":694,"o":"m 430 -20 q 235 31 322 -20 q 99 170 149 83 q 49 361 49 258 q 99 553 49 465 q 236 692 149 641 q 429 744 323 744 q 576 717 508 744 q 694 643 643 690 l 606 516 q 528 565 568 549 q 438 582 488 582 q 332 553 381 582 q 254 474 283 524 q 225 361 225 423 q 254 250 225 300 q 332 171 283 200 q 438 142 381 142 q 528 159 488 142 q 606 207 569 176 l 694 81 q 576 7 644 33 q 430 -20 508 -20 z "},"d":{"ha":903,"x_min":49,"x_max":806,"o":"m 628 1024 l 806 1024 l 806 0 l 651 0 l 639 85 q 541 10 597 38 q 415 -17 485 -17 q 232 34 317 -17 q 99 172 148 85 q 49 363 49 259 q 99 555 49 467 q 233 693 149 642 q 415 744 317 744 q 628 654 543 744 l 628 1024 m 431 151 q 536 178 488 151 q 612 254 584 206 q 640 363 640 302 q 612 472 640 423 q 536 549 584 521 q 431 576 488 576 q 326 549 374 576 q 252 472 279 521 q 225 363 225 423 q 252 253 225 302 q 326 178 279 205 q 431 151 373 151 z "},"e":{"ha":814,"x_min":49,"x_max":765,"o":"m 224 304 q 299 182 242 226 q 435 138 356 138 q 608 204 535 138 l 692 81 q 573 7 640 33 q 424 -19 505 -19 q 232 32 318 -19 q 98 170 147 83 q 49 361 49 258 q 95 553 49 466 q 223 692 141 641 q 406 743 304 743 q 599 695 517 743 q 722 561 680 647 q 765 366 765 476 q 760 304 765 333 l 224 304 m 413 590 q 293 550 343 590 q 226 439 243 510 l 594 439 q 531 550 578 511 q 413 590 484 590 z "},"f":{"ha":447,"x_min":16,"x_max":443,"o":"m 112 0 l 112 565 l 16 565 l 16 728 l 112 728 l 112 818 q 388 1067 112 1067 q 421 1066 413 1067 l 443 1065 l 443 910 q 395 911 407 911 q 315 883 340 911 q 289 797 289 854 l 289 728 l 441 728 l 441 565 l 290 565 l 290 0 l 112 0 z "},"g":{"ha":878,"x_min":49,"x_max":782,"o":"m 635 728 l 782 728 l 782 108 q 741 -85 782 -1 q 616 -217 699 -169 q 409 -265 532 -265 q 242 -243 328 -265 q 101 -187 156 -222 l 167 -49 q 392 -108 276 -108 q 512 -80 464 -108 q 584 -5 560 -52 q 607 103 607 43 l 607 119 q 514 57 567 79 q 397 35 462 35 q 221 80 301 35 q 95 203 142 124 q 49 381 49 283 q 96 561 49 478 q 222 695 142 645 q 398 744 302 744 q 522 718 467 744 q 618 644 577 692 l 635 728 m 419 190 q 519 216 475 190 q 589 286 564 242 q 614 383 614 330 q 589 485 614 439 q 519 557 564 531 q 419 584 474 584 q 319 558 363 584 q 250 486 275 531 q 226 386 226 440 q 250 287 226 331 q 319 216 275 242 q 419 190 363 190 z "},"h":{"ha":860,"x_min":96,"x_max":789,"o":"m 501 744 q 653 707 588 744 q 753 599 718 669 q 789 431 789 528 l 789 0 l 611 0 l 611 399 q 569 533 611 485 q 451 580 527 580 q 361 556 402 580 q 296 492 319 533 q 272 403 272 452 l 272 0 l 96 0 l 96 1040 l 272 1040 l 272 649 q 376 718 315 692 q 501 744 438 744 z "},"i":{"ha":369,"x_min":74,"x_max":297,"o":"m 185 852 q 128 867 153 852 q 89 906 103 882 q 74 958 74 931 q 89 1009 74 985 q 128 1049 103 1034 q 185 1065 153 1065 q 243 1049 217 1065 q 282 1009 268 1034 q 297 958 297 985 q 282 906 297 931 q 243 867 268 882 q 185 852 217 852 m 273 0 l 96 0 l 96 728 l 273 728 l 273 0 z "},"":{"ha":369,"x_min":96,"x_max":273,"o":"m 273 0 l 96 0 l 96 728 l 273 728 l 273 0 z "},"j":{"ha":369,"x_min":-24,"x_max":298,"o":"m 187 852 q 130 867 155 852 q 90 906 104 882 q 76 958 76 931 q 90 1009 76 985 q 130 1049 104 1034 q 187 1065 155 1065 q 244 1049 219 1065 q 284 1009 269 1034 q 298 958 298 985 q 284 906 298 931 q 244 867 269 882 q 187 852 219 852 m -24 -262 l -24 -106 l -11 -106 q 70 -76 44 -106 q 97 14 97 -46 l 97 728 l 273 728 l 273 18 q 205 -190 273 -117 q 10 -262 137 -262 l -24 -262 z "},"":{"ha":369,"x_min":-24,"x_max":273,"o":"m -24 -262 l -24 -106 l -11 -106 q 70 -76 44 -106 q 97 14 97 -46 l 97 728 l 273 728 l 273 18 q 205 -190 273 -117 q 10 -262 137 -262 l -24 -262 z "},"k":{"ha":822,"x_min":96,"x_max":821,"o":"m 821 0 l 610 0 l 383 307 l 273 191 l 273 0 l 96 0 l 96 1040 l 273 1040 l 273 411 l 557 728 l 783 728 l 501 431 l 821 0 z "},"l":{"ha":368,"x_min":96,"x_max":272,"o":"m 272 0 l 96 0 l 96 1040 l 272 1040 l 272 0 z "},"m":{"ha":1286,"x_min":96,"x_max":1214,"o":"m 944 746 q 1086 710 1025 746 q 1181 604 1147 674 q 1214 438 1214 535 l 1214 0 l 1037 0 l 1037 415 q 1000 537 1037 493 q 898 581 963 581 q 819 557 854 581 q 764 493 784 533 q 744 407 744 453 l 744 0 l 567 0 l 567 415 q 530 537 567 493 q 428 581 492 581 q 349 557 384 581 q 293 493 313 533 q 273 407 273 453 l 273 0 l 96 0 l 96 728 l 248 728 l 258 653 q 357 722 299 697 q 474 746 414 746 q 609 714 550 746 q 702 621 668 682 q 808 713 742 680 q 944 746 874 746 z "},"n":{"ha":862,"x_min":96,"x_max":790,"o":"m 501 744 q 654 707 589 744 q 754 599 719 669 q 790 431 790 528 l 790 0 l 612 0 l 612 399 q 570 533 612 485 q 453 580 528 580 q 362 556 403 580 q 297 492 321 533 q 273 403 273 452 l 273 0 l 96 0 l 96 728 l 248 728 l 260 633 q 367 713 300 683 q 501 744 433 744 z "},"o":{"ha":868,"x_min":49,"x_max":819,"o":"m 433 -20 q 239 31 327 -20 q 100 169 151 82 q 49 360 49 256 q 100 553 49 465 q 240 693 151 642 q 434 744 328 744 q 628 692 540 744 q 768 553 717 641 q 819 360 819 465 q 768 169 819 256 q 628 31 717 81 q 433 -20 540 -20 m 434 147 q 539 175 492 147 q 615 252 587 203 q 642 361 642 301 q 615 471 642 422 q 539 549 587 520 q 434 577 491 577 q 329 549 376 577 q 253 471 281 520 q 226 361 226 422 q 253 252 226 301 q 329 175 281 203 q 434 147 376 147 z "},"p":{"ha":903,"x_min":97,"x_max":853,"o":"m 488 744 q 670 693 586 744 q 804 555 754 642 q 853 363 853 467 q 804 172 853 259 q 670 34 755 85 q 488 -17 586 -17 q 368 7 422 -17 q 274 74 315 31 l 274 -247 l 97 -247 l 97 728 l 249 728 l 261 639 q 360 716 303 688 q 488 744 417 744 m 472 151 q 577 178 530 151 q 651 253 624 205 q 678 363 678 302 q 651 472 678 423 q 576 549 624 521 q 472 576 529 576 q 367 549 415 576 q 291 472 319 521 q 263 363 263 423 q 291 254 263 302 q 367 178 319 206 q 472 151 415 151 z "},"q":{"ha":903,"x_min":49,"x_max":806,"o":"m 654 728 l 806 728 l 806 -247 l 629 -247 l 629 74 q 534 7 588 31 q 415 -17 481 -17 q 232 34 317 -17 q 99 172 148 85 q 49 363 49 259 q 99 555 49 467 q 233 693 149 642 q 415 744 317 744 q 543 716 486 744 q 642 639 600 688 l 654 728 m 431 151 q 536 178 488 151 q 612 254 584 206 q 640 363 640 302 q 612 472 640 423 q 536 549 584 521 q 431 576 488 576 q 326 549 374 576 q 252 472 279 521 q 225 363 225 423 q 252 253 225 302 q 326 178 279 205 q 431 151 373 151 z "},"r":{"ha":603,"x_min":96,"x_max":622,"o":"m 453 743 q 538 728 495 743 q 622 686 581 714 l 543 542 q 432 580 489 580 q 356 555 392 579 q 297 485 319 530 q 273 381 274 440 l 273 0 l 96 0 l 96 728 l 248 728 l 260 630 q 341 713 291 683 q 453 743 390 743 z "},"s":{"ha":666,"x_min":24,"x_max":639,"o":"m 350 -19 q 174 10 256 -19 q 24 90 91 39 l 108 215 q 219 159 155 182 q 344 135 283 135 q 428 154 397 135 q 459 207 459 173 q 443 246 459 230 q 392 276 427 262 q 296 305 358 290 q 123 387 188 332 q 58 528 58 442 q 92 638 58 589 q 193 716 127 687 q 349 744 259 744 q 491 720 417 744 q 622 654 564 697 l 538 527 q 445 570 499 552 q 342 588 390 588 q 264 572 290 588 q 237 526 237 555 q 250 491 237 506 q 296 464 264 476 q 386 435 328 451 q 521 388 466 415 q 607 316 576 360 q 639 208 639 272 q 603 91 639 143 q 501 10 567 40 q 350 -19 435 -19 z "},"t":{"ha":456,"x_min":10,"x_max":453,"o":"m 292 0 l 115 0 l 115 565 l 10 565 l 10 728 l 114 728 l 114 902 l 292 944 l 292 728 l 453 728 l 453 565 l 292 565 l 292 0 z "},"u":{"ha":862,"x_min":72,"x_max":766,"o":"m 589 728 l 766 728 l 766 1 l 614 1 l 602 95 q 495 15 562 46 q 360 -15 428 -15 q 208 22 273 -15 q 108 130 143 59 q 72 298 72 200 l 72 728 l 250 728 l 250 329 q 292 196 250 243 q 409 149 334 149 q 500 172 458 149 q 565 236 541 196 q 589 325 589 276 l 589 728 z "},"v":{"ha":784,"x_min":10,"x_max":774,"o":"m 478 0 l 305 0 l 10 728 l 204 728 l 392 201 l 579 728 l 774 728 l 478 0 z "},"w":{"ha":1165,"x_min":10,"x_max":1156,"o":"m 773 201 l 963 728 l 1156 728 l 873 0 l 708 0 l 585 319 l 466 0 l 292 0 l 10 728 l 199 728 l 380 201 l 550 728 l 739 728 l 658 512 l 773 201 z "},"x":{"ha":776,"x_min":14,"x_max":761,"o":"m 222 0 l 14 0 l 276 373 l 26 728 l 238 728 l 388 486 l 540 728 l 748 728 l 502 371 l 761 0 l 553 0 l 388 258 l 222 0 z "},"y":{"ha":784,"x_min":10,"x_max":774,"o":"m 389 -247 l 200 -247 l 303 1 l 10 728 l 203 728 l 390 208 l 578 728 l 774 728 l 389 -247 z "},"z":{"ha":697,"x_min":50,"x_max":658,"o":"m 658 0 l 50 0 l 50 121 l 413 571 l 61 571 l 61 728 l 644 728 l 644 610 l 280 157 l 658 157 l 658 0 z "},"":{"ha":1410,"x_min":49,"x_max":1360,"o":"m 820 304 q 895 182 838 226 q 1031 138 952 138 q 1203 204 1131 138 l 1288 81 q 1168 7 1236 33 q 1020 -19 1101 -19 q 892 2 952 -19 q 783 63 831 24 l 772 0 l 664 0 l 647 99 q 543 13 604 44 q 407 -19 483 -19 q 226 32 308 -19 q 97 170 144 83 q 49 362 49 258 q 97 553 49 466 q 227 692 145 641 q 408 744 310 744 q 545 712 484 744 q 649 624 606 681 l 668 728 l 772 728 l 783 667 q 884 723 828 703 q 1001 743 939 743 q 1194 695 1113 743 q 1318 561 1276 647 q 1360 366 1360 476 q 1356 304 1360 333 l 820 304 m 1008 590 q 889 550 939 590 q 822 439 839 510 l 1190 439 q 1127 550 1174 511 q 1008 590 1080 590 m 432 142 q 534 171 487 142 q 608 249 581 199 q 635 361 635 299 q 608 473 635 423 q 534 552 581 524 q 432 581 488 581 q 327 552 374 581 q 252 473 280 524 q 225 361 225 423 q 252 249 225 299 q 327 171 280 199 q 432 142 374 142 z "},"":{"ha":1424,"x_min":49,"x_max":1375,"o":"m 835 304 q 909 182 852 226 q 1045 138 967 138 q 1218 204 1146 138 l 1303 81 q 1183 7 1251 33 q 1035 -19 1115 -19 q 867 19 944 -19 q 738 125 790 58 q 605 18 685 57 q 433 -20 525 -20 q 239 31 327 -20 q 100 169 151 82 q 49 360 49 256 q 100 553 49 465 q 240 693 151 642 q 434 744 328 744 q 603 706 525 744 q 735 601 682 667 q 857 705 784 667 q 1016 743 929 743 q 1209 695 1128 743 q 1333 561 1290 647 q 1375 366 1375 476 q 1371 304 1375 333 l 835 304 m 1023 590 q 903 550 953 590 q 836 439 853 510 l 1204 439 q 1141 550 1188 511 q 1023 590 1094 590 m 434 147 q 539 175 492 147 q 615 252 587 203 q 642 361 642 301 q 615 471 642 422 q 539 549 587 520 q 434 577 491 577 q 329 549 376 577 q 253 471 281 520 q 226 361 226 422 q 253 252 226 301 q 329 175 281 203 q 434 147 376 147 z "},"":{"ha":841,"x_min":49,"x_max":792,"o":"m 603 901 q 742 645 693 777 q 792 365 792 514 q 744 165 792 253 q 611 29 696 78 q 421 -19 527 -19 q 233 27 319 -19 q 99 154 148 74 q 49 333 49 235 q 95 506 49 426 q 220 633 140 585 q 399 680 301 680 q 545 646 470 680 q 450 813 508 733 l 360 762 l 308 840 l 392 888 q 322 969 370 916 l 474 1059 q 545 976 515 1013 l 660 1042 l 711 963 l 603 901 m 423 143 q 518 169 476 143 q 582 242 559 194 q 605 355 605 290 q 596 473 605 412 q 516 511 557 497 q 424 526 474 526 q 326 500 370 526 q 256 431 281 475 q 231 333 231 388 q 256 232 231 276 q 326 166 282 189 q 423 143 369 143 z "},"":{"ha":900,"x_min":94,"x_max":851,"o":"m 485 744 q 667 693 583 744 q 801 555 751 642 q 851 363 851 467 q 801 172 851 259 q 668 34 752 85 q 485 -17 583 -17 q 272 73 359 -17 l 272 0 l 271 0 l 271 -247 l 94 -247 l 94 728 l 96 728 l 96 1040 l 272 1040 l 272 654 q 485 744 357 744 m 469 151 q 574 178 527 151 q 648 253 621 205 q 675 363 675 302 q 648 472 675 423 q 574 549 621 521 q 469 576 526 576 q 364 549 412 576 q 288 472 316 521 q 260 363 260 423 q 261 348 260 353 l 263 331 q 298 238 269 278 q 372 174 327 197 q 469 151 417 151 z "},"":{"ha":887,"x_min":96,"x_max":838,"o":"m 96 737 q 141 912 96 840 q 262 1019 185 984 q 431 1055 338 1055 q 608 1018 532 1055 q 726 918 685 981 q 768 780 768 856 q 730 642 768 696 q 631 566 691 589 q 737 517 690 552 q 810 430 783 482 q 838 313 838 377 q 792 146 838 217 q 667 38 747 75 q 486 0 587 0 l 397 0 l 397 165 l 484 165 q 575 183 535 165 q 638 235 615 201 q 660 315 660 269 q 638 393 660 360 q 574 444 615 426 q 483 463 534 463 l 448 463 l 448 621 l 462 621 q 523 635 492 621 q 574 678 553 649 q 594 750 594 708 q 574 822 594 790 q 517 871 553 853 q 433 889 481 889 q 348 868 384 889 q 292 812 312 847 q 273 733 273 776 l 273 0 l 96 0 l 96 737 z "},"":{"ha":953,"x_min":10,"x_max":943,"o":"m 943 0 l 749 0 l 680 188 l 273 188 l 205 0 l 10 0 l 394 977 l 560 977 l 943 0 m 467 720 l 332 348 l 622 348 l 485 720 l 476 753 l 467 720 m 665 1204 l 507 1043 l 366 1043 l 478 1204 l 665 1204 z "},"":{"ha":953,"x_min":10,"x_max":943,"o":"m 943 0 l 749 0 l 680 188 l 273 188 l 205 0 l 10 0 l 394 977 l 560 977 l 943 0 m 467 720 l 332 348 l 622 348 l 485 720 l 476 753 l 467 720 m 470 1040 q 364 1064 407 1040 q 300 1127 322 1087 q 278 1217 279 1167 l 410 1217 q 422 1164 408 1183 q 470 1146 436 1146 q 531 1217 534 1146 l 662 1217 q 640 1127 661 1167 q 576 1064 619 1087 q 470 1040 533 1040 z "},"":{"ha":953,"x_min":10,"x_max":943,"o":"m 943 0 l 749 0 l 680 188 l 273 188 l 205 0 l 10 0 l 394 977 l 560 977 l 943 0 m 467 720 l 332 348 l 622 348 l 485 720 l 476 753 l 467 720 z "},"":{"ha":953,"x_min":10,"x_max":943,"o":"m 943 0 l 749 0 l 680 188 l 273 188 l 205 0 l 10 0 l 394 977 l 560 977 l 943 0 m 467 720 l 332 348 l 622 348 l 485 720 l 476 753 l 467 720 m 470 1040 q 364 1064 407 1040 q 300 1127 322 1087 q 278 1217 279 1167 l 410 1217 q 422 1164 408 1183 q 470 1146 436 1146 q 531 1217 534 1146 l 662 1217 q 640 1127 661 1167 q 576 1064 619 1087 q 470 1040 533 1040 z "},"":{"ha":953,"x_min":10,"x_max":943,"o":"m 943 0 l 749 0 l 680 188 l 273 188 l 205 0 l 10 0 l 394 977 l 560 977 l 943 0 m 467 720 l 332 348 l 622 348 l 485 720 l 476 753 l 467 720 m 528 1236 l 424 1236 l 307 1389 l 451 1390 l 528 1236 m 469 1044 q 330 1094 377 1044 q 282 1228 283 1144 l 410 1228 q 423 1169 409 1188 q 469 1151 438 1151 q 515 1169 501 1151 q 528 1228 528 1188 l 657 1228 q 609 1094 656 1144 q 469 1044 561 1044 z "},"":{"ha":953,"x_min":10,"x_max":943,"o":"m 943 0 l 749 0 l 680 188 l 273 188 l 205 0 l 10 0 l 394 977 l 560 977 l 943 0 m 467 720 l 332 348 l 622 348 l 485 720 l 476 753 l 467 720 z "},"":{"ha":953,"x_min":10,"x_max":943,"o":"m 943 0 l 749 0 l 680 188 l 273 188 l 205 0 l 10 0 l 394 977 l 560 977 l 943 0 m 467 720 l 332 348 l 622 348 l 485 720 l 476 753 l 467 720 z "},"":{"ha":953,"x_min":10,"x_max":943,"o":"m 943 0 l 749 0 l 680 188 l 273 188 l 205 0 l 10 0 l 394 977 l 560 977 l 943 0 m 467 720 l 332 348 l 622 348 l 485 720 l 476 753 l 467 720 m 278 1167 l 338 1256 l 472 1175 l 608 1256 l 667 1167 l 490 1045 l 456 1045 l 278 1167 z "},"":{"ha":953,"x_min":10,"x_max":943,"o":"m 943 0 l 749 0 l 680 188 l 273 188 l 205 0 l 10 0 l 394 977 l 560 977 l 943 0 m 467 720 l 332 348 l 622 348 l 485 720 l 476 753 l 467 720 m 469 1111 l 335 1031 l 275 1119 l 453 1240 l 488 1240 l 664 1119 l 605 1031 l 469 1111 z "},"":{"ha":953,"x_min":10,"x_max":943,"o":"m 943 0 l 749 0 l 680 188 l 273 188 l 205 0 l 10 0 l 394 977 l 560 977 l 943 0 m 467 720 l 332 348 l 622 348 l 485 720 l 476 753 l 467 720 z "},"":{"ha":953,"x_min":10,"x_max":943,"o":"m 943 0 l 749 0 l 680 188 l 273 188 l 205 0 l 10 0 l 394 977 l 560 977 l 943 0 m 467 720 l 332 348 l 622 348 l 485 720 l 476 753 l 467 720 m 469 1111 l 335 1031 l 275 1119 l 453 1240 l 488 1240 l 664 1119 l 605 1031 l 469 1111 z "},"":{"ha":953,"x_min":10,"x_max":943,"o":"m 943 0 l 749 0 l 680 188 l 273 188 l 205 0 l 10 0 l 394 977 l 560 977 l 943 0 m 467 720 l 332 348 l 622 348 l 485 720 l 476 753 l 467 720 z "},"":{"ha":953,"x_min":10,"x_max":943,"o":"m 943 0 l 749 0 l 680 188 l 273 188 l 205 0 l 10 0 l 394 977 l 560 977 l 943 0 m 467 720 l 332 348 l 622 348 l 485 720 l 476 753 l 467 720 z "},"":{"ha":953,"x_min":10,"x_max":943,"o":"m 943 0 l 749 0 l 680 188 l 273 188 l 205 0 l 10 0 l 394 977 l 560 977 l 943 0 m 467 720 l 332 348 l 622 348 l 485 720 l 476 753 l 467 720 z "},"":{"ha":953,"x_min":10,"x_max":943,"o":"m 943 0 l 749 0 l 680 188 l 273 188 l 205 0 l 10 0 l 394 977 l 560 977 l 943 0 m 467 720 l 332 348 l 622 348 l 485 720 l 476 753 l 467 720 m 444 1035 l 315 1035 l 168 1183 l 340 1183 l 444 1035 m 641 1034 l 511 1034 l 365 1183 l 537 1183 l 641 1034 z "},"":{"ha":953,"x_min":10,"x_max":943,"o":"m 943 0 l 749 0 l 680 188 l 273 188 l 205 0 l 10 0 l 394 977 l 560 977 l 943 0 m 467 720 l 332 348 l 622 348 l 485 720 l 476 753 l 467 720 z "},"":{"ha":953,"x_min":10,"x_max":943,"o":"m 943 0 l 749 0 l 680 188 l 273 188 l 205 0 l 10 0 l 394 977 l 560 977 l 943 0 m 467 720 l 332 348 l 622 348 l 485 720 l 476 753 l 467 720 z "},"":{"ha":953,"x_min":10,"x_max":943,"o":"m 943 0 l 749 0 l 680 188 l 273 188 l 205 0 l 10 0 l 394 977 l 560 977 l 943 0 m 467 720 l 332 348 l 622 348 l 485 720 l 476 753 l 467 720 z "},"":{"ha":953,"x_min":10,"x_max":943,"o":"m 943 0 l 749 0 l 680 188 l 273 188 l 205 0 l 10 0 l 394 977 l 560 977 l 943 0 m 467 720 l 332 348 l 622 348 l 485 720 l 476 753 l 467 720 z "},"":{"ha":953,"x_min":10,"x_max":943,"o":"m 943 0 l 749 0 l 680 188 l 273 188 l 205 0 l 10 0 l 394 977 l 560 977 l 943 0 m 467 720 l 332 348 l 622 348 l 485 720 l 476 753 l 467 720 z "},"":{"ha":953,"x_min":10,"x_max":943,"o":"m 943 0 l 749 0 l 680 188 l 273 188 l 205 0 l 10 0 l 394 977 l 560 977 l 943 0 m 467 720 l 332 348 l 622 348 l 485 720 l 476 753 l 467 720 m 545 1043 l 404 1043 l 246 1204 l 433 1204 l 545 1043 z "},"":{"ha":953,"x_min":10,"x_max":943,"o":"m 943 0 l 749 0 l 680 188 l 273 188 l 205 0 l 10 0 l 394 977 l 560 977 l 943 0 m 467 720 l 332 348 l 622 348 l 485 720 l 476 753 l 467 720 m 432 1047 q 452 1087 446 1072 q 458 1117 458 1103 q 439 1138 458 1138 q 394 1123 417 1138 l 379 1182 q 470 1213 424 1213 q 537 1197 512 1213 q 563 1153 563 1181 q 550 1108 563 1129 q 508 1047 538 1087 l 432 1047 z "},"":{"ha":953,"x_min":10,"x_max":943,"o":"m 943 0 l 749 0 l 680 188 l 273 188 l 205 0 l 10 0 l 394 977 l 560 977 l 943 0 m 467 720 l 332 348 l 622 348 l 485 720 l 476 753 l 467 720 m 470 1214 q 576 1191 533 1214 q 640 1127 619 1167 q 662 1037 661 1088 l 531 1037 q 470 1108 534 1108 q 422 1090 436 1108 q 410 1037 408 1072 l 278 1037 q 300 1127 279 1087 q 364 1191 322 1167 q 470 1214 407 1214 z "},"":{"ha":953,"x_min":10,"x_max":943,"o":"m 943 0 l 749 0 l 680 188 l 273 188 l 205 0 l 10 0 l 394 977 l 560 977 l 943 0 m 467 720 l 332 348 l 622 348 l 485 720 l 476 753 l 467 720 z "},"":{"ha":953,"x_min":10,"x_max":974,"o":"m 943 0 l 749 0 l 680 188 l 273 188 l 205 0 l 10 0 l 394 977 l 560 977 l 943 0 m 467 720 l 332 348 l 622 348 l 485 720 l 476 753 l 467 720 m 943 0 q 889 -57 907 -29 q 871 -109 871 -85 q 884 -143 871 -130 q 921 -156 897 -156 q 965 -151 940 -156 l 974 -236 q 931 -251 951 -247 q 881 -255 910 -255 q 778 -225 810 -255 q 745 -147 745 -194 q 770 -67 745 -107 q 826 0 794 -27 l 943 0 z "},"":{"ha":953,"x_min":10,"x_max":943,"o":"m 943 0 l 749 0 l 680 188 l 273 188 l 205 0 l 10 0 l 394 977 l 560 977 l 943 0 m 467 720 l 332 348 l 622 348 l 485 720 l 476 753 l 467 720 m 471 1042 q 386 1072 418 1042 q 353 1151 353 1102 q 386 1230 353 1201 q 471 1260 418 1260 q 556 1230 524 1260 q 588 1151 588 1200 q 556 1072 588 1102 q 471 1042 523 1042 m 471 1108 q 505 1120 492 1108 q 517 1151 517 1132 q 504 1183 517 1171 q 471 1196 491 1196 q 438 1183 451 1196 q 424 1151 424 1171 q 437 1120 424 1132 q 471 1108 450 1108 z "},"":{"ha":953,"x_min":10,"x_max":943,"o":"m 943 0 l 749 0 l 680 188 l 273 188 l 205 0 l 10 0 l 394 977 l 560 977 l 943 0 m 467 720 l 332 348 l 622 348 l 485 720 l 476 753 l 467 720 m 471 1042 q 386 1072 418 1042 q 353 1151 353 1102 q 386 1230 353 1201 q 471 1260 418 1260 q 556 1230 524 1260 q 588 1151 588 1200 q 556 1072 588 1102 q 471 1042 523 1042 m 471 1108 q 505 1120 492 1108 q 517 1151 517 1132 q 504 1183 517 1171 q 471 1196 491 1196 q 438 1183 451 1196 q 424 1151 424 1171 q 437 1120 424 1132 q 471 1108 450 1108 m 663 1451 l 505 1290 l 364 1290 l 476 1451 l 663 1451 z "},"":{"ha":953,"x_min":10,"x_max":943,"o":"m 943 0 l 749 0 l 680 188 l 273 188 l 205 0 l 10 0 l 394 977 l 560 977 l 943 0 m 467 720 l 332 348 l 622 348 l 485 720 l 476 753 l 467 720 z "},"":{"ha":953,"x_min":10,"x_max":943,"o":"m 943 0 l 749 0 l 680 188 l 273 188 l 205 0 l 10 0 l 394 977 l 560 977 l 943 0 m 467 720 l 332 348 l 622 348 l 485 720 l 476 753 l 467 720 z "},"":{"ha":1528,"x_min":10,"x_max":1470,"o":"m 951 415 l 951 172 l 1470 172 l 1470 0 l 763 0 l 763 181 l 360 181 l 235 -1 l 10 -1 l 723 976 l 1460 976 l 1460 803 l 951 803 l 951 577 l 1358 577 l 1358 415 l 951 415 m 763 760 l 483 357 l 763 357 l 763 760 m 1302 1204 l 1144 1043 l 1003 1043 l 1115 1204 l 1302 1204 z "},"":{"ha":1528,"x_min":10,"x_max":1470,"o":"m 951 415 l 951 172 l 1470 172 l 1470 0 l 763 0 l 763 181 l 360 181 l 235 -1 l 10 -1 l 723 976 l 1460 976 l 1460 803 l 951 803 l 951 577 l 1358 577 l 1358 415 l 951 415 m 763 760 l 483 357 l 763 357 l 763 760 z "},"":{"ha":907,"x_min":116,"x_max":860,"o":"m 116 0 l 116 976 l 509 976 q 669 944 601 976 q 775 853 738 912 q 813 715 813 794 q 797 634 813 674 q 753 564 781 594 q 692 520 726 534 q 778 471 740 506 q 838 385 816 435 q 860 280 860 335 q 818 129 860 192 q 706 33 777 65 q 549 0 635 0 l 116 0 m 495 579 q 562 595 532 579 q 609 639 592 611 q 626 699 626 666 q 610 759 626 732 q 566 801 594 785 q 499 816 537 816 l 303 816 l 303 579 l 495 579 m 535 158 q 606 176 574 158 q 654 226 637 194 q 672 298 672 258 q 653 366 672 335 q 601 416 635 397 q 524 435 568 435 l 303 435 l 303 158 l 535 158 z "},"":{"ha":907,"x_min":116,"x_max":860,"o":"m 116 0 l 116 976 l 509 976 q 669 944 601 976 q 775 853 738 912 q 813 715 813 794 q 797 634 813 674 q 753 564 781 594 q 692 520 726 534 q 778 471 740 506 q 838 385 816 435 q 860 280 860 335 q 818 129 860 192 q 706 33 777 65 q 549 0 635 0 l 116 0 m 495 579 q 562 595 532 579 q 609 639 592 611 q 626 699 626 666 q 610 759 626 732 q 566 801 594 785 q 499 816 537 816 l 303 816 l 303 579 l 495 579 m 535 158 q 606 176 574 158 q 654 226 637 194 q 672 298 672 258 q 653 366 672 335 q 601 416 635 397 q 524 435 568 435 l 303 435 l 303 158 l 535 158 z "},"":{"ha":907,"x_min":116,"x_max":860,"o":"m 116 0 l 116 976 l 509 976 q 669 944 601 976 q 775 853 738 912 q 813 715 813 794 q 797 634 813 674 q 753 564 781 594 q 692 520 726 534 q 778 471 740 506 q 838 385 816 435 q 860 280 860 335 q 818 129 860 192 q 706 33 777 65 q 549 0 635 0 l 116 0 m 495 579 q 562 595 532 579 q 609 639 592 611 q 626 699 626 666 q 610 759 626 732 q 566 801 594 785 q 499 816 537 816 l 303 816 l 303 579 l 495 579 m 535 158 q 606 176 574 158 q 654 226 637 194 q 672 298 672 258 q 653 366 672 335 q 601 416 635 397 q 524 435 568 435 l 303 435 l 303 158 l 535 158 z "},"":{"ha":932,"x_min":59,"x_max":894,"o":"m 564 -17 q 309 51 424 -17 q 126 234 193 118 q 59 489 59 350 q 126 744 59 628 q 309 926 193 859 q 564 993 424 993 q 743 961 658 993 q 894 873 827 930 l 788 731 q 684 790 742 767 q 564 813 625 813 q 408 769 480 813 q 293 652 335 726 q 250 488 250 578 q 293 324 250 399 q 408 207 335 250 q 564 164 480 164 q 681 184 627 164 q 790 249 734 205 l 894 105 q 742 15 826 47 q 564 -17 658 -17 m 763 1213 l 604 1051 l 463 1051 l 576 1213 l 763 1213 z "},"":{"ha":932,"x_min":59,"x_max":894,"o":"m 564 -17 q 309 51 424 -17 q 126 234 193 118 q 59 489 59 350 q 126 744 59 628 q 309 926 193 859 q 564 993 424 993 q 743 961 658 993 q 894 873 827 930 l 788 731 q 684 790 742 767 q 564 813 625 813 q 408 769 480 813 q 293 652 335 726 q 250 488 250 578 q 293 324 250 399 q 408 207 335 250 q 564 164 480 164 q 681 184 627 164 q 790 249 734 205 l 894 105 q 742 15 826 47 q 564 -17 658 -17 m 375 1175 l 435 1264 l 569 1183 l 705 1264 l 764 1175 l 588 1053 l 553 1053 l 375 1175 z "},"":{"ha":932,"x_min":59,"x_max":894,"o":"m 894 105 q 764 24 835 55 q 613 -15 692 -7 q 653 -87 636 -49 q 669 -157 669 -125 q 653 -219 669 -192 q 594 -265 638 -246 q 471 -290 550 -283 l 454 -194 q 510 -182 492 -190 q 534 -163 528 -174 q 540 -137 540 -153 q 526 -84 540 -114 q 485 -10 513 -55 q 267 78 364 8 q 114 256 169 149 q 59 489 59 363 q 126 744 59 628 q 309 926 193 859 q 564 993 424 993 q 743 961 658 993 q 894 873 827 930 l 788 731 q 684 790 742 767 q 564 813 625 813 q 408 769 480 813 q 293 652 335 726 q 250 488 250 578 q 293 324 250 399 q 408 207 335 250 q 564 164 480 164 q 681 184 627 164 q 790 249 734 205 l 894 105 z "},"":{"ha":932,"x_min":59,"x_max":894,"o":"m 576 1213 l 763 1213 l 604 1051 l 463 1051 l 576 1213 m 894 105 q 764 24 835 55 q 613 -15 692 -7 q 653 -87 636 -49 q 669 -157 669 -125 q 653 -219 669 -192 q 594 -265 638 -246 q 471 -290 550 -283 l 454 -194 q 510 -182 492 -190 q 534 -163 528 -174 q 540 -137 540 -153 q 526 -84 540 -114 q 485 -10 513 -55 q 267 78 364 8 q 114 256 169 149 q 59 489 59 363 q 126 744 59 628 q 309 926 193 859 q 564 993 424 993 q 743 961 658 993 q 894 873 827 930 l 788 731 q 684 790 742 767 q 564 813 625 813 q 408 769 480 813 q 293 652 335 726 q 250 488 250 578 q 293 324 250 399 q 408 207 335 250 q 564 164 480 164 q 681 184 627 164 q 790 249 734 205 l 894 105 z "},"":{"ha":932,"x_min":59,"x_max":894,"o":"m 564 -17 q 309 51 424 -17 q 126 234 193 118 q 59 489 59 350 q 126 744 59 628 q 309 926 193 859 q 564 993 424 993 q 743 961 658 993 q 894 873 827 930 l 788 731 q 684 790 742 767 q 564 813 625 813 q 408 769 480 813 q 293 652 335 726 q 250 488 250 578 q 293 324 250 399 q 408 207 335 250 q 564 164 480 164 q 681 184 627 164 q 790 249 734 205 l 894 105 q 742 15 826 47 q 564 -17 658 -17 m 566 1119 l 431 1039 l 372 1128 l 549 1249 l 584 1249 l 760 1128 l 701 1039 l 566 1119 z "},"":{"ha":932,"x_min":59,"x_max":894,"o":"m 564 -17 q 309 51 424 -17 q 126 234 193 118 q 59 489 59 350 q 126 744 59 628 q 309 926 193 859 q 564 993 424 993 q 743 961 658 993 q 894 873 827 930 l 788 731 q 684 790 742 767 q 564 813 625 813 q 408 769 480 813 q 293 652 335 726 q 250 488 250 578 q 293 324 250 399 q 408 207 335 250 q 564 164 480 164 q 681 184 627 164 q 790 249 734 205 l 894 105 q 742 15 826 47 q 564 -17 658 -17 z "},"":{"ha":1894,"x_min":116,"x_max":1835,"o":"m 116 0 l 116 976 l 468 976 q 725 911 608 976 q 910 735 842 847 q 978 488 978 624 q 910 240 978 351 q 726 64 842 128 q 470 0 610 0 l 116 0 m 476 178 q 634 219 563 178 q 746 330 706 259 q 787 488 787 400 q 746 646 787 575 q 633 757 705 717 q 474 797 562 797 l 304 797 l 304 178 l 476 178 m 1835 0 l 1067 0 l 1067 140 l 1572 806 l 1076 806 l 1076 976 l 1822 976 l 1822 845 l 1312 170 l 1835 170 l 1835 0 z "},"":{"ha":1894,"x_min":116,"x_max":1835,"o":"m 116 0 l 116 976 l 468 976 q 725 911 608 976 q 910 735 842 847 q 978 488 978 624 q 910 240 978 351 q 726 64 842 128 q 470 0 610 0 l 116 0 m 476 178 q 634 219 563 178 q 746 330 706 259 q 787 488 787 400 q 746 646 787 575 q 633 757 705 717 q 474 797 562 797 l 304 797 l 304 178 l 476 178 z "},"":{"ha":1036,"x_min":6,"x_max":978,"o":"m 468 976 q 725 911 608 976 q 910 735 842 847 q 978 488 978 624 q 910 240 978 351 q 726 64 842 128 q 470 0 610 0 l 116 0 l 116 417 l 6 417 l 6 567 l 116 567 l 116 976 l 468 976 m 476 178 q 634 219 563 178 q 746 330 706 259 q 787 488 787 400 q 746 646 787 575 q 633 757 705 717 q 474 797 562 797 l 304 797 l 304 567 l 485 567 l 485 417 l 304 417 l 304 178 l 476 178 z "},"":{"ha":1036,"x_min":116,"x_max":978,"o":"m 116 0 l 116 976 l 468 976 q 725 911 608 976 q 910 735 842 847 q 978 488 978 624 q 910 240 978 351 q 726 64 842 128 q 470 0 610 0 l 116 0 m 476 178 q 634 219 563 178 q 746 330 706 259 q 787 488 787 400 q 746 646 787 575 q 633 757 705 717 q 474 797 562 797 l 304 797 l 304 178 l 476 178 m 216 1167 l 276 1256 l 410 1175 l 546 1256 l 605 1167 l 428 1045 l 394 1045 l 216 1167 z "},"":{"ha":1036,"x_min":116,"x_max":978,"o":"m 116 0 l 116 976 l 468 976 q 725 911 608 976 q 910 735 842 847 q 978 488 978 624 q 910 240 978 351 q 726 64 842 128 q 470 0 610 0 l 116 0 m 476 178 q 634 219 563 178 q 746 330 706 259 q 787 488 787 400 q 746 646 787 575 q 633 757 705 717 q 474 797 562 797 l 304 797 l 304 178 l 476 178 m 364 -269 q 419 -190 419 -220 l 419 -187 q 377 -169 394 -187 q 360 -127 360 -151 q 378 -83 360 -100 q 426 -66 397 -66 q 472 -84 453 -66 q 491 -139 491 -102 q 403 -306 491 -230 l 364 -269 z "},"":{"ha":1036,"x_min":116,"x_max":978,"o":"m 116 0 l 116 976 l 468 976 q 725 911 608 976 q 910 735 842 847 q 978 488 978 624 q 910 240 978 351 q 726 64 842 128 q 470 0 610 0 l 116 0 m 476 178 q 634 219 563 178 q 746 330 706 259 q 787 488 787 400 q 746 646 787 575 q 633 757 705 717 q 474 797 562 797 l 304 797 l 304 178 l 476 178 z "},"":{"ha":1036,"x_min":6,"x_max":978,"o":"m 468 976 q 725 911 608 976 q 910 735 842 847 q 978 488 978 624 q 910 240 978 351 q 726 64 842 128 q 470 0 610 0 l 116 0 l 116 417 l 6 417 l 6 567 l 116 567 l 116 976 l 468 976 m 476 178 q 634 219 563 178 q 746 330 706 259 q 787 488 787 400 q 746 646 787 575 q 633 757 705 717 q 474 797 562 797 l 304 797 l 304 567 l 485 567 l 485 417 l 304 417 l 304 178 l 476 178 z "},"":{"ha":1036,"x_min":116,"x_max":978,"o":"m 116 0 l 116 976 l 468 976 q 725 911 608 976 q 910 735 842 847 q 978 488 978 624 q 910 240 978 351 q 726 64 842 128 q 470 0 610 0 l 116 0 m 476 178 q 634 219 563 178 q 746 330 706 259 q 787 488 787 400 q 746 646 787 575 q 633 757 705 717 q 474 797 562 797 l 304 797 l 304 178 l 476 178 z "},"":{"ha":1036,"x_min":116,"x_max":978,"o":"m 116 0 l 116 976 l 468 976 q 725 911 608 976 q 910 735 842 847 q 978 488 978 624 q 910 240 978 351 q 726 64 842 128 q 470 0 610 0 l 116 0 m 476 178 q 634 219 563 178 q 746 330 706 259 q 787 488 787 400 q 746 646 787 575 q 633 757 705 717 q 474 797 562 797 l 304 797 l 304 178 l 476 178 z "},"":{"ha":1036,"x_min":116,"x_max":978,"o":"m 116 0 l 116 976 l 468 976 q 725 911 608 976 q 910 735 842 847 q 978 488 978 624 q 910 240 978 351 q 726 64 842 128 q 470 0 610 0 l 116 0 m 476 178 q 634 219 563 178 q 746 330 706 259 q 787 488 787 400 q 746 646 787 575 q 633 757 705 717 q 474 797 562 797 l 304 797 l 304 178 l 476 178 z "},"":{"ha":1734,"x_min":116,"x_max":1694,"o":"m 116 0 l 116 976 l 468 976 q 725 911 608 976 q 910 735 842 847 q 978 488 978 624 q 910 240 978 351 q 726 64 842 128 q 470 0 610 0 l 116 0 m 476 178 q 634 219 563 178 q 746 330 706 259 q 787 488 787 400 q 746 646 787 575 q 633 757 705 717 q 474 797 562 797 l 304 797 l 304 178 l 476 178 m 1694 0 l 1086 0 l 1086 121 l 1449 571 l 1097 571 l 1097 728 l 1681 728 l 1681 610 l 1316 157 l 1694 157 l 1694 0 z "},"":{"ha":1734,"x_min":116,"x_max":1694,"o":"m 116 0 l 116 976 l 468 976 q 725 911 608 976 q 910 735 842 847 q 978 488 978 624 q 910 240 978 351 q 726 64 842 128 q 470 0 610 0 l 116 0 m 476 178 q 634 219 563 178 q 746 330 706 259 q 787 488 787 400 q 746 646 787 575 q 633 757 705 717 q 474 797 562 797 l 304 797 l 304 178 l 476 178 z "},"":{"ha":881,"x_min":116,"x_max":823,"o":"m 823 0 l 116 0 l 116 976 l 813 976 l 813 803 l 304 803 l 304 577 l 710 577 l 710 415 l 304 415 l 304 172 l 823 172 l 823 0 m 669 1204 l 510 1043 l 369 1043 l 482 1204 l 669 1204 z "},"":{"ha":881,"x_min":116,"x_max":823,"o":"m 823 0 l 116 0 l 116 976 l 813 976 l 813 803 l 304 803 l 304 577 l 710 577 l 710 415 l 304 415 l 304 172 l 823 172 l 823 0 m 473 1040 q 367 1064 410 1040 q 303 1127 324 1087 q 281 1217 282 1167 l 413 1217 q 425 1164 411 1183 q 473 1146 439 1146 q 533 1217 537 1146 l 665 1217 q 643 1127 664 1167 q 579 1064 622 1087 q 473 1040 536 1040 z "},"":{"ha":881,"x_min":116,"x_max":823,"o":"m 823 0 l 116 0 l 116 976 l 813 976 l 813 803 l 304 803 l 304 577 l 710 577 l 710 415 l 304 415 l 304 172 l 823 172 l 823 0 m 281 1167 l 340 1256 l 475 1175 l 610 1256 l 669 1167 l 493 1045 l 458 1045 l 281 1167 z "},"":{"ha":881,"x_min":116,"x_max":823,"o":"m 823 172 l 823 0 l 537 0 q 577 -72 560 -34 q 594 -142 594 -110 q 578 -205 594 -178 q 518 -250 562 -231 q 395 -275 474 -269 l 378 -179 q 434 -167 416 -175 q 458 -149 453 -159 q 464 -123 464 -138 q 451 -72 464 -100 q 412 0 439 -43 l 116 0 l 116 976 l 813 976 l 813 803 l 304 803 l 304 577 l 710 577 l 710 415 l 304 415 l 304 172 l 823 172 z "},"":{"ha":881,"x_min":116,"x_max":823,"o":"m 473 1040 q 367 1064 410 1040 q 303 1127 324 1087 q 281 1217 282 1167 l 413 1217 q 425 1164 411 1183 q 473 1146 439 1146 q 533 1217 537 1146 l 665 1217 q 643 1127 664 1167 q 579 1064 622 1087 q 473 1040 536 1040 m 823 172 l 823 0 l 537 0 q 577 -72 560 -34 q 594 -142 594 -110 q 578 -205 594 -178 q 518 -250 562 -231 q 395 -275 474 -269 l 378 -179 q 434 -167 416 -175 q 458 -149 453 -159 q 464 -123 464 -138 q 451 -72 464 -100 q 412 0 439 -43 l 116 0 l 116 976 l 813 976 l 813 803 l 304 803 l 304 577 l 710 577 l 710 415 l 304 415 l 304 172 l 823 172 z "},"":{"ha":881,"x_min":116,"x_max":823,"o":"m 823 0 l 116 0 l 116 976 l 813 976 l 813 803 l 304 803 l 304 577 l 710 577 l 710 415 l 304 415 l 304 172 l 823 172 l 823 0 m 472 1111 l 338 1031 l 278 1119 l 456 1240 l 490 1240 l 667 1119 l 608 1031 l 472 1111 z "},"":{"ha":881,"x_min":116,"x_max":823,"o":"m 823 0 l 116 0 l 116 976 l 813 976 l 813 803 l 304 803 l 304 577 l 710 577 l 710 415 l 304 415 l 304 172 l 823 172 l 823 0 z "},"":{"ha":881,"x_min":116,"x_max":823,"o":"m 823 0 l 116 0 l 116 976 l 813 976 l 813 803 l 304 803 l 304 577 l 710 577 l 710 415 l 304 415 l 304 172 l 823 172 l 823 0 z "},"":{"ha":881,"x_min":116,"x_max":823,"o":"m 823 0 l 116 0 l 116 976 l 813 976 l 813 803 l 304 803 l 304 577 l 710 577 l 710 415 l 304 415 l 304 172 l 823 172 l 823 0 m 472 1111 l 338 1031 l 278 1119 l 456 1240 l 490 1240 l 667 1119 l 608 1031 l 472 1111 z "},"":{"ha":881,"x_min":116,"x_max":823,"o":"m 823 0 l 116 0 l 116 976 l 813 976 l 813 803 l 304 803 l 304 577 l 710 577 l 710 415 l 304 415 l 304 172 l 823 172 l 823 0 z "},"":{"ha":881,"x_min":116,"x_max":823,"o":"m 823 0 l 116 0 l 116 976 l 813 976 l 813 803 l 304 803 l 304 577 l 710 577 l 710 415 l 304 415 l 304 172 l 823 172 l 823 0 z "},"":{"ha":881,"x_min":116,"x_max":823,"o":"m 823 0 l 116 0 l 116 976 l 813 976 l 813 803 l 304 803 l 304 577 l 710 577 l 710 415 l 304 415 l 304 172 l 823 172 l 823 0 z "},"":{"ha":881,"x_min":116,"x_max":823,"o":"m 823 0 l 116 0 l 116 976 l 813 976 l 813 803 l 304 803 l 304 577 l 710 577 l 710 415 l 304 415 l 304 172 l 823 172 l 823 0 m 447 1035 l 317 1035 l 171 1183 l 343 1183 l 447 1035 m 644 1034 l 514 1034 l 368 1183 l 540 1183 l 644 1034 z "},"":{"ha":881,"x_min":116,"x_max":823,"o":"m 823 0 l 116 0 l 116 976 l 813 976 l 813 803 l 304 803 l 304 577 l 710 577 l 710 415 l 304 415 l 304 172 l 823 172 l 823 0 z "},"":{"ha":881,"x_min":116,"x_max":823,"o":"m 823 0 l 116 0 l 116 976 l 813 976 l 813 803 l 304 803 l 304 577 l 710 577 l 710 415 l 304 415 l 304 172 l 823 172 l 823 0 z "},"":{"ha":881,"x_min":116,"x_max":823,"o":"m 823 0 l 116 0 l 116 976 l 813 976 l 813 803 l 304 803 l 304 577 l 710 577 l 710 415 l 304 415 l 304 172 l 823 172 l 823 0 z "},"":{"ha":881,"x_min":116,"x_max":823,"o":"m 823 0 l 116 0 l 116 976 l 813 976 l 813 803 l 304 803 l 304 577 l 710 577 l 710 415 l 304 415 l 304 172 l 823 172 l 823 0 m 548 1043 l 407 1043 l 249 1204 l 435 1204 l 548 1043 z "},"":{"ha":881,"x_min":116,"x_max":823,"o":"m 823 0 l 116 0 l 116 976 l 813 976 l 813 803 l 304 803 l 304 577 l 710 577 l 710 415 l 304 415 l 304 172 l 823 172 l 823 0 m 435 1047 q 456 1087 449 1072 q 462 1117 462 1103 q 442 1138 462 1138 q 398 1123 421 1138 l 383 1182 q 474 1213 428 1213 q 541 1197 515 1213 q 566 1153 566 1181 q 554 1108 566 1129 q 511 1047 542 1087 l 435 1047 z "},"":{"ha":881,"x_min":116,"x_max":823,"o":"m 823 0 l 116 0 l 116 976 l 813 976 l 813 803 l 304 803 l 304 577 l 710 577 l 710 415 l 304 415 l 304 172 l 823 172 l 823 0 m 474 1214 q 580 1191 537 1214 q 643 1127 622 1167 q 665 1037 665 1088 l 534 1037 q 474 1108 538 1108 q 426 1090 440 1108 q 413 1037 412 1072 l 282 1037 q 304 1127 283 1087 q 368 1191 325 1167 q 474 1214 410 1214 z "},"":{"ha":881,"x_min":116,"x_max":823,"o":"m 823 0 l 116 0 l 116 976 l 813 976 l 813 803 l 304 803 l 304 577 l 710 577 l 710 415 l 304 415 l 304 172 l 823 172 l 823 0 z "},"":{"ha":881,"x_min":116,"x_max":823,"o":"m 823 0 l 116 0 l 116 976 l 813 976 l 813 803 l 304 803 l 304 577 l 710 577 l 710 415 l 304 415 l 304 172 l 823 172 l 823 0 m 670 1363 l 512 1202 l 371 1202 l 483 1363 l 670 1363 z "},"":{"ha":881,"x_min":116,"x_max":823,"o":"m 823 0 l 116 0 l 116 976 l 813 976 l 813 803 l 304 803 l 304 577 l 710 577 l 710 415 l 304 415 l 304 172 l 823 172 l 823 0 m 550 1202 l 409 1202 l 251 1363 l 438 1363 l 550 1202 z "},"":{"ha":881,"x_min":116,"x_max":854,"o":"m 823 0 l 116 0 l 116 976 l 813 976 l 813 803 l 304 803 l 304 577 l 710 577 l 710 415 l 304 415 l 304 172 l 823 172 l 823 0 m 823 0 q 769 -57 787 -29 q 751 -109 751 -85 q 764 -143 751 -130 q 801 -156 777 -156 q 845 -151 819 -156 l 854 -236 q 810 -251 831 -247 q 760 -255 790 -255 q 658 -225 690 -255 q 625 -147 625 -194 q 650 -67 625 -107 q 706 0 674 -27 l 823 0 z "},"":{"ha":881,"x_min":116,"x_max":823,"o":"m 823 0 l 116 0 l 116 976 l 813 976 l 813 803 l 304 803 l 304 577 l 710 577 l 710 415 l 304 415 l 304 172 l 823 172 l 823 0 z "},"":{"ha":881,"x_min":116,"x_max":823,"o":"m 823 0 l 116 0 l 116 976 l 813 976 l 813 803 l 304 803 l 304 577 l 710 577 l 710 415 l 304 415 l 304 172 l 823 172 l 823 0 z "},"":{"ha":810,"x_min":116,"x_max":776,"o":"m 304 0 l 116 0 l 116 976 l 776 976 l 776 806 l 304 806 l 304 528 l 672 528 l 672 367 l 304 367 l 304 0 z "},"":{"ha":967,"x_min":59,"x_max":897,"o":"m 718 446 l 897 446 l 897 92 q 743 11 830 40 q 564 -17 656 -17 q 309 50 424 -17 q 126 234 193 118 q 59 490 59 351 q 126 744 59 628 q 309 926 193 859 q 564 994 424 994 q 742 962 657 994 q 892 874 826 931 l 782 731 q 680 791 737 768 q 564 813 624 813 q 408 770 480 813 q 292 653 335 727 q 249 489 249 578 q 292 323 249 399 q 408 203 335 247 q 564 159 481 159 q 718 191 646 159 l 718 446 m 762 1204 l 603 1043 l 463 1043 l 575 1204 l 762 1204 z "},"":{"ha":967,"x_min":59,"x_max":897,"o":"m 718 446 l 897 446 l 897 92 q 743 11 830 40 q 564 -17 656 -17 q 309 50 424 -17 q 126 234 193 118 q 59 490 59 351 q 126 744 59 628 q 309 926 193 859 q 564 994 424 994 q 742 962 657 994 q 892 874 826 931 l 782 731 q 680 791 737 768 q 564 813 624 813 q 408 770 480 813 q 292 653 335 727 q 249 489 249 578 q 292 323 249 399 q 408 203 335 247 q 564 159 481 159 q 718 191 646 159 l 718 446 m 567 1040 q 461 1064 503 1040 q 397 1127 418 1087 q 375 1217 376 1167 l 506 1217 q 519 1164 505 1183 q 567 1146 533 1146 q 627 1217 631 1146 l 758 1217 q 736 1127 758 1167 q 673 1064 715 1087 q 567 1040 630 1040 z "},"":{"ha":967,"x_min":59,"x_max":897,"o":"m 718 446 l 897 446 l 897 92 q 743 11 830 40 q 564 -17 656 -17 q 309 50 424 -17 q 126 234 193 118 q 59 490 59 351 q 126 744 59 628 q 309 926 193 859 q 564 994 424 994 q 742 962 657 994 q 892 874 826 931 l 782 731 q 680 791 737 768 q 564 813 624 813 q 408 770 480 813 q 292 653 335 727 q 249 489 249 578 q 292 323 249 399 q 408 203 335 247 q 564 159 481 159 q 718 191 646 159 l 718 446 m 374 1167 l 434 1256 l 569 1175 l 704 1256 l 763 1167 l 587 1045 l 552 1045 l 374 1167 z "},"":{"ha":967,"x_min":59,"x_max":897,"o":"m 718 446 l 897 446 l 897 92 q 743 11 830 40 q 564 -17 656 -17 q 309 50 424 -17 q 126 234 193 118 q 59 490 59 351 q 126 744 59 628 q 309 926 193 859 q 564 994 424 994 q 742 962 657 994 q 892 874 826 931 l 782 731 q 680 791 737 768 q 564 813 624 813 q 408 770 480 813 q 292 653 335 727 q 249 489 249 578 q 292 323 249 399 q 408 203 335 247 q 564 159 481 159 q 718 191 646 159 l 718 446 m 565 1111 l 431 1031 l 371 1119 l 549 1240 l 583 1240 l 760 1119 l 701 1031 l 565 1111 z "},"":{"ha":967,"x_min":59,"x_max":897,"o":"m 718 446 l 897 446 l 897 92 q 743 11 830 40 q 564 -17 656 -17 q 309 50 424 -17 q 126 234 193 118 q 59 490 59 351 q 126 744 59 628 q 309 926 193 859 q 564 994 424 994 q 742 962 657 994 q 892 874 826 931 l 782 731 q 680 791 737 768 q 564 813 624 813 q 408 770 480 813 q 292 653 335 727 q 249 489 249 578 q 292 323 249 399 q 408 203 335 247 q 564 159 481 159 q 718 191 646 159 l 718 446 m 522 -278 q 577 -199 577 -229 l 577 -196 q 535 -178 552 -196 q 518 -136 518 -160 q 537 -92 518 -109 q 584 -75 556 -75 q 631 -93 612 -75 q 649 -148 649 -111 q 561 -315 649 -239 l 522 -278 z "},"":{"ha":967,"x_min":59,"x_max":897,"o":"m 718 446 l 897 446 l 897 92 q 743 11 830 40 q 564 -17 656 -17 q 309 50 424 -17 q 126 234 193 118 q 59 490 59 351 q 126 744 59 628 q 309 926 193 859 q 564 994 424 994 q 742 962 657 994 q 892 874 826 931 l 782 731 q 680 791 737 768 q 564 813 624 813 q 408 770 480 813 q 292 653 335 727 q 249 489 249 578 q 292 323 249 399 q 408 203 335 247 q 564 159 481 159 q 718 191 646 159 l 718 446 z "},"":{"ha":967,"x_min":59,"x_max":897,"o":"m 718 446 l 897 446 l 897 92 q 743 11 830 40 q 564 -17 656 -17 q 309 50 424 -17 q 126 234 193 118 q 59 490 59 351 q 126 744 59 628 q 309 926 193 859 q 564 994 424 994 q 742 962 657 994 q 892 874 826 931 l 782 731 q 680 791 737 768 q 564 813 624 813 q 408 770 480 813 q 292 653 335 727 q 249 489 249 578 q 292 323 249 399 q 408 203 335 247 q 564 159 481 159 q 718 191 646 159 l 718 446 z "},"":{"ha":1066,"x_min":58,"x_max":1013,"o":"m 949 863 l 1013 863 l 1013 740 l 949 740 l 949 0 l 761 0 l 761 415 l 304 415 l 304 0 l 116 0 l 116 740 l 58 740 l 58 863 l 116 863 l 116 976 l 304 976 l 304 863 l 761 863 l 761 976 l 949 976 l 949 863 m 304 595 l 761 595 l 761 740 l 304 740 l 304 595 z "},"":{"ha":1066,"x_min":116,"x_max":949,"o":"m 304 0 l 116 0 l 116 976 l 304 976 l 304 595 l 761 595 l 761 976 l 949 976 l 949 0 l 761 0 l 761 415 l 304 415 l 304 0 z "},"":{"ha":1066,"x_min":116,"x_max":949,"o":"m 304 0 l 116 0 l 116 976 l 304 976 l 304 595 l 761 595 l 761 976 l 949 976 l 949 0 l 761 0 l 761 415 l 304 415 l 304 0 m 343 1167 l 403 1256 l 538 1175 l 673 1256 l 732 1167 l 556 1045 l 521 1045 l 343 1167 z "},"":{"ha":1066,"x_min":116,"x_max":949,"o":"m 761 976 l 949 976 l 949 0 l 761 0 l 761 415 l 304 415 l 304 0 l 288 0 q 328 -73 312 -35 q 345 -144 345 -111 q 329 -207 345 -180 q 270 -252 313 -233 q 147 -276 226 -270 l 131 -181 q 186 -168 168 -176 q 210 -150 205 -160 q 215 -125 215 -140 q 203 -72 215 -101 q 163 0 190 -44 l 116 0 l 116 976 l 304 976 l 304 595 l 761 595 l 761 976 z "},"":{"ha":1066,"x_min":116,"x_max":949,"o":"m 304 0 l 116 0 l 116 976 l 304 976 l 304 595 l 761 595 l 761 976 l 949 976 l 949 0 l 761 0 l 761 415 l 304 415 l 304 0 m 535 1111 l 400 1031 l 340 1119 l 518 1240 l 553 1240 l 729 1119 l 670 1031 l 535 1111 z "},"":{"ha":1066,"x_min":116,"x_max":949,"o":"m 304 0 l 116 0 l 116 976 l 304 976 l 304 595 l 761 595 l 761 976 l 949 976 l 949 0 l 761 0 l 761 415 l 304 415 l 304 0 z "},"":{"ha":1066,"x_min":116,"x_max":949,"o":"m 304 0 l 116 0 l 116 976 l 304 976 l 304 595 l 761 595 l 761 976 l 949 976 l 949 0 l 761 0 l 761 415 l 304 415 l 304 0 z "},"":{"ha":1066,"x_min":116,"x_max":949,"o":"m 304 0 l 116 0 l 116 976 l 304 976 l 304 595 l 761 595 l 761 976 l 949 976 l 949 0 l 761 0 l 761 415 l 304 415 l 304 0 z "},"":{"ha":1055,"x_min":116,"x_max":961,"o":"m 304 0 l 116 0 l 116 976 l 304 976 l 304 0 m 666 -19 q 548 9 610 -19 q 432 87 485 37 l 535 221 q 602 177 569 193 q 665 162 636 162 q 744 194 715 162 q 774 286 774 226 l 774 976 l 961 976 l 961 274 q 925 118 961 184 q 823 16 890 52 q 666 -19 756 -19 z "},"":{"ha":420,"x_min":101,"x_max":401,"o":"m 304 0 l 116 0 l 116 976 l 304 976 l 304 0 m 401 1204 l 242 1043 l 101 1043 l 214 1204 l 401 1204 z "},"":{"ha":420,"x_min":14,"x_max":397,"o":"m 304 0 l 116 0 l 116 976 l 304 976 l 304 0 m 206 1040 q 100 1064 142 1040 q 36 1127 57 1087 q 14 1217 15 1167 l 145 1217 q 158 1164 144 1183 q 206 1146 172 1146 q 266 1217 269 1146 l 397 1217 q 375 1127 397 1167 q 311 1064 354 1087 q 206 1040 269 1040 z "},"":{"ha":420,"x_min":13,"x_max":402,"o":"m 304 0 l 116 0 l 116 976 l 304 976 l 304 0 m 13 1167 l 73 1256 l 208 1175 l 343 1256 l 402 1167 l 226 1045 l 191 1045 l 13 1167 z "},"":{"ha":420,"x_min":10,"x_max":399,"o":"m 304 0 l 116 0 l 116 976 l 304 976 l 304 0 m 204 1111 l 69 1031 l 10 1119 l 188 1240 l 222 1240 l 399 1119 l 340 1031 l 204 1111 z "},"":{"ha":420,"x_min":-97,"x_max":376,"o":"m 304 0 l 116 0 l 116 976 l 304 976 l 304 0 m 178 1035 l 49 1035 l -97 1183 l 75 1183 l 178 1035 m 376 1034 l 246 1034 l 100 1183 l 272 1183 l 376 1034 z "},"":{"ha":420,"x_min":-21,"x_max":429,"o":"m 304 0 l 116 0 l 116 976 l 304 976 l 304 0 z "},"":{"ha":420,"x_min":-21,"x_max":429,"o":"m 304 0 l 116 0 l 116 976 l 304 976 l 304 0 m 401 1400 l 242 1239 l 101 1239 l 214 1400 l 401 1400 z "},"":{"ha":420,"x_min":116,"x_max":304,"o":"m 304 0 l 116 0 l 116 976 l 304 976 l 304 0 z "},"":{"ha":420,"x_min":116,"x_max":304,"o":"m 304 0 l 116 0 l 116 976 l 304 976 l 304 0 z "},"":{"ha":420,"x_min":-19,"x_max":304,"o":"m 304 0 l 116 0 l 116 976 l 304 976 l 304 0 m 281 1043 l 140 1043 l -19 1204 l 168 1204 l 281 1043 z "},"":{"ha":420,"x_min":115,"x_max":304,"o":"m 304 0 l 116 0 l 116 976 l 304 976 l 304 0 m 167 1047 q 188 1087 181 1072 q 194 1117 194 1103 q 174 1138 194 1138 q 130 1123 153 1138 l 115 1182 q 206 1213 160 1213 q 273 1197 247 1213 q 298 1153 298 1181 q 286 1108 298 1129 q 243 1047 274 1087 l 167 1047 z "},"":{"ha":420,"x_min":14,"x_max":397,"o":"m 304 0 l 116 0 l 116 976 l 304 976 l 304 0 m 206 1214 q 311 1191 269 1214 q 375 1127 354 1167 q 397 1037 397 1088 l 266 1037 q 206 1108 269 1108 q 158 1090 172 1108 q 145 1037 144 1072 l 14 1037 q 36 1127 15 1087 q 100 1191 57 1167 q 206 1214 142 1214 z "},"":{"ha":420,"x_min":30,"x_max":387,"o":"m 304 0 l 116 0 l 116 976 l 304 976 l 304 0 z "},"":{"ha":420,"x_min":106,"x_max":335,"o":"m 304 0 l 116 0 l 116 976 l 304 976 l 304 0 m 304 0 q 250 -57 268 -29 q 232 -109 232 -85 q 245 -143 232 -130 q 282 -156 258 -156 q 326 -151 301 -156 l 335 -236 q 292 -251 313 -247 q 242 -255 271 -255 q 139 -225 172 -255 q 106 -147 106 -194 q 131 -67 106 -107 q 188 0 156 -27 l 304 0 z "},"":{"ha":420,"x_min":-2,"x_max":409,"o":"m 304 0 l 116 0 l 116 976 l 304 976 l 304 0 z "},"":{"ha":420,"x_min":13,"x_max":424,"o":"m 304 0 l 116 0 l 116 976 l 304 976 l 304 0 z "},"":{"ha":634,"x_min":12,"x_max":640,"o":"m 246 -19 q 127 9 190 -19 q 12 87 65 37 l 115 221 q 182 177 149 193 q 244 162 216 162 q 324 194 295 162 q 353 286 353 226 l 353 976 l 541 976 l 541 274 q 505 118 541 184 q 403 16 469 52 q 246 -19 336 -19 m 446 1111 l 311 1031 l 251 1119 l 429 1240 l 464 1240 l 640 1119 l 581 1031 l 446 1111 z "},"":{"ha":992,"x_min":116,"x_max":976,"o":"m 976 0 l 751 0 l 447 430 l 304 266 l 304 0 l 116 0 l 116 976 l 304 976 l 304 522 l 692 976 l 922 976 l 570 572 l 976 0 m 685 1204 l 526 1043 l 385 1043 l 498 1204 l 685 1204 z "},"":{"ha":992,"x_min":116,"x_max":976,"o":"m 976 0 l 751 0 l 447 430 l 304 266 l 304 0 l 116 0 l 116 976 l 304 976 l 304 522 l 692 976 l 922 976 l 570 572 l 976 0 m 297 1167 l 356 1256 l 491 1175 l 626 1256 l 685 1167 l 509 1045 l 474 1045 l 297 1167 z "},"":{"ha":992,"x_min":116,"x_max":976,"o":"m 976 0 l 751 0 l 447 430 l 304 266 l 304 0 l 116 0 l 116 976 l 304 976 l 304 522 l 692 976 l 922 976 l 570 572 l 976 0 m 431 -269 q 485 -190 485 -220 l 485 -187 q 443 -169 460 -187 q 426 -127 426 -151 q 445 -83 426 -100 q 492 -66 464 -66 q 539 -84 520 -66 q 558 -139 558 -102 q 469 -306 558 -230 l 431 -269 z "},"":{"ha":992,"x_min":116,"x_max":976,"o":"m 976 0 l 751 0 l 447 430 l 304 266 l 304 0 l 116 0 l 116 976 l 304 976 l 304 522 l 692 976 l 922 976 l 570 572 l 976 0 z "},"":{"ha":992,"x_min":116,"x_max":976,"o":"m 976 0 l 751 0 l 447 430 l 304 266 l 304 0 l 116 0 l 116 976 l 304 976 l 304 522 l 692 976 l 922 976 l 570 572 l 976 0 z "},"":{"ha":1438,"x_min":116,"x_max":1344,"o":"m 756 0 l 116 0 l 116 976 l 304 976 l 304 180 l 756 180 l 756 0 m 1049 -19 q 931 9 993 -19 q 815 87 869 37 l 919 221 q 986 177 952 193 q 1048 162 1019 162 q 1128 194 1099 162 q 1157 286 1157 226 l 1157 976 l 1344 976 l 1344 274 q 1309 118 1344 184 q 1206 16 1273 52 q 1049 -19 1140 -19 z "},"":{"ha":794,"x_min":103,"x_max":756,"o":"m 756 0 l 116 0 l 116 976 l 304 976 l 304 180 l 756 180 l 756 0 m 403 1204 l 244 1043 l 103 1043 l 216 1204 l 403 1204 z "},"":{"ha":794,"x_min":116,"x_max":756,"o":"m 756 0 l 116 0 l 116 976 l 304 976 l 304 180 l 756 180 l 756 0 m 694 717 l 585 717 l 573 976 l 708 976 l 694 717 z "},"":{"ha":794,"x_min":116,"x_max":756,"o":"m 756 0 l 116 0 l 116 976 l 304 976 l 304 180 l 756 180 l 756 0 z "},"":{"ha":794,"x_min":116,"x_max":756,"o":"m 756 0 l 116 0 l 116 976 l 304 976 l 304 180 l 756 180 l 756 0 m 317 -269 q 372 -190 372 -220 l 372 -187 q 330 -169 347 -187 q 313 -127 313 -151 q 331 -83 313 -100 q 378 -66 350 -66 q 425 -84 406 -66 q 444 -139 444 -102 q 356 -306 444 -230 l 317 -269 z "},"":{"ha":794,"x_min":116,"x_max":756,"o":"m 756 0 l 116 0 l 116 976 l 304 976 l 304 180 l 756 180 l 756 0 m 543 415 q 475 441 501 415 q 449 504 449 467 q 475 567 449 542 q 543 593 501 593 q 611 567 585 593 q 638 504 638 542 q 612 440 638 466 q 543 415 585 415 z "},"":{"ha":794,"x_min":116,"x_max":756,"o":"m 756 0 l 116 0 l 116 976 l 304 976 l 304 180 l 756 180 l 756 0 z "},"":{"ha":794,"x_min":32,"x_max":756,"o":"m 756 0 l 116 0 l 116 976 l 304 976 l 304 180 l 756 180 l 756 0 z "},"":{"ha":1163,"x_min":116,"x_max":1092,"o":"m 756 0 l 116 0 l 116 976 l 304 976 l 304 180 l 756 180 l 756 0 m 981 852 q 924 867 949 852 q 884 906 899 882 q 870 958 870 931 q 884 1009 870 985 q 924 1049 899 1034 q 981 1065 949 1065 q 1039 1049 1013 1065 q 1078 1009 1064 1034 q 1092 958 1092 985 q 1078 906 1092 931 q 1039 867 1064 882 q 981 852 1013 852 m 771 -262 l 771 -106 l 783 -106 q 865 -76 838 -106 q 891 14 891 -46 l 891 728 l 1067 728 l 1067 18 q 999 -190 1067 -117 q 805 -262 931 -262 l 771 -262 z "},"":{"ha":794,"x_min":116,"x_max":756,"o":"m 756 0 l 116 0 l 116 976 l 304 976 l 304 180 l 756 180 l 756 0 z "},"":{"ha":794,"x_min":-19,"x_max":756,"o":"m 304 460 l 304 180 l 756 180 l 756 0 l 116 0 l 116 366 l 28 323 l -19 415 l 116 482 l 116 976 l 304 976 l 304 575 l 449 647 l 497 555 l 304 460 z "},"":{"ha":1244,"x_min":57,"x_max":1188,"o":"m 247 0 l 57 0 l 176 976 l 388 976 l 622 263 l 856 976 l 1068 976 l 1188 -1 l 997 -1 l 926 674 l 705 0 l 542 0 l 320 674 l 247 0 m 813 1204 l 655 1043 l 514 1043 l 626 1204 l 813 1204 z "},"":{"ha":1244,"x_min":57,"x_max":1188,"o":"m 247 0 l 57 0 l 176 976 l 388 976 l 622 263 l 856 976 l 1068 976 l 1188 -1 l 997 -1 l 926 674 l 705 0 l 542 0 l 320 674 l 247 0 z "},"":{"ha":1244,"x_min":57,"x_max":1188,"o":"m 247 0 l 57 0 l 176 976 l 388 976 l 622 263 l 856 976 l 1068 976 l 1188 -1 l 997 -1 l 926 674 l 705 0 l 542 0 l 320 674 l 247 0 z "},"":{"ha":1703,"x_min":116,"x_max":1610,"o":"m 301 0 l 116 0 l 116 976 l 306 976 l 768 316 l 768 976 l 953 976 l 953 0 l 778 0 l 301 679 l 301 0 m 1315 -19 q 1196 9 1258 -19 q 1081 87 1134 37 l 1184 221 q 1251 177 1217 193 q 1313 162 1285 162 q 1393 194 1364 162 q 1422 286 1422 226 l 1422 976 l 1610 976 l 1610 274 q 1574 118 1610 184 q 1472 16 1538 52 q 1315 -19 1405 -19 z "},"":{"ha":1069,"x_min":116,"x_max":953,"o":"m 301 0 l 116 0 l 116 976 l 306 976 l 768 316 l 768 976 l 953 976 l 953 0 l 778 0 l 301 679 l 301 0 m 726 1204 l 567 1043 l 426 1043 l 539 1204 l 726 1204 z "},"":{"ha":1069,"x_min":116,"x_max":953,"o":"m 301 0 l 116 0 l 116 976 l 306 976 l 768 316 l 768 976 l 953 976 l 953 0 l 778 0 l 301 679 l 301 0 m 338 1167 l 397 1256 l 532 1175 l 667 1256 l 726 1167 l 550 1045 l 515 1045 l 338 1167 z "},"":{"ha":1069,"x_min":116,"x_max":953,"o":"m 301 0 l 116 0 l 116 976 l 306 976 l 768 316 l 768 976 l 953 976 l 953 0 l 778 0 l 301 679 l 301 0 z "},"":{"ha":1069,"x_min":116,"x_max":953,"o":"m 301 0 l 116 0 l 116 976 l 306 976 l 768 316 l 768 976 l 953 976 l 953 0 l 778 0 l 301 679 l 301 0 m 483 -269 q 538 -190 538 -220 l 538 -187 q 496 -169 513 -187 q 479 -127 479 -151 q 498 -83 479 -100 q 545 -66 517 -66 q 592 -84 573 -66 q 610 -139 610 -102 q 522 -306 610 -230 l 483 -269 z "},"":{"ha":1069,"x_min":116,"x_max":953,"o":"m 301 0 l 116 0 l 116 976 l 306 976 l 768 316 l 768 976 l 953 976 l 953 0 l 778 0 l 301 679 l 301 0 z "},"":{"ha":1069,"x_min":116,"x_max":953,"o":"m 301 0 l 116 0 l 116 976 l 306 976 l 768 316 l 768 976 l 953 976 l 953 0 l 778 0 l 301 679 l 301 0 z "},"":{"ha":1069,"x_min":116,"x_max":953,"o":"m 301 0 l 116 0 l 116 976 l 306 976 l 768 316 l 768 976 l 953 976 l 953 0 l 778 0 l 301 679 l 301 0 m 605 1043 l 464 1043 l 306 1204 l 492 1204 l 605 1043 z "},"":{"ha":1069,"x_min":116,"x_max":953,"o":"m 768 976 l 953 976 l 953 -13 q 885 -212 953 -143 q 690 -281 817 -281 l 656 -281 l 656 -124 l 669 -124 q 745 -95 722 -124 q 769 -8 769 -67 l 769 12 l 301 679 l 301 0 l 116 0 l 116 976 l 306 976 l 768 316 l 768 976 z "},"":{"ha":1069,"x_min":9,"x_max":953,"o":"m 768 976 l 953 976 l 953 0 l 778 0 l 301 679 l 301 102 l 301 102 l 301 -13 q 234 -212 301 -143 q 43 -281 167 -281 l 9 -281 l 9 -124 l 22 -124 q 97 -95 73 -124 q 121 -8 121 -67 l 121 0 l 116 0 l 116 976 l 306 976 l 768 316 l 768 976 z "},"":{"ha":1440,"x_min":116,"x_max":1368,"o":"m 301 0 l 116 0 l 116 976 l 306 976 l 768 316 l 768 976 l 953 976 l 953 0 l 778 0 l 301 679 l 301 0 m 1257 852 q 1200 867 1225 852 q 1160 906 1174 882 q 1146 958 1146 931 q 1160 1009 1146 985 q 1200 1049 1174 1034 q 1257 1065 1225 1065 q 1314 1049 1289 1065 q 1354 1009 1340 1034 q 1368 958 1368 985 q 1354 906 1368 931 q 1314 867 1340 882 q 1257 852 1289 852 m 1047 -262 l 1047 -106 l 1059 -106 q 1140 -76 1114 -106 q 1167 14 1167 -46 l 1167 728 l 1343 728 l 1343 18 q 1275 -190 1343 -117 q 1081 -262 1207 -262 l 1047 -262 z "},"":{"ha":1069,"x_min":116,"x_max":953,"o":"m 301 0 l 116 0 l 116 976 l 306 976 l 768 316 l 768 976 l 953 976 l 953 0 l 778 0 l 301 679 l 301 0 z "},"":{"ha":1069,"x_min":116,"x_max":953,"o":"m 301 0 l 116 0 l 116 976 l 306 976 l 768 316 l 768 976 l 953 976 l 953 0 l 778 0 l 301 679 l 301 0 z "},"":{"ha":1128,"x_min":59,"x_max":1069,"o":"m 564 -17 q 309 51 424 -17 q 126 234 193 118 q 59 489 59 350 q 126 744 59 628 q 309 926 193 859 q 564 993 424 993 q 819 926 703 993 q 1002 744 935 859 q 1069 489 1069 628 q 1002 234 1069 350 q 819 51 935 118 q 564 -17 703 -17 m 564 164 q 720 207 649 164 q 835 324 792 250 q 878 488 878 399 q 835 653 878 578 q 720 770 792 727 q 564 813 648 813 q 408 769 480 813 q 293 652 335 726 q 250 488 250 578 q 293 324 250 399 q 408 207 335 250 q 564 164 480 164 m 760 1208 l 601 1047 l 460 1047 l 573 1208 l 760 1208 z "},"":{"ha":1128,"x_min":59,"x_max":1069,"o":"m 564 -17 q 309 51 424 -17 q 126 234 193 118 q 59 489 59 350 q 126 744 59 628 q 309 926 193 859 q 564 993 424 993 q 819 926 703 993 q 1002 744 935 859 q 1069 489 1069 628 q 1002 234 1069 350 q 819 51 935 118 q 564 -17 703 -17 m 564 164 q 720 207 649 164 q 835 324 792 250 q 878 488 878 399 q 835 653 878 578 q 720 770 792 727 q 564 813 648 813 q 408 769 480 813 q 293 652 335 726 q 250 488 250 578 q 293 324 250 399 q 408 207 335 250 q 564 164 480 164 m 565 1044 q 459 1068 501 1044 q 395 1131 416 1091 q 373 1222 374 1172 l 504 1222 q 517 1168 503 1187 q 565 1150 531 1150 q 625 1222 628 1150 l 756 1222 q 734 1131 756 1171 q 670 1068 713 1091 q 565 1044 628 1044 z "},"":{"ha":1128,"x_min":59,"x_max":1069,"o":"m 564 -17 q 309 51 424 -17 q 126 234 193 118 q 59 489 59 350 q 126 744 59 628 q 309 926 193 859 q 564 993 424 993 q 819 926 703 993 q 1002 744 935 859 q 1069 489 1069 628 q 1002 234 1069 350 q 819 51 935 118 q 564 -17 703 -17 m 564 164 q 720 207 649 164 q 835 324 792 250 q 878 488 878 399 q 835 653 878 578 q 720 770 792 727 q 564 813 648 813 q 408 769 480 813 q 293 652 335 726 q 250 488 250 578 q 293 324 250 399 q 408 207 335 250 q 564 164 480 164 m 372 1171 l 432 1260 l 567 1179 l 702 1260 l 761 1171 l 585 1049 l 550 1049 l 372 1171 z "},"":{"ha":1128,"x_min":59,"x_max":1069,"o":"m 564 -17 q 309 51 424 -17 q 126 234 193 118 q 59 489 59 350 q 126 744 59 628 q 309 926 193 859 q 564 993 424 993 q 819 926 703 993 q 1002 744 935 859 q 1069 489 1069 628 q 1002 234 1069 350 q 819 51 935 118 q 564 -17 703 -17 m 564 164 q 720 207 649 164 q 835 324 792 250 q 878 488 878 399 q 835 653 878 578 q 720 770 792 727 q 564 813 648 813 q 408 769 480 813 q 293 652 335 726 q 250 488 250 578 q 293 324 250 399 q 408 207 335 250 q 564 164 480 164 m 564 1115 l 429 1035 l 369 1124 l 547 1244 l 582 1244 l 758 1124 l 699 1035 l 564 1115 z "},"":{"ha":1128,"x_min":59,"x_max":1069,"o":"m 564 -17 q 309 51 424 -17 q 126 234 193 118 q 59 489 59 350 q 126 744 59 628 q 309 926 193 859 q 564 993 424 993 q 819 926 703 993 q 1002 744 935 859 q 1069 489 1069 628 q 1002 234 1069 350 q 819 51 935 118 q 564 -17 703 -17 m 564 164 q 720 207 649 164 q 835 324 792 250 q 878 488 878 399 q 835 653 878 578 q 720 770 792 727 q 564 813 648 813 q 408 769 480 813 q 293 652 335 726 q 250 488 250 578 q 293 324 250 399 q 408 207 335 250 q 564 164 480 164 z "},"":{"ha":1128,"x_min":59,"x_max":1069,"o":"m 564 -17 q 309 51 424 -17 q 126 234 193 118 q 59 489 59 350 q 126 744 59 628 q 309 926 193 859 q 564 993 424 993 q 819 926 703 993 q 1002 744 935 859 q 1069 489 1069 628 q 1002 234 1069 350 q 819 51 935 118 q 564 -17 703 -17 m 564 164 q 720 207 649 164 q 835 324 792 250 q 878 488 878 399 q 835 653 878 578 q 720 770 792 727 q 564 813 648 813 q 408 769 480 813 q 293 652 335 726 q 250 488 250 578 q 293 324 250 399 q 408 207 335 250 q 564 164 480 164 m 564 1115 l 429 1035 l 369 1124 l 547 1244 l 582 1244 l 758 1124 l 699 1035 l 564 1115 z "},"":{"ha":1128,"x_min":59,"x_max":1069,"o":"m 564 -17 q 309 51 424 -17 q 126 234 193 118 q 59 489 59 350 q 126 744 59 628 q 309 926 193 859 q 564 993 424 993 q 819 926 703 993 q 1002 744 935 859 q 1069 489 1069 628 q 1002 234 1069 350 q 819 51 935 118 q 564 -17 703 -17 m 564 164 q 720 207 649 164 q 835 324 792 250 q 878 488 878 399 q 835 653 878 578 q 720 770 792 727 q 564 813 648 813 q 408 769 480 813 q 293 652 335 726 q 250 488 250 578 q 293 324 250 399 q 408 207 335 250 q 564 164 480 164 z "},"":{"ha":1128,"x_min":59,"x_max":1069,"o":"m 564 -17 q 309 51 424 -17 q 126 234 193 118 q 59 489 59 350 q 126 744 59 628 q 309 926 193 859 q 564 993 424 993 q 819 926 703 993 q 1002 744 935 859 q 1069 489 1069 628 q 1002 234 1069 350 q 819 51 935 118 q 564 -17 703 -17 m 564 164 q 720 207 649 164 q 835 324 792 250 q 878 488 878 399 q 835 653 878 578 q 720 770 792 727 q 564 813 648 813 q 408 769 480 813 q 293 652 335 726 q 250 488 250 578 q 293 324 250 399 q 408 207 335 250 q 564 164 480 164 z "},"":{"ha":1128,"x_min":59,"x_max":1069,"o":"m 564 -17 q 309 51 424 -17 q 126 234 193 118 q 59 489 59 350 q 126 744 59 628 q 309 926 193 859 q 564 993 424 993 q 819 926 703 993 q 1002 744 935 859 q 1069 489 1069 628 q 1002 234 1069 350 q 819 51 935 118 q 564 -17 703 -17 m 564 164 q 720 207 649 164 q 835 324 792 250 q 878 488 878 399 q 835 653 878 578 q 720 770 792 727 q 564 813 648 813 q 408 769 480 813 q 293 652 335 726 q 250 488 250 578 q 293 324 250 399 q 408 207 335 250 q 564 164 480 164 z "},"":{"ha":1128,"x_min":59,"x_max":1069,"o":"m 564 -17 q 309 51 424 -17 q 126 234 193 118 q 59 489 59 350 q 126 744 59 628 q 309 926 193 859 q 564 993 424 993 q 819 926 703 993 q 1002 744 935 859 q 1069 489 1069 628 q 1002 234 1069 350 q 819 51 935 118 q 564 -17 703 -17 m 564 164 q 720 207 649 164 q 835 324 792 250 q 878 488 878 399 q 835 653 878 578 q 720 770 792 727 q 564 813 648 813 q 408 769 480 813 q 293 652 335 726 q 250 488 250 578 q 293 324 250 399 q 408 207 335 250 q 564 164 480 164 m 538 1039 l 409 1039 l 263 1188 l 435 1188 l 538 1039 m 735 1038 l 606 1038 l 460 1187 l 631 1187 l 735 1038 z "},"":{"ha":1128,"x_min":59,"x_max":1069,"o":"m 564 -17 q 309 51 424 -17 q 126 234 193 118 q 59 489 59 350 q 126 744 59 628 q 309 926 193 859 q 564 993 424 993 q 819 926 703 993 q 1002 744 935 859 q 1069 489 1069 628 q 1002 234 1069 350 q 819 51 935 118 q 564 -17 703 -17 m 564 164 q 720 207 649 164 q 835 324 792 250 q 878 488 878 399 q 835 653 878 578 q 720 770 792 727 q 564 813 648 813 q 408 769 480 813 q 293 652 335 726 q 250 488 250 578 q 293 324 250 399 q 408 207 335 250 q 564 164 480 164 z "},"":{"ha":1128,"x_min":59,"x_max":1069,"o":"m 564 -17 q 309 51 424 -17 q 126 234 193 118 q 59 489 59 350 q 126 744 59 628 q 309 926 193 859 q 564 993 424 993 q 819 926 703 993 q 1002 744 935 859 q 1069 489 1069 628 q 1002 234 1069 350 q 819 51 935 118 q 564 -17 703 -17 m 564 164 q 720 207 649 164 q 835 324 792 250 q 878 488 878 399 q 835 653 878 578 q 720 770 792 727 q 564 813 648 813 q 408 769 480 813 q 293 652 335 726 q 250 488 250 578 q 293 324 250 399 q 408 207 335 250 q 564 164 480 164 z "},"":{"ha":1128,"x_min":59,"x_max":1069,"o":"m 564 -17 q 309 51 424 -17 q 126 234 193 118 q 59 489 59 350 q 126 744 59 628 q 309 926 193 859 q 564 993 424 993 q 819 926 703 993 q 1002 744 935 859 q 1069 489 1069 628 q 1002 234 1069 350 q 819 51 935 118 q 564 -17 703 -17 m 564 164 q 720 207 649 164 q 835 324 792 250 q 878 488 878 399 q 835 653 878 578 q 720 770 792 727 q 564 813 648 813 q 408 769 480 813 q 293 652 335 726 q 250 488 250 578 q 293 324 250 399 q 408 207 335 250 q 564 164 480 164 z "},"":{"ha":1128,"x_min":59,"x_max":1069,"o":"m 564 -17 q 309 51 424 -17 q 126 234 193 118 q 59 489 59 350 q 126 744 59 628 q 309 926 193 859 q 564 993 424 993 q 819 926 703 993 q 1002 744 935 859 q 1069 489 1069 628 q 1002 234 1069 350 q 819 51 935 118 q 564 -17 703 -17 m 564 164 q 720 207 649 164 q 835 324 792 250 q 878 488 878 399 q 835 653 878 578 q 720 770 792 727 q 564 813 648 813 q 408 769 480 813 q 293 652 335 726 q 250 488 250 578 q 293 324 250 399 q 408 207 335 250 q 564 164 480 164 z "},"":{"ha":1128,"x_min":59,"x_max":1069,"o":"m 564 -17 q 309 51 424 -17 q 126 234 193 118 q 59 489 59 350 q 126 744 59 628 q 309 926 193 859 q 564 993 424 993 q 819 926 703 993 q 1002 744 935 859 q 1069 489 1069 628 q 1002 234 1069 350 q 819 51 935 118 q 564 -17 703 -17 m 564 164 q 720 207 649 164 q 835 324 792 250 q 878 488 878 399 q 835 653 878 578 q 720 770 792 727 q 564 813 648 813 q 408 769 480 813 q 293 652 335 726 q 250 488 250 578 q 293 324 250 399 q 408 207 335 250 q 564 164 480 164 z "},"":{"ha":1128,"x_min":59,"x_max":1069,"o":"m 564 -17 q 309 51 424 -17 q 126 234 193 118 q 59 489 59 350 q 126 744 59 628 q 309 926 193 859 q 564 993 424 993 q 819 926 703 993 q 1002 744 935 859 q 1069 489 1069 628 q 1002 234 1069 350 q 819 51 935 118 q 564 -17 703 -17 m 564 164 q 720 207 649 164 q 835 324 792 250 q 878 488 878 399 q 835 653 878 578 q 720 770 792 727 q 564 813 648 813 q 408 769 480 813 q 293 652 335 726 q 250 488 250 578 q 293 324 250 399 q 408 207 335 250 q 564 164 480 164 m 640 1047 l 499 1047 l 340 1208 l 527 1208 l 640 1047 z "},"":{"ha":1128,"x_min":59,"x_max":1069,"o":"m 564 -17 q 309 51 424 -17 q 126 234 193 118 q 59 489 59 350 q 126 744 59 628 q 309 926 193 859 q 564 993 424 993 q 819 926 703 993 q 1002 744 935 859 q 1069 489 1069 628 q 1002 234 1069 350 q 819 51 935 118 q 564 -17 703 -17 m 564 164 q 720 207 649 164 q 835 324 792 250 q 878 488 878 399 q 835 653 878 578 q 720 770 792 727 q 564 813 648 813 q 408 769 480 813 q 293 652 335 726 q 250 488 250 578 q 293 324 250 399 q 408 207 335 250 q 564 164 480 164 m 526 1051 q 547 1091 540 1076 q 553 1122 553 1107 q 533 1142 553 1142 q 489 1127 512 1142 l 474 1186 q 565 1217 519 1217 q 632 1201 606 1217 q 657 1157 657 1185 q 645 1112 657 1133 q 602 1051 633 1091 l 526 1051 z "},"":{"ha":1128,"x_min":59,"x_max":1069,"o":"m 888 878 q 1021 707 973 808 q 1069 489 1069 606 q 1002 234 1069 350 q 819 51 935 118 q 564 -17 703 -17 q 309 51 424 -17 q 126 234 193 118 q 59 489 59 350 q 126 744 59 628 q 309 926 193 859 q 564 993 424 993 q 776 948 678 993 q 830 968 812 949 q 848 1019 848 988 q 833 1078 848 1046 l 973 1108 q 990 1022 990 1063 q 964 934 990 972 q 888 878 938 897 m 564 164 q 720 207 649 164 q 835 324 792 250 q 878 488 878 399 q 835 653 878 578 q 720 770 792 727 q 564 813 648 813 q 408 769 480 813 q 293 652 335 726 q 250 488 250 578 q 293 324 250 399 q 408 207 335 250 q 564 164 480 164 z "},"":{"ha":1128,"x_min":59,"x_max":1069,"o":"m 888 878 q 1021 707 973 808 q 1069 489 1069 606 q 1002 234 1069 350 q 819 51 935 118 q 564 -17 703 -17 q 309 51 424 -17 q 126 234 193 118 q 59 489 59 350 q 126 744 59 628 q 309 926 193 859 q 564 993 424 993 q 776 948 678 993 q 830 968 812 949 q 848 1019 848 988 q 833 1078 848 1046 l 973 1108 q 990 1022 990 1063 q 964 934 990 972 q 888 878 938 897 m 564 164 q 720 207 649 164 q 835 324 792 250 q 878 488 878 399 q 835 653 878 578 q 720 770 792 727 q 564 813 648 813 q 408 769 480 813 q 293 652 335 726 q 250 488 250 578 q 293 324 250 399 q 408 207 335 250 q 564 164 480 164 m 760 1208 l 601 1047 l 460 1047 l 573 1208 l 760 1208 z "},"":{"ha":1128,"x_min":59,"x_max":1069,"o":"m 888 878 q 1021 707 973 808 q 1069 489 1069 606 q 1002 234 1069 350 q 819 51 935 118 q 564 -17 703 -17 q 309 51 424 -17 q 126 234 193 118 q 59 489 59 350 q 126 744 59 628 q 309 926 193 859 q 564 993 424 993 q 776 948 678 993 q 830 968 812 949 q 848 1019 848 988 q 833 1078 848 1046 l 973 1108 q 990 1022 990 1063 q 964 934 990 972 q 888 878 938 897 m 564 164 q 720 207 649 164 q 835 324 792 250 q 878 488 878 399 q 835 653 878 578 q 720 770 792 727 q 564 813 648 813 q 408 769 480 813 q 293 652 335 726 q 250 488 250 578 q 293 324 250 399 q 408 207 335 250 q 564 164 480 164 z "},"":{"ha":1128,"x_min":59,"x_max":1069,"o":"m 888 878 q 1021 707 973 808 q 1069 489 1069 606 q 1002 234 1069 350 q 819 51 935 118 q 564 -17 703 -17 q 309 51 424 -17 q 126 234 193 118 q 59 489 59 350 q 126 744 59 628 q 309 926 193 859 q 564 993 424 993 q 776 948 678 993 q 830 968 812 949 q 848 1019 848 988 q 833 1078 848 1046 l 973 1108 q 990 1022 990 1063 q 964 934 990 972 q 888 878 938 897 m 564 164 q 720 207 649 164 q 835 324 792 250 q 878 488 878 399 q 835 653 878 578 q 720 770 792 727 q 564 813 648 813 q 408 769 480 813 q 293 652 335 726 q 250 488 250 578 q 293 324 250 399 q 408 207 335 250 q 564 164 480 164 m 640 1047 l 499 1047 l 340 1208 l 527 1208 l 640 1047 z "},"":{"ha":1128,"x_min":59,"x_max":1069,"o":"m 888 878 q 1021 707 973 808 q 1069 489 1069 606 q 1002 234 1069 350 q 819 51 935 118 q 564 -17 703 -17 q 309 51 424 -17 q 126 234 193 118 q 59 489 59 350 q 126 744 59 628 q 309 926 193 859 q 564 993 424 993 q 776 948 678 993 q 830 968 812 949 q 848 1019 848 988 q 833 1078 848 1046 l 973 1108 q 990 1022 990 1063 q 964 934 990 972 q 888 878 938 897 m 564 164 q 720 207 649 164 q 835 324 792 250 q 878 488 878 399 q 835 653 878 578 q 720 770 792 727 q 564 813 648 813 q 408 769 480 813 q 293 652 335 726 q 250 488 250 578 q 293 324 250 399 q 408 207 335 250 q 564 164 480 164 m 526 1051 q 547 1091 540 1076 q 553 1122 553 1107 q 533 1142 553 1142 q 489 1127 512 1142 l 474 1186 q 565 1217 519 1217 q 632 1201 606 1217 q 657 1157 657 1185 q 645 1112 657 1133 q 602 1051 633 1091 l 526 1051 z "},"":{"ha":1128,"x_min":59,"x_max":1069,"o":"m 888 878 q 1021 707 973 808 q 1069 489 1069 606 q 1002 234 1069 350 q 819 51 935 118 q 564 -17 703 -17 q 309 51 424 -17 q 126 234 193 118 q 59 489 59 350 q 126 744 59 628 q 309 926 193 859 q 564 993 424 993 q 776 948 678 993 q 830 968 812 949 q 848 1019 848 988 q 833 1078 848 1046 l 973 1108 q 990 1022 990 1063 q 964 934 990 972 q 888 878 938 897 m 564 164 q 720 207 649 164 q 835 324 792 250 q 878 488 878 399 q 835 653 878 578 q 720 770 792 727 q 564 813 648 813 q 408 769 480 813 q 293 652 335 726 q 250 488 250 578 q 293 324 250 399 q 408 207 335 250 q 564 164 480 164 z "},"":{"ha":1128,"x_min":59,"x_max":1069,"o":"m 564 -17 q 309 51 424 -17 q 126 234 193 118 q 59 489 59 350 q 126 744 59 628 q 309 926 193 859 q 564 993 424 993 q 819 926 703 993 q 1002 744 935 859 q 1069 489 1069 628 q 1002 234 1069 350 q 819 51 935 118 q 564 -17 703 -17 m 564 164 q 720 207 649 164 q 835 324 792 250 q 878 488 878 399 q 835 653 878 578 q 720 770 792 727 q 564 813 648 813 q 408 769 480 813 q 293 652 335 726 q 250 488 250 578 q 293 324 250 399 q 408 207 335 250 q 564 164 480 164 m 639 1210 l 500 1049 l 377 1049 l 476 1210 l 639 1210 m 827 1209 l 686 1048 l 560 1048 l 661 1209 l 827 1209 z "},"":{"ha":1128,"x_min":59,"x_max":1069,"o":"m 564 -17 q 309 51 424 -17 q 126 234 193 118 q 59 489 59 350 q 126 744 59 628 q 309 926 193 859 q 564 993 424 993 q 819 926 703 993 q 1002 744 935 859 q 1069 489 1069 628 q 1002 234 1069 350 q 819 51 935 118 q 564 -17 703 -17 m 564 164 q 720 207 649 164 q 835 324 792 250 q 878 488 878 399 q 835 653 878 578 q 720 770 792 727 q 564 813 648 813 q 408 769 480 813 q 293 652 335 726 q 250 488 250 578 q 293 324 250 399 q 408 207 335 250 q 564 164 480 164 m 565 1218 q 670 1195 628 1218 q 734 1132 713 1172 q 756 1041 756 1092 l 625 1041 q 565 1113 628 1113 q 517 1094 531 1113 q 504 1041 503 1076 l 373 1041 q 395 1131 374 1091 q 459 1195 416 1172 q 565 1218 501 1218 z "},"":{"ha":1128,"x_min":59,"x_max":1069,"o":"m 564 -17 q 309 51 424 -17 q 126 234 193 118 q 59 489 59 350 q 126 744 59 628 q 309 926 193 859 q 564 993 424 993 q 819 926 703 993 q 1002 744 935 859 q 1069 489 1069 628 q 1002 234 1069 350 q 819 51 935 118 q 564 -17 703 -17 m 564 164 q 720 207 649 164 q 835 324 792 250 q 878 488 878 399 q 835 653 878 578 q 720 770 792 727 q 564 813 648 813 q 408 769 480 813 q 293 652 335 726 q 250 488 250 578 q 293 324 250 399 q 408 207 335 250 q 564 164 480 164 z "},"":{"ha":1128,"x_min":59,"x_max":1069,"o":"m 564 -17 q 309 51 424 -17 q 126 234 193 118 q 59 489 59 350 q 126 744 59 628 q 309 926 193 859 q 564 993 424 993 q 819 926 703 993 q 1002 744 935 859 q 1069 489 1069 628 q 1002 234 1069 350 q 819 51 935 118 q 564 -17 703 -17 m 564 164 q 720 207 649 164 q 835 324 792 250 q 878 488 878 399 q 835 653 878 578 q 720 770 792 727 q 564 813 648 813 q 408 769 480 813 q 293 652 335 726 q 250 488 250 578 q 293 324 250 399 q 408 207 335 250 q 564 164 480 164 m 762 1367 l 603 1206 l 463 1206 l 575 1367 l 762 1367 z "},"":{"ha":1128,"x_min":59,"x_max":1069,"o":"m 564 -17 q 309 51 424 -17 q 126 234 193 118 q 59 489 59 350 q 126 744 59 628 q 309 926 193 859 q 564 993 424 993 q 819 926 703 993 q 1002 744 935 859 q 1069 489 1069 628 q 1002 234 1069 350 q 819 51 935 118 q 564 -17 703 -17 m 564 164 q 720 207 649 164 q 835 324 792 250 q 878 488 878 399 q 835 653 878 578 q 720 770 792 727 q 564 813 648 813 q 408 769 480 813 q 293 652 335 726 q 250 488 250 578 q 293 324 250 399 q 408 207 335 250 q 564 164 480 164 m 641 1206 l 500 1206 l 342 1367 l 528 1367 l 641 1206 z "},"":{"ha":1128,"x_min":59,"x_max":1069,"o":"m 838 62 q 791 9 806 35 q 775 -39 775 -17 q 788 -73 775 -60 q 825 -86 801 -86 q 869 -81 844 -86 l 878 -166 q 835 -181 856 -176 q 785 -185 814 -185 q 682 -155 715 -185 q 649 -77 649 -124 q 669 -6 649 -43 q 564 -17 619 -17 q 309 51 424 -17 q 126 234 193 118 q 59 489 59 350 q 126 744 59 628 q 309 926 193 859 q 564 993 424 993 q 819 926 703 993 q 1002 744 935 859 q 1069 489 1069 628 q 1007 243 1069 356 q 838 62 944 130 m 250 488 q 293 324 250 399 q 408 207 335 250 q 564 164 480 164 q 720 207 649 164 q 835 324 792 250 q 878 488 878 399 q 835 653 878 578 q 720 770 792 727 q 564 813 648 813 q 408 769 480 813 q 293 652 335 726 q 250 488 250 578 z "},"":{"ha":1128,"x_min":59,"x_max":1069,"o":"m 389 1165 l 746 1165 l 746 1050 l 389 1050 l 389 1165 m 838 62 q 791 9 806 35 q 775 -39 775 -17 q 788 -73 775 -60 q 825 -86 801 -86 q 869 -81 844 -86 l 878 -166 q 835 -181 856 -176 q 785 -185 814 -185 q 682 -155 715 -185 q 649 -77 649 -124 q 669 -6 649 -43 q 564 -17 619 -17 q 309 51 424 -17 q 126 234 193 118 q 59 489 59 350 q 126 744 59 628 q 309 926 193 859 q 564 993 424 993 q 819 926 703 993 q 1002 744 935 859 q 1069 489 1069 628 q 1007 243 1069 356 q 838 62 944 130 m 250 488 q 293 324 250 399 q 408 207 335 250 q 564 164 480 164 q 720 207 649 164 q 835 324 792 250 q 878 488 878 399 q 835 653 878 578 q 720 770 792 727 q 564 813 648 813 q 408 769 480 813 q 293 652 335 726 q 250 488 250 578 z "},"":{"ha":1128,"x_min":59,"x_max":1069,"o":"m 881 885 q 1019 711 969 815 q 1069 489 1069 608 q 1002 234 1069 350 q 819 51 935 118 q 564 -17 703 -17 q 397 10 478 -17 l 357 -62 l 167 -62 l 251 90 q 110 264 161 160 q 59 489 59 368 q 126 744 59 628 q 309 926 193 859 q 564 993 424 993 q 735 965 651 993 l 778 1041 l 967 1041 l 881 885 m 250 488 q 275 361 250 421 q 344 257 299 301 l 645 801 q 564 813 608 813 q 408 769 480 813 q 293 652 335 726 q 250 488 250 578 m 564 164 q 720 207 649 164 q 835 324 792 250 q 878 488 878 399 q 854 613 878 554 q 788 717 830 672 l 488 174 q 564 164 525 164 z "},"":{"ha":1128,"x_min":59,"x_max":1069,"o":"m 881 885 q 1019 711 969 815 q 1069 489 1069 608 q 1002 234 1069 350 q 819 51 935 118 q 564 -17 703 -17 q 397 10 478 -17 l 357 -62 l 167 -62 l 251 90 q 110 264 161 160 q 59 489 59 368 q 126 744 59 628 q 309 926 193 859 q 564 993 424 993 q 735 965 651 993 l 778 1041 l 967 1041 l 881 885 m 250 488 q 275 361 250 421 q 344 257 299 301 l 645 801 q 564 813 608 813 q 408 769 480 813 q 293 652 335 726 q 250 488 250 578 m 564 164 q 720 207 649 164 q 835 324 792 250 q 878 488 878 399 q 854 613 878 554 q 788 717 830 672 l 488 174 q 564 164 525 164 m 759 1204 l 601 1043 l 460 1043 l 572 1204 l 759 1204 z "},"":{"ha":1128,"x_min":59,"x_max":1069,"o":"m 564 -17 q 309 51 424 -17 q 126 234 193 118 q 59 489 59 350 q 126 744 59 628 q 309 926 193 859 q 564 993 424 993 q 819 926 703 993 q 1002 744 935 859 q 1069 489 1069 628 q 1002 234 1069 350 q 819 51 935 118 q 564 -17 703 -17 m 564 164 q 720 207 649 164 q 835 324 792 250 q 878 488 878 399 q 835 653 878 578 q 720 770 792 727 q 564 813 648 813 q 408 769 480 813 q 293 652 335 726 q 250 488 250 578 q 293 324 250 399 q 408 207 335 250 q 564 164 480 164 z "},"":{"ha":1128,"x_min":59,"x_max":1069,"o":"m 564 -17 q 309 51 424 -17 q 126 234 193 118 q 59 489 59 350 q 126 744 59 628 q 309 926 193 859 q 564 993 424 993 q 819 926 703 993 q 1002 744 935 859 q 1069 489 1069 628 q 1002 234 1069 350 q 819 51 935 118 q 564 -17 703 -17 m 564 164 q 720 207 649 164 q 835 324 792 250 q 878 488 878 399 q 835 653 878 578 q 720 770 792 727 q 564 813 648 813 q 408 769 480 813 q 293 652 335 726 q 250 488 250 578 q 293 324 250 399 q 408 207 335 250 q 564 164 480 164 m 760 1398 l 601 1237 l 460 1237 l 573 1398 l 760 1398 z "},"":{"ha":1128,"x_min":59,"x_max":1069,"o":"m 564 -17 q 309 51 424 -17 q 126 234 193 118 q 59 489 59 350 q 126 744 59 628 q 309 926 193 859 q 564 993 424 993 q 819 926 703 993 q 1002 744 935 859 q 1069 489 1069 628 q 1002 234 1069 350 q 819 51 935 118 q 564 -17 703 -17 m 564 164 q 720 207 649 164 q 835 324 792 250 q 878 488 878 399 q 835 653 878 578 q 720 770 792 727 q 564 813 648 813 q 408 769 480 813 q 293 652 335 726 q 250 488 250 578 q 293 324 250 399 q 408 207 335 250 q 564 164 480 164 z "},"":{"ha":1128,"x_min":59,"x_max":1069,"o":"m 564 -17 q 309 51 424 -17 q 126 234 193 118 q 59 489 59 350 q 126 744 59 628 q 309 926 193 859 q 564 993 424 993 q 819 926 703 993 q 1002 744 935 859 q 1069 489 1069 628 q 1002 234 1069 350 q 819 51 935 118 q 564 -17 703 -17 m 564 164 q 720 207 649 164 q 835 324 792 250 q 878 488 878 399 q 835 653 878 578 q 720 770 792 727 q 564 813 648 813 q 408 769 480 813 q 293 652 335 726 q 250 488 250 578 q 293 324 250 399 q 408 207 335 250 q 564 164 480 164 z "},"":{"ha":869,"x_min":116,"x_max":835,"o":"m 116 0 l 116 976 l 494 976 q 674 935 597 976 q 793 821 751 894 q 835 655 835 749 q 795 481 835 556 q 677 365 754 406 q 496 324 601 324 l 304 324 l 304 0 l 116 0 m 481 495 q 567 515 530 495 q 626 571 605 535 q 647 653 647 607 q 626 733 647 699 q 568 786 606 767 q 481 805 530 805 l 304 805 l 304 495 l 481 495 m 537 1204 l 378 1043 l 238 1043 l 350 1204 l 537 1204 z "},"":{"ha":869,"x_min":116,"x_max":835,"o":"m 116 0 l 116 976 l 494 976 q 674 935 597 976 q 793 821 751 894 q 835 655 835 749 q 795 481 835 556 q 677 365 754 406 q 496 324 601 324 l 304 324 l 304 0 l 116 0 m 481 495 q 567 515 530 495 q 626 571 605 535 q 647 653 647 607 q 626 733 647 699 q 568 786 606 767 q 481 805 530 805 l 304 805 l 304 495 l 481 495 z "},"":{"ha":915,"x_min":116,"x_max":879,"o":"m 879 0 l 667 0 l 514 329 q 467 328 483 328 l 304 328 l 304 0 l 116 0 l 116 976 l 519 976 q 694 935 618 976 q 812 821 770 894 q 854 652 854 748 q 812 486 854 556 q 694 378 769 417 l 879 0 m 304 494 l 502 494 q 586 514 549 494 q 643 570 623 534 q 663 651 663 606 q 642 733 663 699 q 585 786 622 768 q 503 805 549 805 l 304 805 l 304 494 m 594 1204 l 436 1043 l 295 1043 l 408 1204 l 594 1204 z "},"":{"ha":915,"x_min":116,"x_max":879,"o":"m 879 0 l 667 0 l 514 329 q 467 328 483 328 l 304 328 l 304 0 l 116 0 l 116 976 l 519 976 q 694 935 618 976 q 812 821 770 894 q 854 652 854 748 q 812 486 854 556 q 694 378 769 417 l 879 0 m 304 494 l 502 494 q 586 514 549 494 q 643 570 623 534 q 663 651 663 606 q 642 733 663 699 q 585 786 622 768 q 503 805 549 805 l 304 805 l 304 494 m 207 1167 l 267 1256 l 401 1175 l 537 1256 l 596 1167 l 419 1045 l 385 1045 l 207 1167 z "},"":{"ha":915,"x_min":116,"x_max":879,"o":"m 879 0 l 667 0 l 514 329 q 467 328 483 328 l 304 328 l 304 0 l 116 0 l 116 976 l 519 976 q 694 935 618 976 q 812 821 770 894 q 854 652 854 748 q 812 486 854 556 q 694 378 769 417 l 879 0 m 304 494 l 502 494 q 586 514 549 494 q 643 570 623 534 q 663 651 663 606 q 642 733 663 699 q 585 786 622 768 q 503 805 549 805 l 304 805 l 304 494 m 411 -269 q 466 -190 466 -220 l 466 -187 q 424 -169 441 -187 q 407 -127 407 -151 q 426 -83 407 -100 q 473 -66 444 -66 q 519 -84 501 -66 q 538 -139 538 -102 q 450 -306 538 -230 l 411 -269 z "},"":{"ha":915,"x_min":97,"x_max":879,"o":"m 879 0 l 667 0 l 514 329 q 467 328 483 328 l 304 328 l 304 0 l 116 0 l 116 976 l 519 976 q 694 935 618 976 q 812 821 770 894 q 854 652 854 748 q 812 486 854 556 q 694 378 769 417 l 879 0 m 304 494 l 502 494 q 586 514 549 494 q 643 570 623 534 q 663 651 663 606 q 642 733 663 699 q 585 786 622 768 q 503 805 549 805 l 304 805 l 304 494 m 372 1035 l 243 1035 l 97 1183 l 269 1183 l 372 1035 m 569 1034 l 440 1034 l 294 1183 l 465 1183 l 569 1034 z "},"":{"ha":915,"x_min":116,"x_max":879,"o":"m 879 0 l 667 0 l 514 329 q 467 328 483 328 l 304 328 l 304 0 l 116 0 l 116 976 l 519 976 q 694 935 618 976 q 812 821 770 894 q 854 652 854 748 q 812 486 854 556 q 694 378 769 417 l 879 0 m 304 494 l 502 494 q 586 514 549 494 q 643 570 623 534 q 663 651 663 606 q 642 733 663 699 q 585 786 622 768 q 503 805 549 805 l 304 805 l 304 494 z "},"":{"ha":915,"x_min":116,"x_max":879,"o":"m 879 0 l 667 0 l 514 329 q 467 328 483 328 l 304 328 l 304 0 l 116 0 l 116 976 l 519 976 q 694 935 618 976 q 812 821 770 894 q 854 652 854 748 q 812 486 854 556 q 694 378 769 417 l 879 0 m 304 494 l 502 494 q 586 514 549 494 q 643 570 623 534 q 663 651 663 606 q 642 733 663 699 q 585 786 622 768 q 503 805 549 805 l 304 805 l 304 494 z "},"":{"ha":915,"x_min":116,"x_max":879,"o":"m 879 0 l 667 0 l 514 329 q 467 328 483 328 l 304 328 l 304 0 l 116 0 l 116 976 l 519 976 q 694 935 618 976 q 812 821 770 894 q 854 652 854 748 q 812 486 854 556 q 694 378 769 417 l 879 0 m 304 494 l 502 494 q 586 514 549 494 q 643 570 623 534 q 663 651 663 606 q 642 733 663 699 q 585 786 622 768 q 503 805 549 805 l 304 805 l 304 494 z "},"":{"ha":915,"x_min":116,"x_max":879,"o":"m 879 0 l 667 0 l 514 329 q 467 328 483 328 l 304 328 l 304 0 l 116 0 l 116 976 l 519 976 q 694 935 618 976 q 812 821 770 894 q 854 652 854 748 q 812 486 854 556 q 694 378 769 417 l 879 0 m 304 494 l 502 494 q 586 514 549 494 q 643 570 623 534 q 663 651 663 606 q 642 733 663 699 q 585 786 622 768 q 503 805 549 805 l 304 805 l 304 494 m 399 1214 q 505 1191 463 1214 q 569 1127 548 1167 q 591 1037 590 1088 l 460 1037 q 399 1108 463 1108 q 351 1090 365 1108 q 339 1037 338 1072 l 208 1037 q 230 1127 208 1087 q 293 1191 251 1167 q 399 1214 336 1214 z "},"":{"ha":915,"x_min":116,"x_max":879,"o":"m 879 0 l 667 0 l 514 329 q 467 328 483 328 l 304 328 l 304 0 l 116 0 l 116 976 l 519 976 q 694 935 618 976 q 812 821 770 894 q 854 652 854 748 q 812 486 854 556 q 694 378 769 417 l 879 0 m 304 494 l 502 494 q 586 514 549 494 q 643 570 623 534 q 663 651 663 606 q 642 733 663 699 q 585 786 622 768 q 503 805 549 805 l 304 805 l 304 494 z "},"":{"ha":820,"x_min":21,"x_max":772,"o":"m 416 -15 q 198 30 301 -15 q 21 160 96 74 l 142 282 q 267 191 197 222 q 413 160 338 160 q 536 192 491 160 q 582 280 582 224 q 560 342 582 317 q 493 386 538 367 q 369 428 449 406 q 225 481 288 450 q 119 570 163 513 q 75 716 75 628 q 113 855 75 792 q 227 955 151 918 q 409 992 302 992 q 598 957 511 992 q 753 860 685 923 l 646 731 q 541 795 603 769 q 417 820 479 820 q 337 807 372 820 q 282 768 302 793 q 263 710 263 743 q 284 656 263 677 q 341 620 306 634 q 444 585 376 606 l 460 580 q 627 511 561 547 q 733 420 694 476 q 772 284 772 365 q 727 125 772 193 q 600 21 681 58 q 416 -15 519 -15 m 626 1204 l 468 1043 l 327 1043 l 440 1204 l 626 1204 z "},"":{"ha":820,"x_min":21,"x_max":772,"o":"m 416 -15 q 198 30 301 -15 q 21 160 96 74 l 142 282 q 267 191 197 222 q 413 160 338 160 q 536 192 491 160 q 582 280 582 224 q 560 342 582 317 q 493 386 538 367 q 369 428 449 406 q 225 481 288 450 q 119 570 163 513 q 75 716 75 628 q 113 855 75 792 q 227 955 151 918 q 409 992 302 992 q 598 957 511 992 q 753 860 685 923 l 646 731 q 541 795 603 769 q 417 820 479 820 q 337 807 372 820 q 282 768 302 793 q 263 710 263 743 q 284 656 263 677 q 341 620 306 634 q 444 585 376 606 l 460 580 q 627 511 561 547 q 733 420 694 476 q 772 284 772 365 q 727 125 772 193 q 600 21 681 58 q 416 -15 519 -15 m 626 1204 l 468 1043 l 327 1043 l 440 1204 l 626 1204 z "},"":{"ha":820,"x_min":21,"x_max":772,"o":"m 416 -15 q 198 30 301 -15 q 21 160 96 74 l 142 282 q 267 191 197 222 q 413 160 338 160 q 536 192 491 160 q 582 280 582 224 q 560 342 582 317 q 493 386 538 367 q 369 428 449 406 q 225 481 288 450 q 119 570 163 513 q 75 716 75 628 q 113 855 75 792 q 227 955 151 918 q 409 992 302 992 q 598 957 511 992 q 753 860 685 923 l 646 731 q 541 795 603 769 q 417 820 479 820 q 337 807 372 820 q 282 768 302 793 q 263 710 263 743 q 284 656 263 677 q 341 620 306 634 q 444 585 376 606 l 460 580 q 627 511 561 547 q 733 420 694 476 q 772 284 772 365 q 727 125 772 193 q 600 21 681 58 q 416 -15 519 -15 m 239 1167 l 299 1256 l 433 1175 l 569 1256 l 628 1167 l 451 1045 l 417 1045 l 239 1167 z "},"":{"ha":820,"x_min":21,"x_max":772,"o":"m 416 -15 q 198 30 301 -15 q 21 160 96 74 l 142 282 q 267 191 197 222 q 413 160 338 160 q 536 192 491 160 q 582 280 582 224 q 560 342 582 317 q 493 386 538 367 q 369 428 449 406 q 225 481 288 450 q 119 570 163 513 q 75 716 75 628 q 113 855 75 792 q 227 955 151 918 q 409 992 302 992 q 598 957 511 992 q 753 860 685 923 l 646 731 q 541 795 603 769 q 417 820 479 820 q 337 807 372 820 q 282 768 302 793 q 263 710 263 743 q 284 656 263 677 q 341 620 306 634 q 444 585 376 606 l 460 580 q 627 511 561 547 q 733 420 694 476 q 772 284 772 365 q 727 125 772 193 q 600 21 681 58 q 416 -15 519 -15 m 239 1167 l 299 1256 l 433 1175 l 569 1256 l 628 1167 l 451 1045 l 417 1045 l 239 1167 z "},"":{"ha":820,"x_min":21,"x_max":772,"o":"m 772 284 q 739 145 772 206 q 645 45 706 84 q 503 -8 584 6 q 540 -77 525 -42 q 555 -142 555 -112 q 539 -205 555 -178 q 479 -250 523 -231 q 356 -275 435 -269 l 340 -179 q 395 -167 377 -175 q 419 -149 414 -159 q 425 -123 425 -138 q 415 -76 425 -102 q 382 -15 404 -51 q 183 37 276 -8 q 21 160 90 81 l 142 282 q 267 191 197 222 q 413 160 338 160 q 536 192 491 160 q 582 280 582 224 q 560 342 582 317 q 493 386 538 367 q 369 428 449 406 q 225 481 288 450 q 119 570 163 513 q 75 716 75 628 q 113 855 75 792 q 227 955 151 918 q 409 992 302 992 q 598 957 511 992 q 753 860 685 923 l 646 731 q 541 795 603 769 q 417 820 479 820 q 337 807 372 820 q 282 768 302 793 q 263 710 263 743 q 284 656 263 677 q 341 620 306 634 q 444 585 376 606 l 460 580 q 627 511 561 547 q 733 420 694 476 q 772 284 772 365 z "},"":{"ha":820,"x_min":21,"x_max":772,"o":"m 416 -15 q 198 30 301 -15 q 21 160 96 74 l 142 282 q 267 191 197 222 q 413 160 338 160 q 536 192 491 160 q 582 280 582 224 q 560 342 582 317 q 493 386 538 367 q 369 428 449 406 q 225 481 288 450 q 119 570 163 513 q 75 716 75 628 q 113 855 75 792 q 227 955 151 918 q 409 992 302 992 q 598 957 511 992 q 753 860 685 923 l 646 731 q 541 795 603 769 q 417 820 479 820 q 337 807 372 820 q 282 768 302 793 q 263 710 263 743 q 284 656 263 677 q 341 620 306 634 q 444 585 376 606 l 460 580 q 627 511 561 547 q 733 420 694 476 q 772 284 772 365 q 727 125 772 193 q 600 21 681 58 q 416 -15 519 -15 m 431 1111 l 296 1031 l 236 1119 l 414 1240 l 449 1240 l 625 1119 l 566 1031 l 431 1111 z "},"":{"ha":820,"x_min":21,"x_max":772,"o":"m 416 -15 q 198 30 301 -15 q 21 160 96 74 l 142 282 q 267 191 197 222 q 413 160 338 160 q 536 192 491 160 q 582 280 582 224 q 560 342 582 317 q 493 386 538 367 q 369 428 449 406 q 225 481 288 450 q 119 570 163 513 q 75 716 75 628 q 113 855 75 792 q 227 955 151 918 q 409 992 302 992 q 598 957 511 992 q 753 860 685 923 l 646 731 q 541 795 603 769 q 417 820 479 820 q 337 807 372 820 q 282 768 302 793 q 263 710 263 743 q 284 656 263 677 q 341 620 306 634 q 444 585 376 606 l 460 580 q 627 511 561 547 q 733 420 694 476 q 772 284 772 365 q 727 125 772 193 q 600 21 681 58 q 416 -15 519 -15 m 387 -269 q 442 -190 442 -220 l 442 -187 q 400 -169 417 -187 q 383 -127 383 -151 q 401 -83 383 -100 q 449 -66 420 -66 q 495 -84 476 -66 q 514 -139 514 -102 q 426 -306 514 -230 l 387 -269 z "},"":{"ha":820,"x_min":21,"x_max":772,"o":"m 416 -15 q 198 30 301 -15 q 21 160 96 74 l 142 282 q 267 191 197 222 q 413 160 338 160 q 536 192 491 160 q 582 280 582 224 q 560 342 582 317 q 493 386 538 367 q 369 428 449 406 q 225 481 288 450 q 119 570 163 513 q 75 716 75 628 q 113 855 75 792 q 227 955 151 918 q 409 992 302 992 q 598 957 511 992 q 753 860 685 923 l 646 731 q 541 795 603 769 q 417 820 479 820 q 337 807 372 820 q 282 768 302 793 q 263 710 263 743 q 284 656 263 677 q 341 620 306 634 q 444 585 376 606 l 460 580 q 627 511 561 547 q 733 420 694 476 q 772 284 772 365 q 727 125 772 193 q 600 21 681 58 q 416 -15 519 -15 z "},"":{"ha":820,"x_min":21,"x_max":772,"o":"m 416 -15 q 198 30 301 -15 q 21 160 96 74 l 142 282 q 267 191 197 222 q 413 160 338 160 q 536 192 491 160 q 582 280 582 224 q 560 342 582 317 q 493 386 538 367 q 369 428 449 406 q 225 481 288 450 q 119 570 163 513 q 75 716 75 628 q 113 855 75 792 q 227 955 151 918 q 409 992 302 992 q 598 957 511 992 q 753 860 685 923 l 646 731 q 541 795 603 769 q 417 820 479 820 q 337 807 372 820 q 282 768 302 793 q 263 710 263 743 q 284 656 263 677 q 341 620 306 634 q 444 585 376 606 l 460 580 q 627 511 561 547 q 733 420 694 476 q 772 284 772 365 q 727 125 772 193 q 600 21 681 58 q 416 -15 519 -15 z "},"":{"ha":820,"x_min":21,"x_max":772,"o":"m 416 -15 q 198 30 301 -15 q 21 160 96 74 l 142 282 q 267 191 197 222 q 413 160 338 160 q 536 192 491 160 q 582 280 582 224 q 560 342 582 317 q 493 386 538 367 q 369 428 449 406 q 225 481 288 450 q 119 570 163 513 q 75 716 75 628 q 113 855 75 792 q 227 955 151 918 q 409 992 302 992 q 598 957 511 992 q 753 860 685 923 l 646 731 q 541 795 603 769 q 417 820 479 820 q 337 807 372 820 q 282 768 302 793 q 263 710 263 743 q 284 656 263 677 q 341 620 306 634 q 444 585 376 606 l 460 580 q 627 511 561 547 q 733 420 694 476 q 772 284 772 365 q 727 125 772 193 q 600 21 681 58 q 416 -15 519 -15 z "},"":{"ha":1098,"x_min":59,"x_max":1039,"o":"m 523 1001 q 785 932 667 1001 q 971 747 903 864 q 1039 490 1039 629 q 975 233 1039 350 q 799 48 912 116 q 547 -21 687 -21 q 286 44 397 -21 q 117 224 176 109 q 59 485 59 338 q 64 551 59 517 l 844 551 q 782 695 829 633 q 664 790 734 757 q 513 824 594 824 q 369 798 433 824 q 251 726 305 773 l 155 862 q 320 964 227 928 q 523 1001 413 1001 m 542 146 q 683 179 619 146 q 790 273 748 212 q 846 415 833 334 l 247 415 q 298 272 259 333 q 400 178 338 211 q 542 146 462 146 z "},"":{"ha":835,"x_min":38,"x_max":799,"o":"m 799 976 l 799 800 l 512 800 l 512 560 l 658 560 l 658 410 l 512 410 l 512 0 l 324 0 l 324 410 l 179 410 l 179 560 l 324 560 l 324 800 l 38 800 l 38 976 l 799 976 z "},"":{"ha":835,"x_min":38,"x_max":799,"o":"m 512 0 l 324 0 l 324 800 l 38 800 l 38 976 l 799 976 l 799 800 l 512 800 l 512 0 m 227 1167 l 287 1256 l 422 1175 l 557 1256 l 616 1167 l 440 1045 l 405 1045 l 227 1167 z "},"":{"ha":835,"x_min":38,"x_max":799,"o":"m 512 800 l 512 0 l 484 0 q 524 -72 508 -34 q 541 -142 541 -110 q 525 -205 541 -178 q 465 -250 509 -231 q 342 -275 422 -269 l 326 -179 q 382 -167 363 -175 q 406 -149 400 -159 q 411 -123 411 -138 q 399 -72 411 -100 q 359 0 386 -43 l 324 0 l 324 800 l 38 800 l 38 976 l 799 976 l 799 800 l 512 800 z "},"":{"ha":835,"x_min":38,"x_max":799,"o":"m 512 0 l 324 0 l 324 800 l 38 800 l 38 976 l 799 976 l 799 800 l 512 800 l 512 0 z "},"":{"ha":835,"x_min":38,"x_max":799,"o":"m 512 0 l 324 0 l 324 800 l 38 800 l 38 976 l 799 976 l 799 800 l 512 800 l 512 0 m 373 -269 q 428 -190 428 -220 l 428 -187 q 386 -169 403 -187 q 369 -127 369 -151 q 388 -83 369 -100 q 435 -66 406 -66 q 481 -84 463 -66 q 500 -139 500 -102 q 412 -306 500 -230 l 373 -269 z "},"":{"ha":835,"x_min":38,"x_max":799,"o":"m 512 0 l 324 0 l 324 800 l 38 800 l 38 976 l 799 976 l 799 800 l 512 800 l 512 0 z "},"":{"ha":835,"x_min":38,"x_max":799,"o":"m 512 0 l 324 0 l 324 800 l 38 800 l 38 976 l 799 976 l 799 800 l 512 800 l 512 0 z "},"":{"ha":835,"x_min":38,"x_max":799,"o":"m 512 0 l 324 0 l 324 800 l 38 800 l 38 976 l 799 976 l 799 800 l 512 800 l 512 0 z "},"":{"ha":1008,"x_min":93,"x_max":915,"o":"m 503 -19 q 282 34 375 -19 q 141 183 190 88 q 93 399 93 278 l 93 976 l 281 976 l 281 421 q 307 283 281 343 q 383 190 333 223 q 503 156 433 156 q 625 190 574 156 q 701 283 675 223 q 727 421 727 343 l 727 976 l 915 976 l 915 399 q 867 183 915 278 q 725 34 818 88 q 503 -19 632 -19 m 686 1204 l 528 1043 l 387 1043 l 499 1204 l 686 1204 z "},"":{"ha":1008,"x_min":93,"x_max":915,"o":"m 503 -19 q 282 34 375 -19 q 141 183 190 88 q 93 399 93 278 l 93 976 l 281 976 l 281 421 q 307 283 281 343 q 383 190 333 223 q 503 156 433 156 q 625 190 574 156 q 701 283 675 223 q 727 421 727 343 l 727 976 l 915 976 l 915 399 q 867 183 915 278 q 725 34 818 88 q 503 -19 632 -19 m 491 1040 q 385 1064 428 1040 q 321 1127 342 1087 q 299 1217 300 1167 l 431 1217 q 443 1164 429 1183 q 491 1146 457 1146 q 551 1217 555 1146 l 683 1217 q 661 1127 682 1167 q 597 1064 640 1087 q 491 1040 554 1040 z "},"":{"ha":1008,"x_min":93,"x_max":915,"o":"m 503 -19 q 282 34 375 -19 q 141 183 190 88 q 93 399 93 278 l 93 976 l 281 976 l 281 421 q 307 283 281 343 q 383 190 333 223 q 503 156 433 156 q 625 190 574 156 q 701 283 675 223 q 727 421 727 343 l 727 976 l 915 976 l 915 399 q 867 183 915 278 q 725 34 818 88 q 503 -19 632 -19 m 299 1167 l 358 1256 l 493 1175 l 628 1256 l 688 1167 l 511 1045 l 476 1045 l 299 1167 z "},"":{"ha":1008,"x_min":93,"x_max":915,"o":"m 503 -19 q 282 34 375 -19 q 141 183 190 88 q 93 399 93 278 l 93 976 l 281 976 l 281 421 q 307 283 281 343 q 383 190 333 223 q 503 156 433 156 q 625 190 574 156 q 701 283 675 223 q 727 421 727 343 l 727 976 l 915 976 l 915 399 q 867 183 915 278 q 725 34 818 88 q 503 -19 632 -19 m 490 1111 l 355 1031 l 295 1119 l 473 1240 l 508 1240 l 684 1119 l 625 1031 l 490 1111 z "},"":{"ha":1008,"x_min":93,"x_max":915,"o":"m 503 -19 q 282 34 375 -19 q 141 183 190 88 q 93 399 93 278 l 93 976 l 281 976 l 281 421 q 307 283 281 343 q 383 190 333 223 q 503 156 433 156 q 625 190 574 156 q 701 283 675 223 q 727 421 727 343 l 727 976 l 915 976 l 915 399 q 867 183 915 278 q 725 34 818 88 q 503 -19 632 -19 z "},"":{"ha":1008,"x_min":93,"x_max":915,"o":"m 503 -19 q 282 34 375 -19 q 141 183 190 88 q 93 399 93 278 l 93 976 l 281 976 l 281 421 q 307 283 281 343 q 383 190 333 223 q 503 156 433 156 q 625 190 574 156 q 701 283 675 223 q 727 421 727 343 l 727 976 l 915 976 l 915 399 q 867 183 915 278 q 725 34 818 88 q 503 -19 632 -19 m 464 1035 l 335 1035 l 188 1183 l 360 1183 l 464 1035 m 661 1034 l 531 1034 l 385 1183 l 557 1183 l 661 1034 z "},"":{"ha":1008,"x_min":93,"x_max":915,"o":"m 503 -19 q 282 34 375 -19 q 141 183 190 88 q 93 399 93 278 l 93 976 l 281 976 l 281 421 q 307 283 281 343 q 383 190 333 223 q 503 156 433 156 q 625 190 574 156 q 701 283 675 223 q 727 421 727 343 l 727 976 l 915 976 l 915 399 q 867 183 915 278 q 725 34 818 88 q 503 -19 632 -19 z "},"":{"ha":1008,"x_min":93,"x_max":915,"o":"m 503 -19 q 282 34 375 -19 q 141 183 190 88 q 93 399 93 278 l 93 976 l 281 976 l 281 421 q 307 283 281 343 q 383 190 333 223 q 503 156 433 156 q 625 190 574 156 q 701 283 675 223 q 727 421 727 343 l 727 976 l 915 976 l 915 399 q 867 183 915 278 q 725 34 818 88 q 503 -19 632 -19 m 686 1400 l 528 1239 l 387 1239 l 499 1400 l 686 1400 z "},"":{"ha":1008,"x_min":93,"x_max":915,"o":"m 503 -19 q 282 34 375 -19 q 141 183 190 88 q 93 399 93 278 l 93 976 l 281 976 l 281 421 q 307 283 281 343 q 383 190 333 223 q 503 156 433 156 q 625 190 574 156 q 701 283 675 223 q 727 421 727 343 l 727 976 l 915 976 l 915 399 q 867 183 915 278 q 725 34 818 88 q 503 -19 632 -19 z "},"":{"ha":1008,"x_min":93,"x_max":915,"o":"m 503 -19 q 282 34 375 -19 q 141 183 190 88 q 93 399 93 278 l 93 976 l 281 976 l 281 421 q 307 283 281 343 q 383 190 333 223 q 503 156 433 156 q 625 190 574 156 q 701 283 675 223 q 727 421 727 343 l 727 976 l 915 976 l 915 399 q 867 183 915 278 q 725 34 818 88 q 503 -19 632 -19 m 299 1363 l 358 1451 l 493 1371 l 628 1451 l 688 1363 l 511 1241 l 476 1241 l 299 1363 z "},"":{"ha":1008,"x_min":93,"x_max":915,"o":"m 503 -19 q 282 34 375 -19 q 141 183 190 88 q 93 399 93 278 l 93 976 l 281 976 l 281 421 q 307 283 281 343 q 383 190 333 223 q 503 156 433 156 q 625 190 574 156 q 701 283 675 223 q 727 421 727 343 l 727 976 l 915 976 l 915 399 q 867 183 915 278 q 725 34 818 88 q 503 -19 632 -19 m 566 1239 l 425 1239 l 267 1400 l 453 1400 l 566 1239 z "},"":{"ha":1008,"x_min":93,"x_max":915,"o":"m 503 -19 q 282 34 375 -19 q 141 183 190 88 q 93 399 93 278 l 93 976 l 281 976 l 281 421 q 307 283 281 343 q 383 190 333 223 q 503 156 433 156 q 625 190 574 156 q 701 283 675 223 q 727 421 727 343 l 727 976 l 915 976 l 915 399 q 867 183 915 278 q 725 34 818 88 q 503 -19 632 -19 z "},"":{"ha":1008,"x_min":93,"x_max":915,"o":"m 503 -19 q 282 34 375 -19 q 141 183 190 88 q 93 399 93 278 l 93 976 l 281 976 l 281 421 q 307 283 281 343 q 383 190 333 223 q 503 156 433 156 q 625 190 574 156 q 701 283 675 223 q 727 421 727 343 l 727 976 l 915 976 l 915 399 q 867 183 915 278 q 725 34 818 88 q 503 -19 632 -19 z "},"":{"ha":1008,"x_min":93,"x_max":915,"o":"m 503 -19 q 282 34 375 -19 q 141 183 190 88 q 93 399 93 278 l 93 976 l 281 976 l 281 421 q 307 283 281 343 q 383 190 333 223 q 503 156 433 156 q 625 190 574 156 q 701 283 675 223 q 727 421 727 343 l 727 976 l 915 976 l 915 399 q 867 183 915 278 q 725 34 818 88 q 503 -19 632 -19 m 566 1043 l 425 1043 l 267 1204 l 453 1204 l 566 1043 z "},"":{"ha":1008,"x_min":93,"x_max":915,"o":"m 503 -19 q 282 34 375 -19 q 141 183 190 88 q 93 399 93 278 l 93 976 l 281 976 l 281 421 q 307 283 281 343 q 383 190 333 223 q 503 156 433 156 q 625 190 574 156 q 701 283 675 223 q 727 421 727 343 l 727 976 l 915 976 l 915 399 q 867 183 915 278 q 725 34 818 88 q 503 -19 632 -19 m 453 1047 q 473 1087 467 1072 q 479 1117 479 1103 q 460 1138 479 1138 q 415 1123 438 1138 l 400 1182 q 491 1213 445 1213 q 558 1197 533 1213 q 583 1153 583 1181 q 571 1108 583 1129 q 528 1047 559 1087 l 453 1047 z "},"":{"ha":1080,"x_min":93,"x_max":1070,"o":"m 1053 1137 q 1070 1051 1070 1092 q 1030 946 1070 988 q 915 894 989 904 l 915 399 q 867 183 915 278 q 725 34 818 88 q 503 -19 632 -19 q 282 34 375 -19 q 141 183 190 88 q 93 399 93 278 l 93 976 l 281 976 l 281 421 q 307 283 281 343 q 383 190 333 223 q 503 156 433 156 q 625 190 574 156 q 701 283 675 223 q 727 421 727 343 l 727 976 l 854 976 q 909 996 890 976 q 927 1047 927 1015 q 913 1107 927 1075 l 1053 1137 z "},"":{"ha":1080,"x_min":93,"x_max":1070,"o":"m 1053 1137 q 1070 1051 1070 1092 q 1030 946 1070 988 q 915 894 989 904 l 915 399 q 867 183 915 278 q 725 34 818 88 q 503 -19 632 -19 q 282 34 375 -19 q 141 183 190 88 q 93 399 93 278 l 93 976 l 281 976 l 281 421 q 307 283 281 343 q 383 190 333 223 q 503 156 433 156 q 625 190 574 156 q 701 283 675 223 q 727 421 727 343 l 727 976 l 854 976 q 909 996 890 976 q 927 1047 927 1015 q 913 1107 927 1075 l 1053 1137 m 686 1204 l 528 1043 l 387 1043 l 499 1204 l 686 1204 z "},"":{"ha":1080,"x_min":93,"x_max":1070,"o":"m 1053 1137 q 1070 1051 1070 1092 q 1030 946 1070 988 q 915 894 989 904 l 915 399 q 867 183 915 278 q 725 34 818 88 q 503 -19 632 -19 q 282 34 375 -19 q 141 183 190 88 q 93 399 93 278 l 93 976 l 281 976 l 281 421 q 307 283 281 343 q 383 190 333 223 q 503 156 433 156 q 625 190 574 156 q 701 283 675 223 q 727 421 727 343 l 727 976 l 854 976 q 909 996 890 976 q 927 1047 927 1015 q 913 1107 927 1075 l 1053 1137 z "},"":{"ha":1080,"x_min":93,"x_max":1070,"o":"m 1053 1137 q 1070 1051 1070 1092 q 1030 946 1070 988 q 915 894 989 904 l 915 399 q 867 183 915 278 q 725 34 818 88 q 503 -19 632 -19 q 282 34 375 -19 q 141 183 190 88 q 93 399 93 278 l 93 976 l 281 976 l 281 421 q 307 283 281 343 q 383 190 333 223 q 503 156 433 156 q 625 190 574 156 q 701 283 675 223 q 727 421 727 343 l 727 976 l 854 976 q 909 996 890 976 q 927 1047 927 1015 q 913 1107 927 1075 l 1053 1137 m 566 1043 l 425 1043 l 267 1204 l 453 1204 l 566 1043 z "},"":{"ha":1080,"x_min":93,"x_max":1070,"o":"m 1053 1137 q 1070 1051 1070 1092 q 1030 946 1070 988 q 915 894 989 904 l 915 399 q 867 183 915 278 q 725 34 818 88 q 503 -19 632 -19 q 282 34 375 -19 q 141 183 190 88 q 93 399 93 278 l 93 976 l 281 976 l 281 421 q 307 283 281 343 q 383 190 333 223 q 503 156 433 156 q 625 190 574 156 q 701 283 675 223 q 727 421 727 343 l 727 976 l 854 976 q 909 996 890 976 q 927 1047 927 1015 q 913 1107 927 1075 l 1053 1137 m 453 1047 q 473 1087 467 1072 q 479 1117 479 1103 q 460 1138 479 1138 q 415 1123 438 1138 l 400 1182 q 491 1213 445 1213 q 558 1197 533 1213 q 583 1153 583 1181 q 571 1108 583 1129 q 528 1047 559 1087 l 453 1047 z "},"":{"ha":1080,"x_min":93,"x_max":1070,"o":"m 1053 1137 q 1070 1051 1070 1092 q 1030 946 1070 988 q 915 894 989 904 l 915 399 q 867 183 915 278 q 725 34 818 88 q 503 -19 632 -19 q 282 34 375 -19 q 141 183 190 88 q 93 399 93 278 l 93 976 l 281 976 l 281 421 q 307 283 281 343 q 383 190 333 223 q 503 156 433 156 q 625 190 574 156 q 701 283 675 223 q 727 421 727 343 l 727 976 l 854 976 q 909 996 890 976 q 927 1047 927 1015 q 913 1107 927 1075 l 1053 1137 z "},"":{"ha":1008,"x_min":93,"x_max":915,"o":"m 503 -19 q 282 34 375 -19 q 141 183 190 88 q 93 399 93 278 l 93 976 l 281 976 l 281 421 q 307 283 281 343 q 383 190 333 223 q 503 156 433 156 q 625 190 574 156 q 701 283 675 223 q 727 421 727 343 l 727 976 l 915 976 l 915 399 q 867 183 915 278 q 725 34 818 88 q 503 -19 632 -19 m 565 1206 l 426 1044 l 303 1044 l 402 1206 l 565 1206 m 753 1205 l 613 1044 l 487 1044 l 588 1205 l 753 1205 z "},"":{"ha":1008,"x_min":93,"x_max":915,"o":"m 503 -19 q 282 34 375 -19 q 141 183 190 88 q 93 399 93 278 l 93 976 l 281 976 l 281 421 q 307 283 281 343 q 383 190 333 223 q 503 156 433 156 q 625 190 574 156 q 701 283 675 223 q 727 421 727 343 l 727 976 l 915 976 l 915 399 q 867 183 915 278 q 725 34 818 88 q 503 -19 632 -19 m 491 1214 q 597 1191 554 1214 q 661 1127 640 1167 q 683 1037 682 1088 l 551 1037 q 491 1108 555 1108 q 443 1090 457 1108 q 431 1037 429 1072 l 299 1037 q 321 1127 300 1087 q 385 1191 342 1167 q 491 1214 428 1214 z "},"":{"ha":1008,"x_min":93,"x_max":915,"o":"m 503 -19 q 282 34 375 -19 q 141 183 190 88 q 93 399 93 278 l 93 976 l 281 976 l 281 421 q 307 283 281 343 q 383 190 333 223 q 503 156 433 156 q 625 190 574 156 q 701 283 675 223 q 727 421 727 343 l 727 976 l 915 976 l 915 399 q 867 183 915 278 q 725 34 818 88 q 503 -19 632 -19 z "},"":{"ha":1008,"x_min":93,"x_max":915,"o":"m 503 -19 q 282 34 375 -19 q 141 183 190 88 q 93 399 93 278 l 93 976 l 281 976 l 281 421 q 307 283 281 343 q 383 190 333 223 q 503 156 433 156 q 625 190 574 156 q 701 283 675 223 q 727 421 727 343 l 727 976 l 915 976 l 915 399 q 867 183 915 278 q 725 34 818 88 q 503 -19 632 -19 z "},"":{"ha":1008,"x_min":93,"x_max":915,"o":"m 915 399 q 879 209 915 294 q 773 67 842 124 l 778 67 q 724 10 742 38 q 706 -42 706 -18 q 719 -76 706 -62 q 756 -89 732 -89 q 800 -83 774 -89 l 809 -169 q 765 -183 786 -179 q 715 -187 744 -187 q 613 -157 645 -187 q 580 -80 580 -127 q 599 -11 580 -47 q 503 -19 554 -19 q 282 34 375 -19 q 141 183 190 88 q 93 399 93 278 l 93 976 l 281 976 l 281 421 q 307 283 281 343 q 383 190 333 223 q 503 156 433 156 q 625 190 574 156 q 701 283 675 223 q 727 421 727 343 l 727 976 l 915 976 l 915 399 z "},"":{"ha":1008,"x_min":93,"x_max":915,"o":"m 503 -19 q 282 34 375 -19 q 141 183 190 88 q 93 399 93 278 l 93 976 l 281 976 l 281 421 q 307 283 281 343 q 383 190 333 223 q 503 156 433 156 q 625 190 574 156 q 701 283 675 223 q 727 421 727 343 l 727 976 l 915 976 l 915 399 q 867 183 915 278 q 725 34 818 88 q 503 -19 632 -19 m 491 1042 q 406 1072 438 1042 q 374 1151 374 1102 q 406 1230 374 1201 q 491 1260 438 1260 q 576 1230 544 1260 q 608 1151 608 1200 q 576 1072 608 1102 q 491 1042 543 1042 m 491 1108 q 525 1120 512 1108 q 538 1151 538 1132 q 524 1183 538 1171 q 491 1196 511 1196 q 458 1183 471 1196 q 444 1151 444 1171 q 457 1120 444 1132 q 491 1108 470 1108 z "},"":{"ha":1008,"x_min":93,"x_max":915,"o":"m 503 -19 q 282 34 375 -19 q 141 183 190 88 q 93 399 93 278 l 93 976 l 281 976 l 281 421 q 307 283 281 343 q 383 190 333 223 q 503 156 433 156 q 625 190 574 156 q 701 283 675 223 q 727 421 727 343 l 727 976 l 915 976 l 915 399 q 867 183 915 278 q 725 34 818 88 q 503 -19 632 -19 z "},"":{"ha":1008,"x_min":93,"x_max":915,"o":"m 503 -19 q 282 34 375 -19 q 141 183 190 88 q 93 399 93 278 l 93 976 l 281 976 l 281 421 q 307 283 281 343 q 383 190 333 223 q 503 156 433 156 q 625 190 574 156 q 701 283 675 223 q 727 421 727 343 l 727 976 l 915 976 l 915 399 q 867 183 915 278 q 725 34 818 88 q 503 -19 632 -19 m 686 1394 l 528 1233 l 387 1233 l 499 1394 l 686 1394 z "},"":{"ha":1008,"x_min":93,"x_max":915,"o":"m 503 -19 q 282 34 375 -19 q 141 183 190 88 q 93 399 93 278 l 93 976 l 281 976 l 281 421 q 307 283 281 343 q 383 190 333 223 q 503 156 433 156 q 625 190 574 156 q 701 283 675 223 q 727 421 727 343 l 727 976 l 915 976 l 915 399 q 867 183 915 278 q 725 34 818 88 q 503 -19 632 -19 z "},"":{"ha":942,"x_min":10,"x_max":932,"o":"m 551 0 l 392 0 l 10 976 l 211 976 l 470 264 l 472 264 l 731 976 l 932 976 l 551 0 z "},"":{"ha":942,"x_min":10,"x_max":932,"o":"m 551 0 l 392 0 l 10 976 l 211 976 l 470 264 l 472 264 l 731 976 l 932 976 l 551 0 z "},"":{"ha":1391,"x_min":10,"x_max":1381,"o":"m 555 0 l 392 0 l 10 976 l 213 976 l 476 263 l 724 976 l 923 976 l 793 610 l 919 264 l 1178 976 l 1381 976 l 998 0 l 838 0 l 697 366 l 555 0 m 892 1206 l 734 1044 l 593 1044 l 706 1206 l 892 1206 z "},"":{"ha":1391,"x_min":10,"x_max":1381,"o":"m 555 0 l 392 0 l 10 976 l 213 976 l 476 263 l 724 976 l 923 976 l 793 610 l 919 264 l 1178 976 l 1381 976 l 998 0 l 838 0 l 697 366 l 555 0 m 697 1113 l 562 1032 l 502 1121 l 680 1242 l 715 1242 l 891 1121 l 832 1032 l 697 1113 z "},"":{"ha":1391,"x_min":10,"x_max":1381,"o":"m 555 0 l 392 0 l 10 976 l 213 976 l 476 263 l 724 976 l 923 976 l 793 610 l 919 264 l 1178 976 l 1381 976 l 998 0 l 838 0 l 697 366 l 555 0 z "},"":{"ha":1391,"x_min":10,"x_max":1381,"o":"m 555 0 l 392 0 l 10 976 l 213 976 l 476 263 l 724 976 l 923 976 l 793 610 l 919 264 l 1178 976 l 1381 976 l 998 0 l 838 0 l 697 366 l 555 0 z "},"":{"ha":1391,"x_min":10,"x_max":1381,"o":"m 555 0 l 392 0 l 10 976 l 213 976 l 476 263 l 724 976 l 923 976 l 793 610 l 919 264 l 1178 976 l 1381 976 l 998 0 l 838 0 l 697 366 l 555 0 z "},"":{"ha":1391,"x_min":10,"x_max":1381,"o":"m 555 0 l 392 0 l 10 976 l 213 976 l 476 263 l 724 976 l 923 976 l 793 610 l 919 264 l 1178 976 l 1381 976 l 998 0 l 838 0 l 697 366 l 555 0 m 772 1044 l 631 1044 l 473 1206 l 660 1206 l 772 1044 z "},"":{"ha":935,"x_min":10,"x_max":919,"o":"m 232 0 l 10 0 l 348 501 l 32 976 l 256 976 l 465 642 l 671 976 l 896 976 l 587 501 l 919 0 l 696 0 l 464 364 l 232 0 z "},"":{"ha":935,"x_min":10,"x_max":919,"o":"m 232 0 l 10 0 l 348 501 l 32 976 l 256 976 l 465 642 l 671 976 l 896 976 l 587 501 l 919 0 l 696 0 l 464 364 l 232 0 z "},"":{"ha":883,"x_min":10,"x_max":874,"o":"m 536 0 l 348 0 l 348 391 l 10 976 l 228 976 l 443 567 l 655 976 l 874 976 l 536 392 l 536 0 m 639 1204 l 481 1043 l 340 1043 l 452 1204 l 639 1204 z "},"":{"ha":883,"x_min":10,"x_max":874,"o":"m 536 0 l 348 0 l 348 391 l 10 976 l 228 976 l 443 567 l 655 976 l 874 976 l 536 392 l 536 0 m 442 1111 l 308 1031 l 248 1119 l 426 1240 l 460 1240 l 637 1119 l 578 1031 l 442 1111 z "},"":{"ha":883,"x_min":10,"x_max":874,"o":"m 536 0 l 348 0 l 348 391 l 10 976 l 228 976 l 443 567 l 655 976 l 874 976 l 536 392 l 536 0 z "},"":{"ha":883,"x_min":10,"x_max":874,"o":"m 536 0 l 348 0 l 348 391 l 10 976 l 228 976 l 443 567 l 655 976 l 874 976 l 536 392 l 536 0 z "},"":{"ha":883,"x_min":10,"x_max":874,"o":"m 536 0 l 348 0 l 348 391 l 10 976 l 228 976 l 443 567 l 655 976 l 874 976 l 536 392 l 536 0 z "},"":{"ha":883,"x_min":10,"x_max":874,"o":"m 536 0 l 348 0 l 348 391 l 10 976 l 228 976 l 443 567 l 655 976 l 874 976 l 536 392 l 536 0 m 519 1043 l 378 1043 l 219 1204 l 406 1204 l 519 1043 z "},"":{"ha":883,"x_min":10,"x_max":874,"o":"m 536 0 l 348 0 l 348 391 l 10 976 l 228 976 l 443 567 l 655 976 l 874 976 l 536 392 l 536 0 m 406 1047 q 426 1087 419 1072 q 432 1117 432 1103 q 413 1138 432 1138 q 368 1123 391 1138 l 353 1182 q 444 1213 398 1213 q 511 1197 485 1213 q 536 1153 536 1181 q 524 1108 536 1129 q 481 1047 512 1087 l 406 1047 z "},"":{"ha":883,"x_min":10,"x_max":874,"o":"m 536 0 l 348 0 l 348 391 l 10 976 l 228 976 l 443 567 l 655 976 l 874 976 l 536 392 l 536 0 z "},"":{"ha":883,"x_min":10,"x_max":874,"o":"m 536 0 l 348 0 l 348 391 l 10 976 l 228 976 l 443 567 l 655 976 l 874 976 l 536 392 l 536 0 z "},"":{"ha":886,"x_min":59,"x_max":827,"o":"m 827 0 l 59 0 l 59 140 l 564 806 l 68 806 l 68 976 l 814 976 l 814 845 l 303 170 l 827 170 l 827 0 m 621 1204 l 463 1043 l 322 1043 l 434 1204 l 621 1204 z "},"":{"ha":886,"x_min":59,"x_max":827,"o":"m 827 0 l 59 0 l 59 140 l 564 806 l 68 806 l 68 976 l 814 976 l 814 845 l 303 170 l 827 170 l 827 0 m 233 1167 l 293 1256 l 428 1175 l 563 1256 l 622 1167 l 446 1045 l 411 1045 l 233 1167 z "},"":{"ha":886,"x_min":59,"x_max":827,"o":"m 827 0 l 59 0 l 59 140 l 564 806 l 68 806 l 68 976 l 814 976 l 814 845 l 303 170 l 827 170 l 827 0 m 424 1111 l 290 1031 l 230 1119 l 408 1240 l 442 1240 l 619 1119 l 560 1031 l 424 1111 z "},"":{"ha":886,"x_min":59,"x_max":827,"o":"m 827 0 l 59 0 l 59 140 l 564 806 l 68 806 l 68 976 l 814 976 l 814 845 l 303 170 l 827 170 l 827 0 z "},"":{"ha":886,"x_min":59,"x_max":827,"o":"m 827 0 l 59 0 l 59 140 l 564 806 l 68 806 l 68 976 l 814 976 l 814 845 l 303 170 l 827 170 l 827 0 z "},"":{"ha":886,"x_min":59,"x_max":827,"o":"m 827 0 l 59 0 l 59 140 l 564 806 l 68 806 l 68 976 l 814 976 l 814 845 l 303 170 l 827 170 l 827 0 z "},"":{"ha":886,"x_min":59,"x_max":827,"o":"m 488 415 l 303 170 l 827 170 l 827 0 l 59 0 l 59 140 l 267 415 l 164 415 l 164 565 l 382 565 l 564 806 l 68 806 l 68 976 l 814 976 l 814 845 l 602 565 l 737 565 l 737 415 l 488 415 z "},"":{"ha":902,"x_min":49,"x_max":806,"o":"m 652 728 l 806 728 l 806 0 l 651 0 l 639 85 q 541 10 597 38 q 415 -17 485 -17 q 232 34 317 -17 q 99 172 148 85 q 49 363 49 259 q 99 555 49 467 q 233 693 149 642 q 415 744 317 744 q 543 716 486 744 q 641 640 599 688 l 652 728 m 431 151 q 536 178 488 151 q 612 254 584 206 q 640 363 640 302 q 612 472 640 423 q 536 549 584 521 q 431 576 488 576 q 326 549 374 576 q 252 472 279 521 q 225 363 225 423 q 252 253 225 302 q 326 178 279 205 q 431 151 373 151 z "},"":{"ha":902,"x_min":49,"x_max":806,"o":"m 652 728 l 806 728 l 806 0 l 651 0 l 639 85 q 541 10 597 38 q 415 -17 485 -17 q 232 34 317 -17 q 99 172 148 85 q 49 363 49 259 q 99 555 49 467 q 233 693 149 642 q 415 744 317 744 q 543 716 486 744 q 641 640 599 688 l 652 728 m 431 151 q 536 178 488 151 q 612 254 584 206 q 640 363 640 302 q 612 472 640 423 q 536 549 584 521 q 431 576 488 576 q 326 549 374 576 q 252 472 279 521 q 225 363 225 423 q 252 253 225 302 q 326 178 279 205 q 431 151 373 151 z "},"":{"ha":902,"x_min":49,"x_max":806,"o":"m 652 728 l 806 728 l 806 0 l 651 0 l 639 85 q 541 10 597 38 q 415 -17 485 -17 q 232 34 317 -17 q 99 172 148 85 q 49 363 49 259 q 99 555 49 467 q 233 693 149 642 q 415 744 317 744 q 543 716 486 744 q 641 640 599 688 l 652 728 m 431 151 q 536 178 488 151 q 612 254 584 206 q 640 363 640 302 q 612 472 640 423 q 536 549 584 521 q 431 576 488 576 q 326 549 374 576 q 252 472 279 521 q 225 363 225 423 q 252 253 225 302 q 326 178 279 205 q 431 151 373 151 m 606 1167 l 489 1015 l 385 1015 l 461 1168 l 606 1167 m 443 822 q 304 873 351 822 q 256 1007 256 923 l 384 1007 q 398 948 384 966 q 443 930 411 930 q 489 948 475 930 q 503 1007 503 967 l 631 1007 q 583 872 630 922 q 443 822 535 822 z "},"":{"ha":902,"x_min":49,"x_max":806,"o":"m 652 728 l 806 728 l 806 0 l 651 0 l 639 85 q 541 10 597 38 q 415 -17 485 -17 q 232 34 317 -17 q 99 172 148 85 q 49 363 49 259 q 99 555 49 467 q 233 693 149 642 q 415 744 317 744 q 543 716 486 744 q 641 640 599 688 l 652 728 m 431 151 q 536 178 488 151 q 612 254 584 206 q 640 363 640 302 q 612 472 640 423 q 536 549 584 521 q 431 576 488 576 q 326 549 374 576 q 252 472 279 521 q 225 363 225 423 q 252 253 225 302 q 326 178 279 205 q 431 151 373 151 z "},"":{"ha":902,"x_min":49,"x_max":806,"o":"m 652 728 l 806 728 l 806 0 l 651 0 l 639 85 q 541 10 597 38 q 415 -17 485 -17 q 232 34 317 -17 q 99 172 148 85 q 49 363 49 259 q 99 555 49 467 q 233 693 149 642 q 415 744 317 744 q 543 716 486 744 q 641 640 599 688 l 652 728 m 431 151 q 536 178 488 151 q 612 254 584 206 q 640 363 640 302 q 612 472 640 423 q 536 549 584 521 q 431 576 488 576 q 326 549 374 576 q 252 472 279 521 q 225 363 225 423 q 252 253 225 302 q 326 178 279 205 q 431 151 373 151 m 501 1015 l 397 1015 l 280 1167 l 424 1168 l 501 1015 m 442 822 q 303 872 350 822 q 255 1007 256 922 l 383 1007 q 396 948 382 967 q 442 930 410 930 q 488 948 474 930 q 501 1007 501 966 l 630 1007 q 582 873 629 923 q 442 822 534 822 z "},"":{"ha":902,"x_min":49,"x_max":806,"o":"m 652 728 l 806 728 l 806 0 l 651 0 l 639 85 q 541 10 597 38 q 415 -17 485 -17 q 232 34 317 -17 q 99 172 148 85 q 49 363 49 259 q 99 555 49 467 q 233 693 149 642 q 415 744 317 744 q 543 716 486 744 q 641 640 599 688 l 652 728 m 431 151 q 536 178 488 151 q 612 254 584 206 q 640 363 640 302 q 612 472 640 423 q 536 549 584 521 q 431 576 488 576 q 326 549 374 576 q 252 472 279 521 q 225 363 225 423 q 252 253 225 302 q 326 178 279 205 q 431 151 373 151 m 415 1012 q 439 1069 439 1049 q 435 1082 439 1077 q 423 1087 431 1087 q 388 1074 406 1087 l 374 1119 q 413 1139 395 1133 q 450 1144 431 1144 q 500 1132 481 1144 q 520 1098 520 1119 q 510 1063 520 1079 q 474 1012 500 1046 l 415 1012 m 443 822 q 304 873 351 822 q 256 1007 256 923 l 384 1007 q 398 948 384 966 q 443 930 411 930 q 489 948 475 930 q 503 1007 503 967 l 631 1007 q 583 872 630 922 q 443 822 535 822 z "},"":{"ha":902,"x_min":49,"x_max":806,"o":"m 652 728 l 806 728 l 806 0 l 651 0 l 639 85 q 541 10 597 38 q 415 -17 485 -17 q 232 34 317 -17 q 99 172 148 85 q 49 363 49 259 q 99 555 49 467 q 233 693 149 642 q 415 744 317 744 q 543 716 486 744 q 641 640 599 688 l 652 728 m 431 151 q 536 178 488 151 q 612 254 584 206 q 640 363 640 302 q 612 472 640 423 q 536 549 584 521 q 431 576 488 576 q 326 549 374 576 q 252 472 279 521 q 225 363 225 423 q 252 253 225 302 q 326 178 279 205 q 431 151 373 151 m 305 1058 q 346 1127 321 1107 q 399 1148 371 1148 q 431 1143 416 1148 q 466 1130 445 1139 q 489 1120 480 1124 q 507 1117 499 1117 q 526 1124 518 1117 q 540 1149 534 1131 l 599 1122 q 558 1053 583 1074 q 506 1033 533 1033 q 473 1038 488 1033 q 438 1051 458 1042 q 416 1059 427 1056 q 397 1063 405 1063 q 363 1032 375 1063 l 305 1058 m 443 822 q 304 873 351 822 q 256 1007 256 923 l 384 1007 q 398 948 384 966 q 443 930 411 930 q 489 948 475 930 q 503 1007 503 967 l 631 1007 q 583 872 630 922 q 443 822 535 822 z "},"":{"ha":902,"x_min":49,"x_max":806,"o":"m 652 728 l 806 728 l 806 0 l 651 0 l 639 85 q 541 10 597 38 q 415 -17 485 -17 q 232 34 317 -17 q 99 172 148 85 q 49 363 49 259 q 99 555 49 467 q 233 693 149 642 q 415 744 317 744 q 543 716 486 744 q 641 640 599 688 l 652 728 m 431 151 q 536 178 488 151 q 612 254 584 206 q 640 363 640 302 q 612 472 640 423 q 536 549 584 521 q 431 576 488 576 q 326 549 374 576 q 252 472 279 521 q 225 363 225 423 q 252 253 225 302 q 326 178 279 205 q 431 151 373 151 z "},"":{"ha":902,"x_min":49,"x_max":806,"o":"m 652 728 l 806 728 l 806 0 l 651 0 l 639 85 q 541 10 597 38 q 415 -17 485 -17 q 232 34 317 -17 q 99 172 148 85 q 49 363 49 259 q 99 555 49 467 q 233 693 149 642 q 415 744 317 744 q 543 716 486 744 q 641 640 599 688 l 652 728 m 431 151 q 536 178 488 151 q 612 254 584 206 q 640 363 640 302 q 612 472 640 423 q 536 549 584 521 q 431 576 488 576 q 326 549 374 576 q 252 472 279 521 q 225 363 225 423 q 252 253 225 302 q 326 178 279 205 q 431 151 373 151 z "},"":{"ha":902,"x_min":49,"x_max":806,"o":"m 652 728 l 806 728 l 806 0 l 651 0 l 639 85 q 541 10 597 38 q 415 -17 485 -17 q 232 34 317 -17 q 99 172 148 85 q 49 363 49 259 q 99 555 49 467 q 233 693 149 642 q 415 744 317 744 q 543 716 486 744 q 641 640 599 688 l 652 728 m 431 151 q 536 178 488 151 q 612 254 584 206 q 640 363 640 302 q 612 472 640 423 q 536 549 584 521 q 431 576 488 576 q 326 549 374 576 q 252 472 279 521 q 225 363 225 423 q 252 253 225 302 q 326 178 279 205 q 431 151 373 151 m 753 1086 l 635 970 l 546 983 l 630 1104 l 753 1086 m 443 912 l 309 828 l 247 915 l 422 1038 l 466 1038 l 640 915 l 578 828 l 443 912 z "},"":{"ha":902,"x_min":49,"x_max":806,"o":"m 652 728 l 806 728 l 806 0 l 651 0 l 639 85 q 541 10 597 38 q 415 -17 485 -17 q 232 34 317 -17 q 99 172 148 85 q 49 363 49 259 q 99 555 49 467 q 233 693 149 642 q 415 744 317 744 q 543 716 486 744 q 641 640 599 688 l 652 728 m 431 151 q 536 178 488 151 q 612 254 584 206 q 640 363 640 302 q 612 472 640 423 q 536 549 584 521 q 431 576 488 576 q 326 549 374 576 q 252 472 279 521 q 225 363 225 423 q 252 253 225 302 q 326 178 279 205 q 431 151 373 151 z "},"":{"ha":902,"x_min":49,"x_max":806,"o":"m 652 728 l 806 728 l 806 0 l 651 0 l 639 85 q 541 10 597 38 q 415 -17 485 -17 q 232 34 317 -17 q 99 172 148 85 q 49 363 49 259 q 99 555 49 467 q 233 693 149 642 q 415 744 317 744 q 543 716 486 744 q 641 640 599 688 l 652 728 m 431 151 q 536 178 488 151 q 612 254 584 206 q 640 363 640 302 q 612 472 640 423 q 536 549 584 521 q 431 576 488 576 q 326 549 374 576 q 252 472 279 521 q 225 363 225 423 q 252 253 225 302 q 326 178 279 205 q 431 151 373 151 m 422 1030 l 465 1030 l 639 907 l 577 820 l 443 904 l 309 820 l 247 907 l 351 981 l 263 970 l 148 1090 l 272 1104 l 352 981 l 422 1030 z "},"":{"ha":902,"x_min":49,"x_max":806,"o":"m 652 728 l 806 728 l 806 0 l 651 0 l 639 85 q 541 10 597 38 q 415 -17 485 -17 q 232 34 317 -17 q 99 172 148 85 q 49 363 49 259 q 99 555 49 467 q 233 693 149 642 q 415 744 317 744 q 543 716 486 744 q 641 640 599 688 l 652 728 m 431 151 q 536 178 488 151 q 612 254 584 206 q 640 363 640 302 q 612 472 640 423 q 536 549 584 521 q 431 576 488 576 q 326 549 374 576 q 252 472 279 521 q 225 363 225 423 q 252 253 225 302 q 326 178 279 205 q 431 151 373 151 m 574 963 q 596 1015 596 995 q 581 1031 596 1031 q 549 1019 565 1031 l 538 1061 q 606 1084 575 1084 q 652 1072 634 1084 q 671 1041 671 1060 q 661 1008 671 1024 q 628 963 651 992 l 574 963 m 442 904 l 308 820 l 247 907 l 422 1030 l 465 1030 l 639 907 l 577 820 l 442 904 z "},"":{"ha":902,"x_min":49,"x_max":806,"o":"m 652 728 l 806 728 l 806 0 l 651 0 l 639 85 q 541 10 597 38 q 415 -17 485 -17 q 232 34 317 -17 q 99 172 148 85 q 49 363 49 259 q 99 555 49 467 q 233 693 149 642 q 415 744 317 744 q 543 716 486 744 q 641 640 599 688 l 652 728 m 431 151 q 536 178 488 151 q 612 254 584 206 q 640 363 640 302 q 612 472 640 423 q 536 549 584 521 q 431 576 488 576 q 326 549 374 576 q 252 472 279 521 q 225 363 225 423 q 252 253 225 302 q 326 178 279 205 q 431 151 373 151 m 306 1078 q 345 1145 322 1126 q 395 1165 369 1165 q 426 1160 412 1165 q 460 1147 441 1156 q 481 1138 470 1142 q 499 1135 491 1135 q 517 1141 509 1135 q 531 1165 524 1148 l 586 1140 q 547 1073 571 1093 q 497 1053 524 1053 q 466 1058 481 1053 q 433 1072 451 1063 q 412 1080 422 1076 q 394 1083 401 1083 q 362 1053 373 1083 l 306 1078 m 441 904 l 307 820 l 245 907 l 420 1030 l 464 1030 l 638 907 l 576 820 l 441 904 z "},"":{"ha":902,"x_min":49,"x_max":806,"o":"m 652 728 l 806 728 l 806 0 l 651 0 l 639 85 q 541 10 597 38 q 415 -17 485 -17 q 232 34 317 -17 q 99 172 148 85 q 49 363 49 259 q 99 555 49 467 q 233 693 149 642 q 415 744 317 744 q 543 716 486 744 q 641 640 599 688 l 652 728 m 431 151 q 536 178 488 151 q 612 254 584 206 q 640 363 640 302 q 612 472 640 423 q 536 549 584 521 q 431 576 488 576 q 326 549 374 576 q 252 472 279 521 q 225 363 225 423 q 252 253 225 302 q 326 178 279 205 q 431 151 373 151 m 431 822 l 311 822 l 178 998 l 344 998 l 431 822 m 622 821 l 501 821 l 368 997 l 534 997 l 622 821 z "},"":{"ha":902,"x_min":49,"x_max":806,"o":"m 652 728 l 806 728 l 806 0 l 651 0 l 639 85 q 541 10 597 38 q 415 -17 485 -17 q 232 34 317 -17 q 99 172 148 85 q 49 363 49 259 q 99 555 49 467 q 233 693 149 642 q 415 744 317 744 q 543 716 486 744 q 641 640 599 688 l 652 728 m 431 151 q 536 178 488 151 q 612 254 584 206 q 640 363 640 302 q 612 472 640 423 q 536 549 584 521 q 431 576 488 576 q 326 549 374 576 q 252 472 279 521 q 225 363 225 423 q 252 253 225 302 q 326 178 279 205 q 431 151 373 151 z "},"":{"ha":902,"x_min":49,"x_max":806,"o":"m 652 728 l 806 728 l 806 0 l 651 0 l 639 85 q 541 10 597 38 q 415 -17 485 -17 q 232 34 317 -17 q 99 172 148 85 q 49 363 49 259 q 99 555 49 467 q 233 693 149 642 q 415 744 317 744 q 543 716 486 744 q 641 640 599 688 l 652 728 m 431 151 q 536 178 488 151 q 612 254 584 206 q 640 363 640 302 q 612 472 640 423 q 536 549 584 521 q 431 576 488 576 q 326 549 374 576 q 252 472 279 521 q 225 363 225 423 q 252 253 225 302 q 326 178 279 205 q 431 151 373 151 z "},"":{"ha":902,"x_min":49,"x_max":806,"o":"m 652 728 l 806 728 l 806 0 l 651 0 l 639 85 q 541 10 597 38 q 415 -17 485 -17 q 232 34 317 -17 q 99 172 148 85 q 49 363 49 259 q 99 555 49 467 q 233 693 149 642 q 415 744 317 744 q 543 716 486 744 q 641 640 599 688 l 652 728 m 431 151 q 536 178 488 151 q 612 254 584 206 q 640 363 640 302 q 612 472 640 423 q 536 549 584 521 q 431 576 488 576 q 326 549 374 576 q 252 472 279 521 q 225 363 225 423 q 252 253 225 302 q 326 178 279 205 q 431 151 373 151 z "},"":{"ha":902,"x_min":49,"x_max":806,"o":"m 652 728 l 806 728 l 806 0 l 651 0 l 639 85 q 541 10 597 38 q 415 -17 485 -17 q 232 34 317 -17 q 99 172 148 85 q 49 363 49 259 q 99 555 49 467 q 233 693 149 642 q 415 744 317 744 q 543 716 486 744 q 641 640 599 688 l 652 728 m 431 151 q 536 178 488 151 q 612 254 584 206 q 640 363 640 302 q 612 472 640 423 q 536 549 584 521 q 431 576 488 576 q 326 549 374 576 q 252 472 279 521 q 225 363 225 423 q 252 253 225 302 q 326 178 279 205 q 431 151 373 151 z "},"":{"ha":902,"x_min":49,"x_max":806,"o":"m 652 728 l 806 728 l 806 0 l 651 0 l 639 85 q 541 10 597 38 q 415 -17 485 -17 q 232 34 317 -17 q 99 172 148 85 q 49 363 49 259 q 99 555 49 467 q 233 693 149 642 q 415 744 317 744 q 543 716 486 744 q 641 640 599 688 l 652 728 m 431 151 q 536 178 488 151 q 612 254 584 206 q 640 363 640 302 q 612 472 640 423 q 536 549 584 521 q 431 576 488 576 q 326 549 374 576 q 252 472 279 521 q 225 363 225 423 q 252 253 225 302 q 326 178 279 205 q 431 151 373 151 z "},"":{"ha":902,"x_min":49,"x_max":806,"o":"m 652 728 l 806 728 l 806 0 l 651 0 l 639 85 q 541 10 597 38 q 415 -17 485 -17 q 232 34 317 -17 q 99 172 148 85 q 49 363 49 259 q 99 555 49 467 q 233 693 149 642 q 415 744 317 744 q 543 716 486 744 q 641 640 599 688 l 652 728 m 431 151 q 536 178 488 151 q 612 254 584 206 q 640 363 640 302 q 612 472 640 423 q 536 549 584 521 q 431 576 488 576 q 326 549 374 576 q 252 472 279 521 q 225 363 225 423 q 252 253 225 302 q 326 178 279 205 q 431 151 373 151 z "},"":{"ha":902,"x_min":49,"x_max":806,"o":"m 652 728 l 806 728 l 806 0 l 651 0 l 639 85 q 541 10 597 38 q 415 -17 485 -17 q 232 34 317 -17 q 99 172 148 85 q 49 363 49 259 q 99 555 49 467 q 233 693 149 642 q 415 744 317 744 q 543 716 486 744 q 641 640 599 688 l 652 728 m 431 151 q 536 178 488 151 q 612 254 584 206 q 640 363 640 302 q 612 472 640 423 q 536 549 584 521 q 431 576 488 576 q 326 549 374 576 q 252 472 279 521 q 225 363 225 423 q 252 253 225 302 q 326 178 279 205 q 431 151 373 151 m 403 831 q 424 870 417 853 q 432 901 432 887 q 413 922 432 922 q 368 907 391 922 l 353 963 q 400 986 378 979 q 446 994 422 994 q 508 978 483 994 q 533 937 533 963 q 520 892 533 913 q 476 831 507 871 l 403 831 z "},"":{"ha":902,"x_min":49,"x_max":806,"o":"m 652 728 l 806 728 l 806 0 l 651 0 l 639 85 q 541 10 597 38 q 415 -17 485 -17 q 232 34 317 -17 q 99 172 148 85 q 49 363 49 259 q 99 555 49 467 q 233 693 149 642 q 415 744 317 744 q 543 716 486 744 q 641 640 599 688 l 652 728 m 431 151 q 536 178 488 151 q 612 254 584 206 q 640 363 640 302 q 612 472 640 423 q 536 549 584 521 q 431 576 488 576 q 326 549 374 576 q 252 472 279 521 q 225 363 225 423 q 252 253 225 302 q 326 178 279 205 q 431 151 373 151 m 442 1013 q 582 963 535 1013 q 630 828 629 913 l 502 828 q 489 888 503 869 q 442 906 474 906 q 397 888 410 906 q 383 828 383 869 l 255 828 q 303 963 256 913 q 442 1013 351 1013 z "},"":{"ha":902,"x_min":49,"x_max":806,"o":"m 652 728 l 806 728 l 806 0 l 651 0 l 639 85 q 541 10 597 38 q 415 -17 485 -17 q 232 34 317 -17 q 99 172 148 85 q 49 363 49 259 q 99 555 49 467 q 233 693 149 642 q 415 744 317 744 q 543 716 486 744 q 641 640 599 688 l 652 728 m 431 151 q 536 178 488 151 q 612 254 584 206 q 640 363 640 302 q 612 472 640 423 q 536 549 584 521 q 431 576 488 576 q 326 549 374 576 q 252 472 279 521 q 225 363 225 423 q 252 253 225 302 q 326 178 279 205 q 431 151 373 151 z "}}}
